<?xml version="1.0" standalone="no"?>
<!DOCTYPE svg PUBLIC "-//W3C//DTD SVG 20010904//EN"
 "http://www.w3.org/TR/2001/REC-SVG-20010904/DTD/svg10.dtd">
<svg version="1.0" xmlns="http://www.w3.org/2000/svg"
 width="512.000000pt" height="512.000000pt" viewBox="0 0 512.000000 512.000000"
 preserveAspectRatio="xMidYMid meet">

<g transform="translate(0.000000,512.000000) scale(0.100000,-0.100000)"
fill="#1c5375" stroke="none">
<path d="M0 3711 c0 -1118 3 -1410 12 -1414 10 -4 10 -6 1 -6 -9 -1 -13 -22
-13 -72 0 -44 4 -68 10 -64 6 3 10 -3 10 -14 0 -12 -4 -21 -10 -21 -6 0 -10
-120 -10 -340 0 -220 4 -340 10 -340 6 0 10 -9 10 -20 0 -11 -5 -20 -10 -20
-7 0 -10 -41 -8 -120 2 -110 8 -140 21 -107 4 9 6 9 6 -1 1 -7 -6 -15 -14 -18
-13 -5 -15 -79 -15 -580 l0 -574 2562 0 2561 0 -7 558 c-5 306 -8 710 -7 897
0 255 -3 341 -12 348 -9 7 -9 10 0 14 16 6 18 549 3 573 -6 10 -10 11 -10 3 0
-7 -7 -13 -16 -13 -9 0 -14 7 -12 18 2 9 11 17 20 17 9 0 19 2 21 5 2 3 7 611
11 1353 l7 1347 -1115 0 -1115 0 -4 -52 -3 -53 -2 53 -2 52 -1440 0 -1440 0 0
-1409z m2694 304 c-7 -16 -24 -21 -24 -6 0 8 7 13 27 20 1 1 0 -6 -3 -14z
m-515 -130 c-2 -79 -19 -107 -19 -31 0 46 10 106 17 106 2 0 3 -34 2 -75z
m698 -37 c-3 -7 -5 -2 -5 12 0 14 2 19 5 13 2 -7 2 -19 0 -25z m30 0 c-3 -7
-5 -2 -5 12 0 14 2 19 5 13 2 -7 2 -19 0 -25z m-727 -107 c0 -33 -4 -63 -10
-66 -6 -4 -10 18 -10 59 0 37 4 66 10 66 6 0 10 -26 10 -59z m563 52 c-7 -2
-19 -2 -25 0 -7 3 -2 5 12 5 14 0 19 -2 13 -5z m-56 -95 c-3 -7 -5 -2 -5 12 0
14 2 19 5 13 2 -7 2 -19 0 -25z m223 -28 c0 -5 -7 -10 -15 -10 -8 0 -15 -6
-15 -12 0 -9 -4 -8 -10 2 -8 12 -10 11 -10 -7 0 -18 -6 -23 -25 -23 -16 0 -25
-6 -25 -15 0 -12 -13 -15 -60 -15 -59 0 -60 -1 -61 -27 -1 -18 -3 -22 -6 -10
-3 10 0 31 6 47 8 24 7 30 -4 30 -9 0 -12 6 -9 15 4 8 12 15 20 15 8 0 14 -7
14 -15 0 -11 11 -15 48 -13 43 1 44 2 10 5 -21 2 -38 8 -38 13 0 12 30 19 100
23 30 2 61 4 68 5 6 1 12 -2 12 -8z m-731 -32 c0 -13 -4 -32 -9 -43 -7 -15 -9
-10 -9 23 -1 23 4 42 9 42 6 0 10 -10 9 -22z m881 12 c0 -5 -4 -10 -10 -10 -5
0 -10 5 -10 10 0 6 5 10 10 10 6 0 10 -4 10 -10z m-591 -348 c12 -23 21 -52
21 -64 1 -13 7 -34 15 -48 17 -30 20 -100 4 -100 -7 0 -9 11 -5 30 4 24 2 30
-12 31 -10 0 -12 3 -4 6 6 2 12 12 12 20 0 11 -3 13 -13 5 -6 -6 -29 -9 -50
-7 -33 4 -37 2 -27 -10 10 -12 9 -15 -3 -15 -12 0 -14 9 -10 48 5 50 13 70 13
34 0 -18 6 -22 30 -22 17 0 30 5 30 10 0 6 -5 10 -10 10 -6 0 -8 10 -4 24 5
20 2 23 -20 21 -25 -3 -25 -3 -21 63 2 37 7 92 11 122 l8 55 7 -86 c5 -56 14
-100 28 -127z m321 127 c0 -5 -9 -9 -20 -9 -22 0 -27 16 -7 23 15 5 27 -1 27
-14z m95 11 c-4 -6 -11 -8 -16 -5 -5 4 -9 1 -9 -4 0 -6 -11 -11 -25 -11 -24 0
-32 10 -18 23 11 11 75 8 68 -3z m58 3 c-7 -2 -21 -2 -30 0 -10 3 -4 5 12 5
17 0 24 -2 18 -5z m-256 -40 c-3 -10 -5 -4 -5 12 0 17 2 24 5 18 2 -7 2 -21 0
-30z m83 -13 c0 -5 -4 -10 -10 -10 -5 0 -10 5 -10 10 0 6 5 10 10 10 6 0 10
-4 10 -10z m40 2 c0 -5 -7 -9 -15 -9 -8 0 -15 4 -15 9 0 4 7 8 15 8 8 0 15 -4
15 -8z m-768 -32 c-2 -16 -8 -30 -13 -30 -5 0 -9 14 -9 30 0 18 5 30 13 30 9
0 12 -10 9 -30z m698 -15 c0 -9 -9 -15 -24 -15 -13 0 -27 -6 -30 -12 -3 -10
-1 25 3 40 1 1 12 2 26 2 16 0 25 -6 25 -15z m-345 -57 c-45 -109 -50 -123
-47 -130 1 -5 -2 -8 -8 -8 -5 0 -10 -13 -10 -30 0 -16 -4 -30 -10 -30 -5 0
-10 -7 -10 -15 0 -8 -4 -15 -9 -15 -13 0 11 86 38 135 11 22 21 46 21 53 0 16
43 92 49 86 2 -2 -4 -23 -14 -46z m-215 22 c0 -5 -2 -10 -4 -10 -3 0 -8 5 -11
10 -3 6 -1 10 4 10 6 0 11 -4 11 -10z m740 -32 c0 6 8 12 18 12 15 0 18 -9 18
-57 -1 -57 -2 -58 -31 -61 -23 -2 -27 0 -15 7 8 6 10 11 5 11 -6 0 -11 22 -11
50 0 28 3 44 8 37 6 -9 8 -9 8 1z m-163 -20 c-3 -8 -6 -5 -6 6 -1 11 2 17 5
13 3 -3 4 -12 1 -19z m-67 -8 c0 -11 -4 -20 -10 -20 -5 0 -10 9 -10 20 0 11 5
20 10 20 6 0 10 -9 10 -20z m97 -32 c-3 -7 -5 -2 -5 12 0 14 2 19 5 13 2 -7 2
-19 0 -25z m20 0 c-3 -7 -5 -2 -5 12 0 14 2 19 5 13 2 -7 2 -19 0 -25z m53 10
c0 -19 -2 -20 -10 -8 -9 13 -10 13 -10 0 0 -13 -1 -13 -10 0 -15 23 -12 30 10
30 14 0 20 -7 20 -22z m30 12 c0 -5 -4 -10 -10 -10 -5 0 -10 5 -10 10 0 6 5
10 10 10 6 0 10 -4 10 -10z m697 -67 c-2 -16 -4 -3 -4 27 0 30 2 43 4 28 2
-16 2 -40 0 -55z m63 26 c0 -31 -4 -48 -10 -44 -5 3 -10 26 -10 51 0 24 5 44
10 44 6 0 10 -23 10 -51z m-1510 21 c0 -5 -4 -10 -10 -10 -5 0 -10 5 -10 10 0
6 5 10 10 10 6 0 10 -4 10 -10z m28 -29 c-15 -5 -19 4 -11 24 6 18 7 18 13 -1
4 -10 3 -21 -2 -23z m602 30 c0 -6 -18 -9 -40 -9 -22 0 -37 4 -34 9 7 12 74
12 74 0z m600 -86 c-4 -29 -5 -29 -11 10 -3 22 -7 34 -8 26 0 -7 -7 -11 -16
-7 -11 4 -15 -3 -16 -27 l-2 -32 -6 30 c-4 21 -12 30 -26 31 -17 0 -20 -5 -17
-28 3 -16 0 -28 -7 -28 -7 0 -11 21 -11 53 0 28 4 48 8 42 8 -11 52 -15 52 -5
0 4 11 5 25 2 19 -3 25 0 26 14 1 11 4 3 8 -16 3 -19 4 -48 1 -65z m58 35 c1
-22 -3 -40 -8 -40 -6 0 -10 24 -10 53 0 60 16 48 18 -13z m49 -17 c-2 -16 -4
-3 -4 27 0 30 2 43 4 28 2 -16 2 -40 0 -55z m61 32 c1 -27 -3 -43 -8 -40 -12
8 -13 85 -1 85 5 0 9 -20 9 -45z m-823 5 c3 -5 1 -10 -4 -10 -6 0 -11 5 -11
10 0 6 2 10 4 10 3 0 8 -4 11 -10z m55 6 c0 -3 -4 -8 -10 -11 -5 -3 -10 -1
-10 4 0 6 5 11 10 11 6 0 10 -2 10 -4z m-736 -18 c-3 -5 0 -16 7 -24 8 -10 9
-18 3 -22 -6 -4 -16 -16 -23 -27 -11 -18 -12 -16 -7 15 4 24 3 30 -3 20 -6 -8
-14 -11 -18 -6 -4 4 0 14 10 21 17 12 17 14 1 23 -14 8 -13 10 9 10 15 0 24
-5 21 -10z m732 -51 c-1 -29 -6 -43 -17 -45 -12 -2 -15 6 -15 38 1 35 -2 40
-21 40 -12 0 -24 3 -26 8 -3 4 14 5 38 4 l42 -4 -1 -41z m112 46 c-19 -5 -25
-23 -8 -23 6 0 10 -4 10 -8 0 -4 -18 -9 -40 -10 -23 -2 -40 2 -40 8 0 5 11 10
25 10 14 0 25 4 25 9 0 5 -11 8 -25 6 -14 -1 -25 2 -25 6 0 5 21 8 48 8 26 -1
39 -3 30 -6z m48 -40 c-10 -10 -19 5 -10 18 6 11 8 11 12 0 2 -7 1 -15 -2 -18z
m-206 -15 c0 -5 -4 -8 -10 -8 -5 0 -10 10 -10 23 0 18 2 19 10 7 5 -8 10 -18
10 -22z m-303 -20 c-3 -7 -5 -2 -5 12 0 14 2 19 5 13 2 -7 2 -19 0 -25z m1523
26 c0 -15 -22 -44 -31 -39 -18 12 -10 45 11 45 11 0 20 -3 20 -6z m-1153 -36
c-3 -8 -6 -5 -6 6 -1 11 2 17 5 13 3 -3 4 -12 1 -19z m71 10 c-6 -18 -58 -19
-58 -2 0 9 12 14 31 14 20 0 29 -4 27 -12z m672 2 c0 -5 -6 -10 -12 -10 -9 0
-8 -3 2 -10 21 -13 12 -17 -60 -25 -71 -8 -76 4 -7 16 l42 6 -37 2 c-27 1 -38
6 -38 16 0 12 13 15 55 15 30 0 55 -4 55 -10z m30 0 c0 -5 -4 -10 -10 -10 -5
0 -10 5 -10 10 0 6 5 10 10 10 6 0 10 -4 10 -10z m-1084 -17 c-11 -11 -46 -14
-46 -3 0 6 12 10 27 10 14 0 23 -3 19 -7z m839 -3 c-3 -5 -20 -10 -36 -10 -18
0 -28 4 -24 10 3 6 20 10 36 10 18 0 28 -4 24 -10z m-425 -11 c0 -5 -21 -8
-47 -8 -41 1 -44 2 -18 8 47 10 65 11 65 0z m57 5 c-3 -3 -12 -4 -19 -1 -8 3
-5 6 6 6 11 1 17 -2 13 -5z m643 -4 c0 -5 -9 -10 -20 -10 -11 0 -20 5 -20 10
0 6 9 10 20 10 11 0 20 -4 20 -10z m50 0 c0 -5 -7 -10 -15 -10 -8 0 -15 5 -15
10 0 6 7 10 15 10 8 0 15 -4 15 -10z m63 3 c-7 -2 -21 -2 -30 0 -10 3 -4 5 12
5 17 0 24 -2 18 -5z m-918 -14 c-5 -7 19 -10 74 -8 45 1 84 -1 88 -5 3 -3 -9
-6 -28 -6 -19 0 -41 -5 -49 -10 -12 -8 -11 -10 8 -10 13 0 22 -6 22 -15 0 -9
-9 -15 -25 -15 -18 0 -25 5 -25 20 0 15 -6 20 -27 19 -24 -2 -25 -2 -5 -6 12
-2 22 -11 22 -20 0 -9 -6 -13 -13 -10 -8 3 -20 1 -28 -4 -11 -7 -11 -9 -1 -9
7 0 10 -4 7 -10 -3 -5 -30 -10 -59 -10 l-53 0 5 30 c2 17 9 30 14 30 6 0 8 -9
5 -20 -4 -15 0 -20 14 -20 19 0 21 8 22 68 0 15 6 22 19 22 11 0 16 -5 13 -11z
m-695 -9 c0 -5 -4 -10 -10 -10 -5 0 -10 5 -10 10 0 6 5 10 10 10 6 0 10 -4 10
-10z m1197 -2 c-28 -7 -42 -7 -50 1 -8 8 2 11 39 10 l49 -1 -38 -10z m923 1
c0 -12 -67 -12 -74 0 -3 5 12 9 34 9 22 0 40 -3 40 -9z m-1918 -11 c-7 -7 -12
-21 -12 -32 0 -10 -3 -17 -6 -13 -10 10 5 57 18 57 9 0 9 -3 0 -12z m198 -10
c0 -4 -7 -8 -15 -8 -8 0 -15 4 -15 8 0 5 7 9 15 9 8 0 15 -4 15 -9z m227 6
c-3 -3 -12 -4 -19 -1 -8 3 -5 6 6 6 11 1 17 -2 13 -5z m653 -4 c0 -5 -4 -10
-10 -10 -5 0 -10 5 -10 10 0 6 5 10 10 10 6 0 10 -4 10 -10z m266 -37 c-11
-11 -19 6 -11 24 8 17 8 17 12 0 3 -10 2 -21 -1 -24z m52 14 c2 -12 -3 -17
-17 -17 -12 0 -21 6 -21 13 0 31 32 34 38 4z m50 0 c2 -10 -3 -17 -12 -17 -10
0 -16 9 -16 21 0 24 23 21 28 -4z m339 6 c7 -18 2 -23 -30 -29 -27 -4 -42 8
-34 30 7 18 57 17 64 -1z m-1340 -15 c-3 -8 -6 -5 -6 6 -1 11 2 17 5 13 3 -3
4 -12 1 -19z m771 5 c-2 -13 -14 -19 -45 -20 -37 -2 -40 -1 -36 17 7 28 86 30
81 3z m19 -15 c-3 -7 -5 -2 -5 12 0 14 2 19 5 13 2 -7 2 -19 0 -25z m30 10
c-3 -8 -6 -5 -6 6 -1 11 2 17 5 13 3 -3 4 -12 1 -19z m33 7 c0 -8 -4 -15 -10
-15 -5 0 -10 7 -10 15 0 8 5 15 10 15 6 0 10 -7 10 -15z m210 0 c0 -9 -9 -15
-25 -15 -16 0 -25 6 -25 15 0 9 9 15 25 15 16 0 25 -6 25 -15z m107 -7 c-3 -8
-6 -5 -6 6 -1 11 2 17 5 13 3 -3 4 -12 1 -19z m20 0 c-3 -8 -6 -5 -6 6 -1 11
2 17 5 13 3 -3 4 -12 1 -19z m25 -10 c-8 -8 -9 -4 -5 13 4 13 8 18 11 10 2 -7
-1 -18 -6 -23z m195 10 c-3 -8 -6 -5 -6 6 -1 11 2 17 5 13 3 -3 4 -12 1 -19z
m20 0 c-3 -8 -6 -5 -6 6 -1 11 2 17 5 13 3 -3 4 -12 1 -19z m43 1 c0 -24 -23
-21 -28 4 -2 10 3 17 12 17 10 0 16 -9 16 -21z m-860 -17 c0 -11 -48 -13 -55
-2 -4 6 7 10 24 10 17 0 31 -4 31 -8z m43 1 c-7 -2 -19 -2 -25 0 -7 3 -2 5 12
5 14 0 19 -2 13 -5z m-1216 -9 c-3 -3 -12 -4 -19 -1 -8 3 -5 6 6 6 11 1 17 -2
13 -5z m1403 -4 c0 -5 -5 -10 -11 -10 -5 0 -7 5 -4 10 3 6 8 10 11 10 2 0 4
-4 4 -10z m550 0 c0 -5 -4 -10 -10 -10 -5 0 -10 5 -10 10 0 6 5 10 10 10 6 0
10 -4 10 -10z m30 0 c0 -5 -4 -10 -10 -10 -5 0 -10 5 -10 10 0 6 5 10 10 10 6
0 10 -4 10 -10z m30 0 c0 -5 -4 -10 -10 -10 -5 0 -10 5 -10 10 0 6 5 10 10 10
6 0 10 -4 10 -10z m-1720 -21 c6 -11 7 -18 1 -17 -11 3 -11 0 -10 -49 1 -38 1
-38 9 -8 5 21 8 5 9 -56 1 -71 -2 -88 -15 -93 -24 -9 -46 -7 -39 4 3 6 -3 10
-14 10 -23 0 -28 15 -8 24 10 5 10 7 0 12 -7 3 -13 15 -13 25 0 17 -6 20 -37
17 -30 -2 -38 -8 -44 -30 -6 -25 -5 -28 17 -28 13 0 24 -4 24 -10 0 -5 -13
-10 -29 -10 -16 0 -36 -3 -45 -6 -14 -5 -16 7 -15 97 1 76 4 93 9 64 5 -31 8
-34 10 -15 2 14 4 32 5 40 1 8 3 21 4 28 0 6 8 12 16 12 10 0 15 -10 15 -30 0
-30 14 -41 23 -17 3 6 6 -1 6 -16 1 -16 -4 -37 -10 -48 -9 -19 -8 -20 18 -17
27 3 28 6 34 68 3 36 6 53 7 38 1 -15 7 -30 14 -34 8 -5 9 2 5 23 -7 35 -5 38
22 40 12 1 26 -7 31 -18z m-384 -46 c-11 -11 -17 4 -9 23 7 18 8 18 11 1 2
-10 1 -21 -2 -24z m747 30 c-7 -2 -19 -2 -25 0 -7 3 -2 5 12 5 14 0 19 -2 13
-5z m627 -13 c0 -11 -4 -20 -10 -20 -5 0 -10 5 -10 10 0 6 -8 10 -17 11 -15 0
-15 2 2 9 30 13 35 12 35 -10z m227 14 c-3 -3 -12 -4 -19 -1 -8 3 -5 6 6 6 11
1 17 -2 13 -5z m323 -4 c0 -5 -2 -10 -4 -10 -3 0 -8 5 -11 10 -3 6 -1 10 4 10
6 0 11 -4 11 -10z m60 0 c0 -5 -4 -10 -10 -10 -5 0 -10 5 -10 10 0 6 5 10 10
10 6 0 10 -4 10 -10z m146 1 c-5 -8 -56 -3 -56 5 0 2 14 4 31 4 16 0 28 -4 25
-9z m-1266 -16 c0 -11 -12 -15 -50 -15 -27 0 -50 4 -50 9 0 12 11 15 60 19 30
2 40 -1 40 -13z m420 0 c0 -8 -4 -15 -10 -15 -5 0 -10 7 -10 15 0 8 5 15 10
15 6 0 10 -7 10 -15z m-630 -10 c0 -8 -4 -15 -10 -15 -5 0 -7 7 -4 15 4 8 8
15 10 15 2 0 4 -7 4 -15z m17 -7 c-3 -8 -6 -5 -6 6 -1 11 2 17 5 13 3 -3 4
-12 1 -19z m73 12 c0 -5 -3 -10 -7 -11 -5 0 -16 -2 -25 -4 -10 -2 -18 3 -18
11 0 8 10 14 25 14 14 0 25 -4 25 -10z m490 0 c0 -5 -22 -10 -50 -10 -27 0
-50 5 -50 10 0 6 23 10 50 10 28 0 50 -4 50 -10z m-494 -47 c-10 -10 -19 5
-10 18 6 11 8 11 12 0 2 -7 1 -15 -2 -18z m31 5 c-3 -8 -6 -5 -6 6 -1 11 2 17
5 13 3 -3 4 -12 1 -19z m1324 12 c6 0 7 -4 4 -10 -10 -16 -45 -12 -45 6 0 11
5 14 16 10 9 -3 20 -6 25 -6z m-1474 -22 c-3 -8 -6 -5 -6 6 -1 11 2 17 5 13 3
-3 4 -12 1 -19z m83 12 c0 -5 -9 -10 -20 -10 -11 0 -20 5 -20 10 0 6 9 10 20
10 11 0 20 -4 20 -10z m786 -10 c13 0 24 5 24 10 0 6 12 10 26 10 16 0 24 -5
22 -12 -5 -14 1 -14 -193 -23 -144 -7 -193 -15 -91 -15 36 0 55 -4 51 -10 -3
-5 -35 -10 -71 -10 -54 0 -64 -3 -65 -17 0 -16 -2 -15 -10 2 l-9 20 3 -20 c2
-16 9 -20 37 -18 19 0 54 1 78 2 32 1 42 5 43 19 1 16 2 16 6 0 2 -10 11 -18
19 -18 17 0 19 27 2 33 -7 2 -9 8 -5 13 4 5 12 3 16 -4 6 -9 34 -13 97 -12 49
1 99 1 112 1 28 -1 30 -31 2 -31 -11 0 -20 -4 -20 -10 0 -5 7 -7 15 -4 9 4 15
0 15 -10 0 -13 -12 -16 -62 -16 -84 0 -69 -8 19 -11 105 -3 78 -19 -35 -21
-94 -1 -95 -2 -30 -7 48 -4 65 -9 60 -18 -5 -8 -70 -13 -207 -15 -110 -3 -190
-3 -177 -1 12 3 22 9 22 14 0 5 37 10 83 10 45 1 72 4 60 6 -27 5 -31 25 -5
22 36 -3 95 1 89 7 -7 8 -181 5 -202 -2 -8 -4 -15 -1 -15 5 0 6 7 11 15 11 8
0 15 5 15 10 0 6 -12 10 -26 10 -21 0 -24 -4 -19 -20 5 -16 2 -20 -17 -19 -13
0 -17 3 -10 6 6 2 12 11 12 19 0 8 -6 14 -12 14 -9 0 -8 4 2 10 11 7 7 10 -18
10 -47 0 -41 33 8 41 22 4 26 7 13 8 -20 1 -34 21 -15 21 172 5 308 15 311 24
3 7 6 7 9 -1 2 -7 15 -13 28 -13z m121 8 c2 6 13 12 23 12 14 0 18 -7 18 -29
l-1 -28 -88 -1 c-49 0 -89 4 -89 9 0 5 37 9 83 10 47 1 72 4 58 8 -14 4 -26
13 -29 21 -3 13 -2 13 8 0 9 -11 13 -12 17 -2z m75 2 c2 -5 15 -11 31 -12 15
-1 27 -6 27 -11 0 -5 -10 -7 -22 -3 -13 3 -31 6 -40 6 -10 0 -18 7 -18 15 0
17 16 21 22 5z m236 -2 c-3 -7 -11 -13 -18 -13 -7 0 -15 6 -17 13 -3 7 4 12
17 12 13 0 20 -5 18 -12z m-209 -34 c45 -9 38 -20 -9 -16 -22 2 -40 8 -40 13
0 11 7 11 49 3z m-1756 -11 c-7 -2 -19 -2 -25 0 -7 3 -2 5 12 5 14 0 19 -2 13
-5z m897 -3 c-10 -6 -11 -10 -2 -10 6 0 12 -9 12 -20 0 -18 -6 -20 -77 -18
-63 1 -68 2 -25 5 37 3 52 8 52 19 0 21 -155 21 -164 -1 -3 -8 -2 -14 2 -14
18 3 32 -2 32 -11 0 -5 -17 -10 -38 -10 -35 0 -38 2 -37 28 0 23 5 28 35 32
68 11 226 11 210 0z m936 -37 c-11 -11 -19 6 -11 24 8 17 8 17 12 0 3 -10 2
-21 -1 -24z m-849 -9 c-3 -3 -12 -4 -19 -1 -8 3 -5 6 6 6 11 1 17 -2 13 -5z
m933 2 c0 -3 -4 -8 -10 -11 -5 -3 -10 -1 -10 4 0 6 5 11 10 11 6 0 10 -2 10
-4z m70 -6 c0 -5 -2 -10 -4 -10 -3 0 -8 5 -11 10 -3 6 -1 10 4 10 6 0 11 -4
11 -10z m-1104 -25 c-3 -9 0 -15 9 -15 8 0 15 -4 15 -10 0 -6 -30 -9 -72 -9
-59 1 -66 3 -38 9 34 7 34 7 -13 9 -41 1 -46 3 -35 16 19 21 143 21 134 0z
m-708 -30 c-3 -3 -9 2 -12 12 -6 14 -5 15 5 6 7 -7 10 -15 7 -18z m-1416 -7
l38 1 0 -47 c0 -52 -12 -78 -29 -68 -7 5 -12 -6 -13 -31 l-1 -38 -4 38 c-4 33
-7 38 -26 35 -33 -5 -37 -55 -5 -61 15 -3 10 -5 -14 -6 -28 -1 -38 3 -38 14 0
8 -4 15 -9 15 -5 0 -12 12 -14 28 -3 22 -5 19 -7 -13 l-3 -40 -7 40 -7 40 -2
-37 c-1 -36 -3 -38 -33 -37 -30 1 -31 2 -8 8 19 5 25 14 27 36 l2 30 -9 -30
c-4 -16 -8 -22 -9 -12 0 9 -8 17 -16 17 -23 0 -18 21 6 27 17 5 20 12 17 44
-2 27 0 39 9 39 7 0 13 5 13 11 0 7 17 9 52 4 28 -4 68 -7 90 -7z m2101 -15
c-7 -2 -19 -2 -25 0 -7 3 -2 5 12 5 14 0 19 -2 13 -5z m807 -8 c0 -8 -2 -15
-4 -15 -2 0 -6 7 -10 15 -3 8 -1 15 4 15 6 0 10 -7 10 -15z m-1666 -10 c3 -9
0 -15 -9 -15 -8 0 -15 7 -15 15 0 8 4 15 9 15 5 0 11 -7 15 -15z m1783 -7 c-3
-8 -6 -5 -6 6 -1 11 2 17 5 13 3 -3 4 -12 1 -19z m-1517 -13 c11 -13 10 -14
-4 -9 -18 7 -21 -3 -6 -26 9 -13 10 -13 10 0 0 13 2 13 9 1 15 -24 -13 -126
-37 -136 -7 -3 -11 -1 -8 3 3 5 6 39 6 78 2 64 7 104 14 104 2 0 9 -7 16 -15z
m630 5 c0 -5 -5 -10 -11 -10 -5 0 -7 5 -4 10 3 6 8 10 11 10 2 0 4 -4 4 -10z
m-528 -40 c6 0 8 9 5 20 -3 11 -1 20 4 20 5 0 9 -17 9 -37 0 -28 3 -34 10 -23
7 11 10 6 9 -20 0 -29 -2 -31 -9 -15 -7 15 -9 9 -9 -26 -1 -33 -6 -49 -17 -53
-27 -10 -34 -7 -34 18 0 13 -3 26 -8 28 -4 2 -5 30 -3 63 3 46 6 54 12 35 7
-25 7 -25 9 5 2 24 4 26 7 8 2 -13 9 -23 15 -23z m421 33 c-7 -2 -19 -2 -25 0
-7 3 -2 5 12 5 14 0 19 -2 13 -5z m507 -24 c0 -5 -4 -9 -10 -9 -5 0 -10 7 -10
16 0 8 5 12 10 9 6 -3 10 -10 10 -16z m110 6 c0 -8 -4 -15 -10 -15 -5 0 -10 7
-10 15 0 8 5 15 10 15 6 0 10 -7 10 -15z m617 -7 c-3 -8 -6 -5 -6 6 -1 11 2
17 5 13 3 -3 4 -12 1 -19z m-3487 -23 c0 -8 -7 -15 -16 -15 -14 0 -14 3 -4 15
7 8 14 15 16 15 2 0 4 -7 4 -15z m1463 8 c-7 -2 -19 -2 -25 0 -7 3 -2 5 12 5
14 0 19 -2 13 -5z m132 -3 c3 -5 1 -10 -4 -10 -6 0 -11 5 -11 10 0 6 2 10 4
10 3 0 8 -4 11 -10z m1408 -1 c-4 -4 -30 -10 -58 -12 -27 -2 5 -4 73 -5 101
-2 122 -5 122 -17 0 -18 -36 -20 -44 -2 -5 10 -7 10 -12 0 -3 -7 -14 -13 -25
-13 -10 0 -19 6 -20 13 0 10 -2 10 -6 0 -2 -7 -18 -13 -34 -13 -16 0 -29 5
-29 13 0 9 -2 9 -8 0 -4 -6 -40 -15 -80 -18 -63 -7 -72 -6 -72 9 0 9 3 16 8
17 38 3 65 9 71 15 3 4 -4 4 -16 1 -13 -3 -23 -1 -23 3 0 5 30 10 68 12 37 2
73 3 80 4 7 0 9 -3 5 -7z m49 -1 c-9 -9 -15 -9 -24 0 -9 9 -7 12 12 12 19 0
21 -3 12 -12z m83 4 c-9 -9 -65 -11 -65 -2 0 4 16 8 36 8 19 0 33 -3 29 -6z
m-300 -11 c-12 -11 -185 -19 -185 -9 0 6 42 11 155 16 24 1 35 -2 30 -7z
m-505 -11 c0 -5 -10 -10 -22 -9 -22 0 -22 1 -3 9 11 5 21 9 23 9 1 1 2 -3 2
-9z m-193 -22 c-3 -8 -6 -5 -6 6 -1 11 2 17 5 13 3 -3 4 -12 1 -19z m40 0 c-3
-8 -6 -5 -6 6 -1 11 2 17 5 13 3 -3 4 -12 1 -19z m70 16 c-3 -3 -12 -4 -19 -1
-8 3 -5 6 6 6 11 1 17 -2 13 -5z m-876 -24 c10 0 19 6 19 13 0 8 4 7 10 -3 9
-13 11 -13 20 0 8 12 10 11 10 -7 0 -12 -4 -25 -10 -28 -5 -3 -10 -16 -11 -28
-1 -21 -1 -21 -8 2 -6 22 -12 24 -64 24 -42 -1 -57 3 -57 13 0 9 11 14 30 14
17 0 30 5 31 13 0 10 2 10 6 0 2 -7 13 -13 24 -13z m516 -2 c-3 -8 -6 -5 -6 6
-1 11 2 17 5 13 3 -3 4 -12 1 -19z m643 12 c0 -5 -4 -10 -10 -10 -5 0 -10 5
-10 10 0 6 5 10 10 10 6 0 10 -4 10 -10z m-1265 -31 c0 -7 -8 -15 -17 -17 -18
-3 -25 18 -11 32 10 10 28 1 28 -15z m1082 15 c-3 -3 -12 -4 -19 -1 -8 3 -5 6
6 6 11 1 17 -2 13 -5z m1163 -2 c0 -4 -9 -8 -20 -9 -11 -1 -18 2 -15 8 7 11
35 12 35 1z m30 4 c0 -3 -4 -8 -10 -11 -5 -3 -10 -1 -10 4 0 6 5 11 10 11 6 0
10 -2 10 -4z m40 -6 c0 -5 -4 -10 -9 -10 -6 0 -13 5 -16 10 -3 6 1 10 9 10 9
0 16 -4 16 -10z m-1402 -7 c-10 -2 -26 -2 -35 0 -10 3 -2 5 17 5 19 0 27 -2
18 -5z m879 1 c-3 -3 -12 -4 -19 -1 -8 3 -5 6 6 6 11 1 17 -2 13 -5z m-2428
-50 c-6 -21 -17 -46 -24 -54 -18 -21 -55 -89 -55 -101 0 -6 -9 -24 -21 -40
-18 -26 -19 -32 -7 -47 8 -9 20 -30 28 -45 16 -32 45 -51 66 -43 8 3 14 1 14
-4 0 -6 -9 -10 -20 -10 -26 0 -26 -22 1 -46 31 -28 72 -102 65 -119 -4 -12 6
-15 55 -15 38 0 58 4 54 10 -4 6 6 10 22 9 l28 0 -25 -10 c-19 -8 -21 -12 -11
-19 8 -4 20 -6 28 -3 7 3 13 0 13 -6 0 -7 -26 -10 -80 -8 l-80 3 0 -45 c0 -24
3 -41 8 -37 7 8 9 13 11 46 1 16 8 20 41 20 22 0 40 -4 40 -10 0 -5 -11 -10
-25 -10 -14 0 -25 -4 -25 -10 0 -5 9 -10 20 -10 11 0 20 -4 20 -10 0 -5 -7
-10 -16 -10 -8 0 -12 -4 -9 -10 4 -6 -8 -10 -29 -10 -29 0 -36 -4 -36 -20 0
-18 7 -20 88 -22 75 -2 78 -2 25 -5 -75 -5 -85 -23 -13 -23 28 0 50 -4 50 -10
0 -5 -12 -10 -27 -10 -22 0 -25 -2 -13 -10 12 -8 9 -10 -12 -10 -16 0 -28 -4
-28 -10 0 -5 11 -10 23 -10 13 0 24 -6 24 -13 0 -9 -15 -11 -57 -7 l-56 5 0
-47 1 -48 76 0 c79 0 96 -9 83 -45 -5 -12 -24 -15 -85 -15 -64 0 -79 -3 -79
-15 0 -11 13 -15 53 -16 28 -1 66 -5 82 -9 l30 -8 -27 -1 c-37 -1 -36 -21 0
-21 34 0 41 -29 8 -31 -15 -1 -13 -4 9 -9 28 -7 27 -8 -12 -9 -33 -1 -43 -5
-44 -18 -1 -17 -2 -17 -6 0 -6 22 -23 22 -24 0 -1 -17 -2 -17 -6 0 -4 14 -16
17 -73 17 -65 0 -68 -1 -73 -27 -3 -14 0 -39 5 -55 7 -20 7 -33 -2 -43 -7 -8
-10 -24 -7 -36 4 -15 2 -19 -9 -15 -8 3 -14 0 -15 -7 0 -8 -2 -7 -6 2 -5 11
-7 11 -14 0 -7 -12 -9 -12 -9 0 0 11 -3 11 -15 1 -13 -11 -14 -8 -11 16 2 16
1 21 -1 12 -2 -10 -11 -18 -19 -18 -8 0 -17 -7 -21 -16 -5 -13 -7 -13 -14 -2
-7 10 -9 9 -9 -5 0 -10 7 -20 15 -23 8 -4 15 -10 15 -16 0 -14 -35 -5 -36 10
-1 6 -2 17 -3 23 0 6 -8 8 -17 5 -8 -3 -12 -2 -9 4 3 6 1 10 -5 10 -7 0 -10
18 -9 49 2 36 6 48 16 44 7 -3 16 3 19 12 5 13 9 14 15 3 7 -10 9 -8 9 7 1 17
3 16 16 -7 8 -16 20 -28 27 -28 9 0 9 2 0 8 -8 5 -9 13 -3 22 5 8 8 24 6 35
-2 11 -1 15 1 8 2 -6 11 -14 20 -17 11 -5 14 -2 9 10 -3 8 -6 20 -6 25 0 5
-12 10 -27 11 -16 1 17 5 72 8 l100 6 -100 3 c-68 2 -92 6 -75 11 22 7 23 8 4
9 -17 1 -20 6 -16 26 3 20 10 25 33 25 19 0 29 5 29 15 0 10 -10 15 -29 15
-26 0 -29 4 -32 38 -2 20 -3 52 -1 70 l3 32 92 2 92 2 -92 3 c-120 5 -122 23
-3 23 121 0 119 19 -2 22 l-93 2 95 6 95 6 -97 2 c-71 1 -98 5 -98 15 0 8 -4
7 -11 -3 -8 -12 -10 -12 -7 -1 3 11 20 14 71 12 42 -1 67 2 67 8 0 6 -24 12
-57 13 l-58 1 50 7 50 7 -49 1 c-75 3 -45 16 52 23 l87 7 -92 -2 c-51 -1 -93
1 -93 6 0 4 42 9 93 10 l92 2 -92 3 c-120 5 -122 23 -3 23 53 0 90 4 90 10 0
6 -37 10 -90 10 -92 0 -125 16 -47 23 41 3 40 4 -13 7 -51 3 -49 4 30 10 80 6
76 6 -52 8 -104 2 -138 -1 -139 -10 0 -10 -2 -10 -6 0 -2 6 -11 12 -19 12 -8
0 -14 4 -14 9 0 11 118 19 134 9 15 -10 155 -8 186 2 16 6 -8 7 -65 5 -49 -2
-80 -2 -67 1 27 7 29 24 2 24 -16 0 -20 7 -20 30 0 17 5 30 13 30 8 0 7 4 -3
10 -11 7 -7 10 20 11 l35 2 -35 6 -35 5 45 6 45 7 -42 1 c-31 2 -43 6 -43 17
0 8 10 16 23 16 21 2 21 2 -2 6 -19 4 -21 7 -10 14 10 6 10 9 2 9 -20 0 -15
20 5 21 14 0 14 2 2 7 -9 4 -15 21 -15 44 l0 36 -47 -5 c-32 -4 -48 -2 -48 5
0 7 20 10 55 9 46 -2 56 1 63 18 16 36 49 99 70 138 12 21 22 43 22 50 0 13
21 39 27 34 1 -2 -2 -21 -8 -43z m-822 4 c-3 -7 -5 -2 -5 12 0 14 2 19 5 13 2
-7 2 -19 0 -25z m20 0 c-3 -7 -5 -2 -5 12 0 14 2 19 5 13 2 -7 2 -19 0 -25z
m33 12 c0 -11 -4 -20 -10 -20 -5 0 -10 9 -10 20 0 11 5 20 10 20 6 0 10 -9 10
-20z m30 -6 c0 -14 -4 -23 -10 -19 -5 3 -10 15 -10 26 0 10 5 19 10 19 6 0 10
-12 10 -26z m30 1 c0 -8 -4 -17 -10 -20 -6 -4 -10 5 -10 20 0 15 4 24 10 20 6
-3 10 -12 10 -20z m771 3 c16 -38 35 -67 56 -91 11 -12 27 -38 36 -57 9 -19
27 -46 41 -59 14 -14 26 -30 26 -36 0 -7 -14 -41 -31 -76 -17 -35 -40 -85 -52
-111 -12 -26 -25 -47 -29 -48 -15 0 -8 38 12 63 34 43 27 57 -30 57 -27 0 -50
3 -50 8 0 9 82 8 98 -2 7 -4 21 12 37 45 l26 51 -28 41 c-15 23 -35 57 -44 74
-8 18 -28 46 -44 63 -16 16 -25 30 -20 30 4 0 1 8 -7 18 -20 23 -30 52 -17 52
5 0 14 -10 20 -22z m-484 -10 c-3 -8 -6 -5 -6 6 -1 11 2 17 5 13 3 -3 4 -12 1
-19z m1563 7 c0 -8 -7 -15 -15 -15 -8 0 -15 7 -15 15 0 8 7 15 15 15 8 0 15
-7 15 -15z m1812 -3 c3 -11 0 -19 -8 -19 -8 0 -14 9 -14 19 0 10 4 18 9 18 5
0 11 -8 13 -18z m-189 -19 c-7 -2 -19 -2 -25 0 -7 3 -2 5 12 5 14 0 19 -2 13
-5z m640 0 c-7 -2 -19 -2 -25 0 -7 3 -2 5 12 5 14 0 19 -2 13 -5z m487 -29 c0
-8 -4 -14 -10 -14 -5 0 -10 9 -10 21 0 11 5 17 10 14 6 -3 10 -13 10 -21z
m-4550 6 c0 -5 -4 -10 -10 -10 -5 0 -10 5 -10 10 0 6 5 10 10 10 6 0 10 -4 10
-10z m1013 -23 c-18 -11 -25 -5 -17 16 4 13 9 14 19 4 11 -10 10 -14 -2 -20z
m94 11 c-3 -8 -6 -5 -6 6 -1 11 2 17 5 13 3 -3 4 -12 1 -19z m2261 10 c-6 -18
-28 -21 -28 -4 0 9 7 16 16 16 9 0 14 -5 12 -12z m439 -20 c-3 -7 -5 -2 -5 12
0 14 2 19 5 13 2 -7 2 -19 0 -25z m-4287 -3 c0 -10 -10 -15 -30 -15 -20 0 -30
5 -30 15 0 10 10 15 30 15 20 0 30 -5 30 -15z m203 8 c-7 -2 -19 -2 -25 0 -7
3 -2 5 12 5 14 0 19 -2 13 -5z m558 -16 c-13 -13 -26 -3 -16 12 3 6 11 8 17 5
6 -4 6 -10 -1 -17z m699 19 c0 -9 -40 -13 -46 -5 -3 5 6 9 20 9 14 0 26 -2 26
-4z m220 -6 c0 -5 -12 -10 -27 -10 -22 0 -25 2 -13 10 20 13 40 13 40 0z m137
-6 c-3 -3 -12 -4 -19 -1 -8 3 -5 6 6 6 11 1 17 -2 13 -5z m2146 -1 c-7 -2 -21
-2 -30 0 -10 3 -4 5 12 5 17 0 24 -2 18 -5z m617 -18 c0 -8 -4 -15 -10 -15 -5
0 -7 7 -4 15 4 8 8 15 10 15 2 0 4 -7 4 -15z m-4193 -1 c-3 -3 -12 -4 -19 -1
-8 3 -5 6 6 6 11 1 17 -2 13 -5z m1213 -4 c12 -8 9 -10 -12 -10 -16 0 -28 5
-28 10 0 13 20 13 40 0z m83 -10 c-4 -13 -14 -20 -30 -20 -31 0 -26 22 8 31
13 4 25 7 26 8 0 1 -1 -8 -4 -19z m507 10 c0 -5 -7 -10 -15 -10 -8 0 -15 5
-15 10 0 6 7 10 15 10 8 0 15 -4 15 -10z m-1976 -8 c-7 -4 -14 -16 -17 -27 -4
-15 -5 -14 -6 8 -1 20 4 27 17 27 11 0 13 -3 6 -8z m1289 1 c-7 -2 -19 -2 -25
0 -7 3 -2 5 12 5 14 0 19 -2 13 -5z m2597 -14 c0 -5 -13 -9 -30 -9 -32 0 -41
16 -12 22 21 5 42 -1 42 -13z m-3710 1 c0 -5 -7 -10 -15 -10 -8 0 -15 5 -15
10 0 6 7 10 15 10 8 0 15 -4 15 -10z m4220 0 c0 -5 -4 -10 -10 -10 -5 0 -10 5
-10 10 0 6 5 10 10 10 6 0 10 -4 10 -10z m-4620 -14 c0 -2 -7 -7 -16 -10 -8
-3 -12 -2 -9 4 6 10 25 14 25 6z m2368 -3 c-10 -2 -26 -2 -35 0 -10 3 -2 5 17
5 19 0 27 -2 18 -5z m1297 -3 c-11 -5 -27 -9 -35 -9 -9 0 -8 4 5 9 11 5 27 9
35 9 9 0 8 -4 -5 -9z m-918 -32 c-3 -7 -5 -2 -5 12 0 14 2 19 5 13 2 -7 2 -19
0 -25z m993 7 c0 -14 -4 -25 -10 -25 -5 0 -10 11 -10 25 0 14 5 25 10 25 6 0
10 -11 10 -25z m130 11 c0 -8 3 -21 6 -30 5 -12 0 -16 -21 -16 -21 0 -26 4
-21 16 3 9 6 22 6 30 0 8 7 14 15 14 8 0 15 -6 15 -14z m97 -18 c-3 -7 -5 -2
-5 12 0 14 2 19 5 13 2 -7 2 -19 0 -25z m-3919 -8 c-2 -21 -7 -30 -20 -30 -10
0 -18 5 -18 10 0 6 7 10 15 10 8 0 15 9 15 20 0 11 2 20 5 20 3 0 4 -13 3 -30z
m219 -2 c-3 -7 -5 -2 -5 12 0 14 2 19 5 13 2 -7 2 -19 0 -25z m20 0 c-3 -7 -5
-2 -5 12 0 14 2 19 5 13 2 -7 2 -19 0 -25z m233 17 c0 -10 -10 -15 -30 -15
-20 0 -30 5 -30 15 0 10 10 15 30 15 20 0 30 -5 30 -15z m77 -7 c-3 -8 -6 -5
-6 6 -1 11 2 17 5 13 3 -3 4 -12 1 -19z m30 0 c-3 -8 -6 -5 -6 6 -1 11 2 17 5
13 3 -3 4 -12 1 -19z m1573 7 c0 -8 -4 -15 -10 -15 -5 0 -10 7 -10 15 0 8 5
15 10 15 6 0 10 -7 10 -15z m963 -37 c-7 -63 -13 -75 -13 -27 0 19 -3 44 -6
57 -5 16 -2 22 9 22 13 0 15 -9 10 -52z m1817 27 c0 -14 -4 -25 -10 -25 -5 0
-10 11 -10 25 0 14 5 25 10 25 6 0 10 -11 10 -25z m-4179 -33 c13 3 31 8 39
12 9 4 24 -1 35 -10 11 -8 14 -13 8 -9 -8 4 -13 0 -13 -10 0 -9 -9 -28 -20
-42 -11 -14 -20 -20 -20 -14 0 7 -6 11 -12 9 -22 -4 -58 13 -58 27 0 7 -6 15
-12 18 -10 3 -10 8 1 21 10 12 16 14 22 5 4 -6 17 -9 30 -7z m3024 -2 c3 -5 1
-10 -4 -10 -6 0 -11 5 -11 10 0 6 2 10 4 10 3 0 8 -4 11 -10z m-1045 -10 c0
-5 -14 -10 -31 -10 -17 0 -28 4 -24 10 3 6 17 10 31 10 13 0 24 -4 24 -10z
m83 3 c-7 -2 -21 -2 -30 0 -10 3 -4 5 12 5 17 0 24 -2 18 -5z m444 -25 c-3 -7
-5 -2 -5 12 0 14 2 19 5 13 2 -7 2 -19 0 -25z m60 0 c-3 -7 -5 -2 -5 12 0 14
2 19 5 13 2 -7 2 -19 0 -25z m49 -5 c-3 -3 -13 -2 -23 2 -17 8 -17 8 0 12 9 3
18 10 18 16 1 7 3 4 6 -6 3 -10 2 -21 -1 -24z m61 5 c-3 -7 -5 -2 -5 12 0 14
2 19 5 13 2 -7 2 -19 0 -25z m50 10 c-3 -8 -6 -5 -6 6 -1 11 2 17 5 13 3 -3 4
-12 1 -19z m-3464 5 c-7 -2 -13 -11 -13 -19 0 -9 5 -12 10 -9 6 3 10 1 10 -4
0 -6 -7 -11 -16 -11 -10 0 -14 -6 -10 -15 4 -10 -1 -15 -14 -15 -13 0 -18 5
-14 15 5 11 -1 15 -22 16 -16 1 -32 1 -36 0 -5 0 -8 9 -7 22 0 12 3 16 6 10 7
-19 53 -16 53 2 0 10 10 15 33 14 17 0 26 -3 20 -6z m164 1 c-3 -3 -12 -4 -19
-1 -8 3 -5 6 6 6 11 1 17 -2 13 -5z m80 0 c-3 -3 -12 -4 -19 -1 -8 3 -5 6 6 6
11 1 17 -2 13 -5z m143 -15 c0 -5 -20 -9 -45 -9 -29 0 -45 4 -45 13 0 8 14 11
45 9 25 -2 45 -8 45 -13z m1130 6 c0 -8 -6 -15 -12 -16 -66 -5 -121 -3 -125 5
-9 15 15 22 77 24 47 1 60 -1 60 -13z m96 5 c12 0 25 -7 28 -15 5 -13 -2 -15
-45 -11 -28 3 -53 7 -56 10 -11 11 11 27 31 22 11 -3 31 -6 42 -6z m681 -52
c-2 -13 -4 -3 -4 22 0 25 2 35 4 23 2 -13 2 -33 0 -45z m847 47 c3 -8 1 -15
-4 -15 -6 0 -10 7 -10 15 0 8 2 15 4 15 2 0 6 -7 10 -15z m52 -12 c-10 -10
-19 5 -10 18 6 11 8 11 12 0 2 -7 1 -15 -2 -18z m363 -15 c1 -5 -32 -7 -71 -6
l-73 2 66 3 c63 4 67 5 63 26 -4 21 -4 21 5 2 5 -11 10 -23 10 -27z m261 27
c0 -8 -9 -15 -20 -15 -11 0 -20 7 -20 15 0 8 9 15 20 15 11 0 20 -7 20 -15z
m-2993 -47 c-2 -13 -4 -5 -4 17 -1 22 1 32 4 23 2 -10 2 -28 0 -40z m1176 32
c-3 -11 -12 -20 -19 -20 -8 0 -14 9 -14 20 0 13 7 20 19 20 14 0 18 -5 14 -20z
m348 -48 c-8 -3 -8 -9 -1 -23 9 -16 7 -19 -10 -19 -16 0 -20 6 -20 37 0 22 7
43 18 53 16 16 17 15 20 -14 2 -17 -1 -32 -7 -34z m-1761 42 c0 -8 -27 -34
-35 -34 -4 0 -5 6 -2 14 4 10 -3 16 -21 19 -18 3 -13 4 16 6 23 0 42 -2 42 -5z
m-253 -10 c-3 -3 -12 -4 -19 -1 -8 3 -5 6 6 6 11 1 17 -2 13 -5z m1211 -32 c4
-40 -18 -43 -35 -5 -10 21 -10 28 0 35 20 13 32 3 35 -30z m1836 23 c-5 -11
-21 -15 -60 -15 -30 0 -54 4 -54 9 0 13 11 16 70 19 41 2 49 0 44 -13z m323
-7 c-3 -8 -6 -5 -6 6 -1 11 2 17 5 13 3 -3 4 -12 1 -19z m56 15 c-7 -2 -19 -2
-25 0 -7 3 -2 5 12 5 14 0 19 -2 13 -5z m-3323 -13 c0 -5 -4 -10 -10 -10 -5 0
-10 5 -10 10 0 6 5 10 10 10 6 0 10 -4 10 -10z m100 0 c0 -5 -7 -10 -15 -10
-8 0 -15 5 -15 10 0 6 7 10 15 10 8 0 15 -4 15 -10z m97 -12 c-3 -8 -6 -5 -6
6 -1 11 2 17 5 13 3 -3 4 -12 1 -19z m43 7 c0 -8 -4 -15 -10 -15 -5 0 -10 7
-10 15 0 8 5 15 10 15 6 0 10 -7 10 -15z m1975 -7 c6 -4 2 -8 -7 -8 -10 0 -18
7 -18 17 0 9 3 12 8 7 4 -5 12 -12 17 -16z m85 9 c0 -8 -14 -14 -35 -15 -26
-2 -35 1 -35 13 0 11 10 15 35 15 22 0 35 -5 35 -13z m30 3 c0 -5 -4 -10 -10
-10 -5 0 -10 5 -10 10 0 6 5 10 10 10 6 0 10 -4 10 -10z m40 0 c0 -5 -7 -10
-15 -10 -8 0 -15 5 -15 10 0 6 7 10 15 10 8 0 15 -4 15 -10z m380 0 c0 -5 -9
-10 -20 -10 -11 0 -20 5 -20 10 0 6 9 10 20 10 11 0 20 -4 20 -10z m70 0 c0
-5 -4 -10 -10 -10 -5 0 -10 5 -10 10 0 6 5 10 10 10 6 0 10 -4 10 -10z m-2973
-16 c-3 -3 -12 -4 -19 -1 -8 3 -5 6 6 6 11 1 17 -2 13 -5z m1850 0 c-3 -3 -12
-4 -19 -1 -8 3 -5 6 6 6 11 1 17 -2 13 -5z m1383 -3 c0 -4 -24 -8 -52 -9 -36
-1 -46 1 -33 7 26 11 85 12 85 2z m37 3 c-3 -3 -12 -4 -19 -1 -8 3 -5 6 6 6
11 1 17 -2 13 -5z m43 -4 c0 -5 -8 -10 -17 -10 -15 0 -16 2 -3 10 19 12 20 12
20 0z m-197 -7 c-7 -2 -13 -13 -13 -24 0 -16 -7 -19 -56 -19 -34 0 -53 4 -49
10 3 6 -5 10 -19 10 -13 0 -27 6 -30 13 -5 10 -7 10 -12 0 -7 -15 -94 -18 -94
-4 0 5 6 11 13 14 17 6 275 6 260 0z m1335 -18 c-3 -3 -9 2 -12 12 -6 14 -5
15 5 6 7 -7 10 -15 7 -18z m-4828 6 c0 -6 -4 -13 -10 -16 -5 -3 -10 1 -10 9 0
9 5 16 10 16 6 0 10 -4 10 -9z m78 -36 c-3 -38 -6 -45 -23 -44 -11 0 -14 3 -7
6 14 6 16 33 2 33 -5 0 -10 11 -10 25 0 18 5 25 20 25 18 0 20 -6 18 -45z
m732 30 c-10 -12 -10 -15 1 -15 10 0 10 -3 3 -8 -8 -5 -12 -59 -12 -160 0 -85
-3 -156 -6 -160 -8 -8 -29 14 -32 33 -1 8 4 15 12 15 21 0 18 40 -3 40 -17 1
-17 1 0 14 19 15 23 42 6 48 -9 3 -9 9 0 25 9 17 9 78 1 91 -14 19 13 92 34
92 4 0 3 -7 -4 -15z m1300 6 c0 -5 -7 -11 -15 -15 -9 -3 -15 0 -15 9 0 8 7 15
15 15 8 0 15 -4 15 -9z m120 -10 c0 -10 -7 -21 -15 -25 -8 -3 -15 -1 -15 4 0
6 6 10 13 11 10 0 10 2 0 6 -18 7 -16 23 2 23 8 0 15 -9 15 -19z m960 10 c0
-6 -4 -13 -10 -16 -5 -3 -10 1 -10 9 0 9 5 16 10 16 6 0 10 -4 10 -9z m1210
-6 c0 -8 -4 -15 -10 -15 -5 0 -10 7 -10 15 0 8 5 15 10 15 6 0 10 -7 10 -15z
m120 5 c0 -5 -4 -10 -10 -10 -5 0 -10 5 -10 10 0 6 5 10 10 10 6 0 10 -4 10
-10z m-810 -20 c0 -5 -49 -9 -110 -9 -69 -1 -110 3 -110 9 0 6 41 10 110 9 61
0 110 -5 110 -9z m30 0 c0 -5 -4 -10 -10 -10 -5 0 -10 5 -10 10 0 6 5 10 10
10 6 0 10 -4 10 -10z m-3483 -6 c-3 -3 -12 -4 -19 -1 -8 3 -5 6 6 6 11 1 17
-2 13 -5z m1539 -4 c31 0 35 -39 4 -41 -63 -4 -80 -1 -80 11 0 18 24 40 38 35
8 -3 25 -5 38 -5z m1552 -1 c-10 -5 -18 -16 -18 -24 0 -7 8 -16 18 -18 9 -3
-1 -5 -23 -5 -22 0 -34 2 -27 5 6 2 12 11 12 19 0 16 -9 18 -62 15 -22 -2 -38
2 -38 8 0 7 28 11 78 11 57 -1 72 -3 60 -11z m449 5 c-3 -3 -12 -4 -19 -1 -8
3 -5 6 6 6 11 1 17 -2 13 -5z m-3140 -41 c-3 -10 -5 -4 -5 12 0 17 2 24 5 18
2 -7 2 -21 0 -30z m70 5 c-3 -7 -5 -2 -5 12 0 14 2 19 5 13 2 -7 2 -19 0 -25z
m846 25 c-13 -2 -23 -11 -23 -19 0 -10 -13 -14 -50 -14 -35 0 -50 4 -50 13 0
23 12 27 79 26 36 -1 56 -4 44 -6z m273 -30 c-11 -11 -19 6 -11 24 8 17 8 17
12 0 3 -10 2 -21 -1 -24z m514 17 c0 -13 -7 -20 -20 -20 -25 0 -27 27 -2 33 9
3 18 5 20 6 1 0 2 -8 2 -19z m17 -12 c-3 -7 -5 -2 -5 12 0 14 2 19 5 13 2 -7
2 -19 0 -25z m246 25 c-7 -2 -21 -2 -30 0 -10 3 -4 5 12 5 17 0 24 -2 18 -5z
m574 1 c-3 -3 -12 -4 -19 -1 -8 3 -5 6 6 6 11 1 17 -2 13 -5z m813 -14 c0 -19
-11 -26 -23 -14 -8 8 3 34 14 34 5 0 9 -9 9 -20z m33 0 c-3 -11 -9 -20 -14
-20 -5 0 -9 9 -9 20 0 11 6 20 14 20 9 0 12 -7 9 -20z m80 0 c-3 -11 -7 -20
-9 -20 -2 0 -4 9 -4 20 0 11 4 20 9 20 5 0 7 -9 4 -20z m696 -31 c-8 -4 -16
-5 -19 -2 -3 3 1 8 8 10 6 3 13 14 13 26 2 20 2 20 6 -2 3 -13 -1 -27 -8 -32z
m44 31 c-3 -11 -7 -20 -9 -20 -2 0 -4 9 -4 20 0 11 4 20 9 20 5 0 7 -9 4 -20z
m-4856 -22 c-3 -7 -5 -2 -5 12 0 14 2 19 5 13 2 -7 2 -19 0 -25z m210 10 c-3
-8 -6 -5 -6 6 -1 11 2 17 5 13 3 -3 4 -12 1 -19z m100 0 c-3 -8 -6 -5 -6 6 -1
11 2 17 5 13 3 -3 4 -12 1 -19z m320 -10 c-3 -7 -5 -2 -5 12 0 14 2 19 5 13 2
-7 2 -19 0 -25z m1073 17 c0 -8 -4 -15 -10 -15 -5 0 -10 7 -10 15 0 8 5 15 10
15 6 0 10 -7 10 -15z m717 -7 c-3 -8 -6 -5 -6 6 -1 11 2 17 5 13 3 -3 4 -12 1
-19z m90 0 c-3 -8 -6 -5 -6 6 -1 11 2 17 5 13 3 -3 4 -12 1 -19z m873 7 c0 -8
-4 -15 -10 -15 -5 0 -10 7 -10 15 0 8 5 15 10 15 6 0 10 -7 10 -15z m318 -2
c-3 -14 -12 -18 -43 -16 -32 2 -36 0 -22 -8 10 -6 25 -8 32 -5 8 3 17 1 20 -5
4 -6 -9 -9 -33 -7 -22 2 -40 5 -40 8 0 3 0 13 -1 23 -1 17 -2 17 -17 3 -11
-12 -37 -15 -110 -15 -86 0 -94 2 -94 20 0 18 9 19 156 19 143 0 155 -1 152
-17z m742 3 c0 -15 -24 -28 -34 -19 -13 14 -5 33 14 33 11 0 20 -6 20 -14z
m-3957 -23 c-7 -2 -21 -2 -30 0 -10 3 -4 5 12 5 17 0 24 -2 18 -5z m774 1 c-3
-3 -12 -4 -19 -1 -8 3 -5 6 6 6 11 1 17 -2 13 -5z m1628 -4 c5 -8 -103 -17
-137 -11 -5 0 -8 -6 -8 -14 0 -8 -7 -15 -15 -15 -8 0 -15 7 -15 15 0 8 -3 14
-7 14 -26 -4 -33 5 -8 10 47 11 183 12 190 1z m295 0 c0 -5 -5 -10 -11 -10 -5
0 -7 5 -4 10 3 6 8 10 11 10 2 0 4 -4 4 -10z m83 3 c-7 -2 -19 -2 -25 0 -7 3
-2 5 12 5 14 0 19 -2 13 -5z m-193 -14 c18 -6 10 -7 -25 -3 -27 3 -51 7 -54
10 -7 7 53 2 79 -7z m1920 1 c0 -5 -5 -10 -11 -10 -5 0 -7 5 -4 10 3 6 8 10
11 10 2 0 4 -4 4 -10z m-4920 -14 c0 -8 6 -17 13 -19 6 -3 -3 -6 -20 -6 -27
-1 -33 3 -33 19 0 13 7 20 20 20 11 0 20 -6 20 -14z m1420 10 c0 -9 -30 -14
-35 -6 -4 6 3 10 14 10 12 0 21 -2 21 -4z m34 -4 c3 -5 27 -7 53 -6 26 1 42 0
36 -3 -16 -6 -18 -130 -3 -135 6 -2 7 -14 1 -35 -5 -17 -9 -74 -9 -127 1 -76
4 -96 15 -96 8 0 11 -5 8 -10 -4 -6 -11 -8 -16 -5 -5 4 -9 -10 -9 -29 0 -22 5
-36 13 -36 8 0 9 -3 1 -8 -6 -4 -12 -42 -13 -85 -3 -95 -19 -152 -20 -69 -1
30 -5 52 -12 52 -7 0 -10 -20 -7 -54 1 -30 0 -52 -4 -49 -5 2 -8 22 -8 44 0
26 -4 38 -11 34 -6 -4 -9 -26 -7 -49 1 -22 -2 -41 -7 -41 -6 0 -11 21 -13 48
-2 33 -7 47 -18 47 -19 0 -18 16 1 24 13 5 15 41 15 241 0 202 -2 235 -15 235
-8 0 -15 -4 -15 -10 0 -5 -8 -10 -17 -9 -13 0 -14 2 -4 6 11 5 11 7 0 14 -10
6 -4 9 17 9 31 0 32 2 36 45 2 25 -1 50 -6 55 -7 7 -6 10 1 10 7 0 14 -4 17
-8z m689 1 c-7 -2 -19 -2 -25 0 -7 3 -2 5 12 5 14 0 19 -2 13 -5z m1137 -4 c0
-5 -36 -9 -80 -9 -62 0 -82 -3 -86 -15 -8 -21 -19 -19 -21 4 -1 16 6 20 35 23
79 6 152 5 152 -3z m104 -5 c-10 -8 -13 -13 -7 -9 7 3 21 1 30 -4 16 -9 16
-10 2 -11 -12 0 -15 -7 -11 -25 4 -24 3 -25 -52 -25 -31 0 -56 3 -56 8 0 16
16 30 40 34 14 3 -23 3 -82 1 -61 -2 -108 0 -108 5 0 5 15 10 33 10 106 1 189
5 170 9 -39 7 -25 23 19 23 40 0 41 -1 22 -16z m86 6 c-20 -13 -47 -13 -55 0
-4 6 9 10 32 10 28 0 34 -3 23 -10z m53 3 c-7 -2 -19 -2 -25 0 -7 3 -2 5 12 5
14 0 19 -2 13 -5z m407 3 c0 -3 -4 -8 -10 -11 -5 -3 -10 -1 -10 4 0 6 5 11 10
11 6 0 10 -2 10 -4z m-2240 -16 c0 -5 -12 -10 -27 -9 -25 0 -26 1 -8 9 27 12
35 12 35 0z m1265 0 c18 -8 17 -9 -7 -9 -16 -1 -28 4 -28 9 0 12 8 12 35 0z
m825 6 c0 -9 -40 -13 -46 -5 -3 5 6 9 20 9 14 0 26 -2 26 -4z m493 -3 c-7 -2
-19 -2 -25 0 -7 3 -2 5 12 5 14 0 19 -2 13 -5z m472 -3 c-3 -5 -11 -10 -16
-10 -6 0 -7 5 -4 10 3 6 11 10 16 10 6 0 7 -4 4 -10z m-3315 -10 c-19 -13 -30
-13 -30 0 0 6 10 10 23 10 18 0 19 -2 7 -10z m2180 -1 c0 -4 -42 -7 -92 -7
-58 0 -80 3 -58 7 49 9 150 9 150 0z m-1604 -14 c26 -26 17 -45 -21 -45 -19 0
-35 5 -35 10 0 6 5 10 10 10 6 0 10 5 10 10 0 6 -9 10 -20 10 -11 0 -20 4 -20
8 0 15 62 12 76 -3z m114 3 c0 -4 -13 -8 -30 -8 -16 0 -30 4 -30 8 0 5 14 9
30 9 17 0 30 -4 30 -9z m2355 2 c-3 -5 -12 -10 -18 -10 -7 0 -6 4 3 10 19 12
23 12 15 0z m-4069 -50 c11 0 13 6 9 20 -3 11 -3 20 0 20 12 0 35 -29 35 -44
0 -13 -12 -16 -60 -16 -53 0 -60 2 -60 20 0 15 7 20 25 20 17 0 26 6 26 18 1
9 4 5 6 -10 3 -16 11 -28 19 -28z m1761 28 c-3 -8 -6 -5 -6 6 -1 11 2 17 5 13
3 -3 4 -12 1 -19z m370 16 c-3 -3 -12 -4 -19 -1 -8 3 -5 6 6 6 11 1 17 -2 13
-5z m70 0 c-3 -3 -12 -4 -19 -1 -8 3 -5 6 6 6 11 1 17 -2 13 -5z m81 -1 c-10
-2 -26 -2 -35 0 -10 3 -2 5 17 5 19 0 27 -2 18 -5z m1908 -28 c3 -19 10 -38
15 -41 5 -3 9 -12 9 -19 0 -19 -28 -8 -34 13 -14 50 -17 82 -7 82 5 0 13 -16
17 -35z m154 14 c0 -14 -17 -10 -23 5 -4 10 -1 13 9 9 7 -3 14 -9 14 -14z
m-4730 1 c0 -5 -13 -10 -30 -10 -16 0 -30 5 -30 10 0 6 14 10 30 10 17 0 30
-4 30 -10z m509 -22 c-1 -31 -1 -32 -9 -8 -4 14 -9 18 -9 10 -1 -13 -2 -13
-11 0 -15 23 -12 30 10 30 16 0 20 -6 19 -32z m71 20 c0 -4 -13 -8 -30 -8 -16
0 -30 4 -30 9 0 5 14 9 30 9 17 -1 30 -5 30 -10z m340 -8 c0 -16 -7 -20 -31
-20 -27 0 -59 19 -59 34 0 3 20 6 45 6 38 0 45 -3 45 -20z m700 10 c0 -5 -5
-10 -11 -10 -5 0 -7 5 -4 10 3 6 8 10 11 10 2 0 4 -4 4 -10z m600 0 c0 -5 -11
-10 -25 -10 -14 0 -25 5 -25 10 0 6 11 10 25 10 14 0 25 -4 25 -10z m1190 -2
c0 6 11 12 25 12 27 0 28 -1 19 -24 -4 -10 -18 -16 -35 -16 -23 0 -29 4 -29
23 0 18 2 19 10 7 6 -10 10 -11 10 -2z m140 8 c0 -2 -3 -11 -6 -20 -7 -17 -44
-22 -44 -6 0 6 -7 10 -15 10 -8 0 -15 5 -15 10 0 6 18 10 40 10 22 0 40 -2 40
-4z m40 -6 c0 -5 -4 -10 -10 -10 -5 0 -10 5 -10 10 0 6 5 10 10 10 6 0 10 -4
10 -10z m160 4 c0 -3 -7 -12 -15 -20 -8 -9 -15 -13 -15 -11 0 3 -3 12 -6 21
-4 12 0 16 15 16 12 0 21 -3 21 -6z m564 -10 c9 -24 7 -27 -9 -10 -17 17 -19
26 -6 26 5 0 12 -7 15 -16z m376 -4 c0 -11 -4 -20 -10 -20 -5 0 -10 9 -10 20
0 11 5 20 10 20 6 0 10 -9 10 -20z m220 14 c0 -7 -27 -34 -34 -34 -3 0 -6 9
-6 20 0 13 7 20 20 20 11 0 20 -3 20 -6z m-2390 -18 c0 -3 -4 -8 -10 -11 -5
-3 -10 -1 -10 4 0 6 5 11 10 11 6 0 10 -2 10 -4z m70 -28 c0 -5 -7 -8 -15 -8
-17 0 -18 2 -9 25 5 13 8 14 15 3 5 -7 9 -16 9 -20z m17 0 c-3 -7 -5 -2 -5 12
0 14 2 19 5 13 2 -7 2 -19 0 -25z m53 11 c0 -11 -4 -18 -10 -14 -5 3 -7 12 -3
20 7 21 13 19 13 -6z m17 -11 c-3 -7 -5 -2 -5 12 0 14 2 19 5 13 2 -7 2 -19 0
-25z m95 10 c2 -17 9 -22 26 -20 12 2 22 -2 22 -7 0 -7 -22 -11 -53 -11 -51 0
-53 1 -55 30 -2 27 1 30 27 30 23 0 30 -5 33 -22z m465 -1 c-1 -13 3 -21 11
-19 6 1 12 -2 12 -8 0 -6 -30 -9 -72 -8 -41 1 -56 3 -35 5 27 3 37 9 37 21 0
13 -2 14 -8 4 -6 -8 -27 -12 -60 -11 -29 1 -52 3 -52 5 0 1 3 9 6 18 5 13 22
16 85 15 74 -1 78 -2 76 -22z m763 16 c0 -5 -5 -15 -10 -23 -8 -12 -10 -11
-10 8 0 12 5 22 10 22 6 0 10 -3 10 -7z m-3770 -22 c0 -5 -9 -11 -21 -14 -12
-3 -18 -10 -14 -16 3 -6 1 -11 -4 -11 -16 0 -13 17 6 39 16 19 33 20 33 2z
m-259 2 c0 -5 2 -16 4 -25 2 -13 -3 -18 -18 -18 -18 0 -19 2 -7 10 10 6 11 10
3 10 -7 0 -13 7 -13 15 0 15 29 22 31 8z m1209 3 c0 -3 -4 -8 -10 -11 -5 -3
-10 -1 -10 4 0 6 5 11 10 11 6 0 10 -2 10 -4z m460 -6 c0 -5 -4 -10 -10 -10
-5 0 -10 5 -10 10 0 6 5 10 10 10 6 0 10 -4 10 -10z m2172 1 c2 -6 36 -11 76
-12 76 -2 100 -16 72 -42 -10 -9 -11 -9 -6 1 5 8 0 12 -13 12 -10 0 -21 -5
-23 -11 -5 -15 -108 -13 -108 3 0 4 -5 8 -11 8 -6 0 -9 -6 -6 -13 3 -8 -3 -14
-14 -14 -20 -2 -26 28 -13 61 7 17 40 22 46 7z m352 -6 c3 -8 1 -15 -4 -15 -6
0 -10 7 -10 15 0 8 2 15 4 15 2 0 6 -7 10 -15z m566 5 c0 -5 -7 -10 -15 -10
-8 0 -15 5 -15 10 0 6 7 10 15 10 8 0 15 -4 15 -10z m-2840 -21 c0 -5 7 -9 15
-9 8 0 15 5 15 10 0 6 5 10 11 10 6 0 9 -7 5 -15 -3 -8 0 -15 7 -15 26 0 -19
-20 -47 -20 -22 0 -27 4 -22 16 5 14 1 16 -23 11 -31 -7 -53 9 -32 22 15 10
71 1 71 -10z m-1990 7 c0 -3 -4 -8 -10 -11 -5 -3 -10 -1 -10 4 0 6 5 11 10 11
6 0 10 -2 10 -4z m1890 -6 c0 -5 -5 -10 -10 -10 -14 0 -72 -59 -66 -68 2 -4
-2 -13 -10 -20 -12 -11 -14 -9 -16 10 0 13 -1 29 -1 36 1 6 -10 12 -23 12 -13
0 -24 5 -24 10 0 6 10 10 23 9 41 -4 57 1 57 16 0 10 11 15 35 15 19 0 35 -4
35 -10z m280 0 c0 -5 -7 -10 -15 -10 -8 0 -15 5 -15 10 0 6 7 10 15 10 8 0 15
-4 15 -10z m1325 0 c-3 -5 -30 -10 -60 -10 -30 0 -57 5 -60 10 -4 6 18 10 60
10 42 0 64 -4 60 -10z m107 1 c-11 -7 -10 -10 3 -15 9 -3 20 -4 25 -1 4 3 19
1 32 -4 18 -8 10 -10 -39 -10 -45 -1 -62 3 -60 11 1 8 -8 12 -25 10 -16 -2
-28 1 -28 7 0 7 22 11 53 11 32 0 47 -4 39 -9z m88 -1 c0 -5 -7 -7 -15 -4 -8
4 -15 8 -15 10 0 2 7 4 15 4 8 0 15 -4 15 -10z m667 4 c-3 -3 -12 -4 -19 -1
-8 3 -5 6 6 6 11 1 17 -2 13 -5z m100 0 c-3 -3 -12 -4 -19 -1 -8 3 -5 6 6 6
11 1 17 -2 13 -5z m-3989 -11 c-10 -2 -28 -2 -40 0 -13 2 -5 4 17 4 22 1 32
-1 23 -4z m62 -12 c0 -4 -7 -8 -15 -8 -8 0 -15 6 -15 13 0 8 6 11 15 8 8 -4
15 -9 15 -13z m2180 15 c0 -9 -40 -13 -46 -5 -3 5 6 9 20 9 14 0 26 -2 26 -4z
m37 -2 c-3 -3 -12 -4 -19 -1 -8 3 -5 6 6 6 11 1 17 -2 13 -5z m453 -4 c0 -5
-7 -10 -15 -10 -8 0 -15 5 -15 10 0 6 7 10 15 10 8 0 15 -4 15 -10z m1624 -5
c-4 -8 -11 -12 -16 -9 -6 4 -5 10 3 15 19 12 19 11 13 -6z m-2400 -27 c5 -21
3 -28 -9 -28 -8 0 -15 -4 -15 -10 0 -5 7 -10 15 -10 25 0 17 -19 -10 -26 -14
-4 -28 -5 -30 -3 -2 2 -1 25 2 51 4 32 11 48 22 51 20 4 17 7 25 -25z m-2203
-28 c5 0 9 -8 9 -19 0 -12 -9 -20 -25 -23 -21 -4 -25 -1 -25 18 0 13 5 24 10
24 6 0 11 12 11 28 l2 27 4 -27 c2 -16 9 -28 14 -28z m19 35 c0 -8 -4 -15 -8
-15 -5 0 -9 7 -9 15 0 8 4 15 9 15 4 0 8 -7 8 -15z m233 8 c-13 -2 -33 -2 -45
0 -13 2 -3 4 22 4 25 0 35 -2 23 -4z m2167 -3 c11 -7 4 -10 -25 -9 -31 0 -36
2 -20 9 26 11 28 11 45 0z m722 -4 c5 -8 8 -7 8 2 0 8 18 12 55 12 30 0 55 -4
55 -10 0 -5 5 -10 11 -10 5 0 7 5 4 10 -4 6 7 10 27 9 30 0 31 -1 11 -9 -15
-6 -21 -15 -17 -25 5 -12 -4 -15 -55 -15 -34 0 -61 4 -61 10 0 6 14 10 32 10
20 0 28 4 23 9 -6 5 -22 7 -37 4 -25 -5 -33 -18 -29 -45 0 -5 -6 -8 -15 -8
-10 0 -14 -6 -10 -15 4 -12 -3 -15 -37 -14 -30 2 -34 3 -14 6 41 7 32 23 -13
23 -25 0 -40 5 -41 13 0 10 -2 10 -6 0 -2 -7 -13 -13 -24 -13 -21 0 -22 1 -13
25 5 13 8 14 15 3 7 -10 9 -10 9 0 0 7 14 12 37 12 20 0 33 3 30 7 -4 3 -27 5
-53 5 -25 -1 -43 2 -40 7 8 12 140 10 148 -3z m768 4 c0 -5 -12 -10 -27 -9
l-28 1 25 8 c14 4 26 8 28 9 1 1 2 -3 2 -9z m45 0 c-3 -5 -12 -7 -20 -3 -21 7
-19 13 6 13 11 0 18 -4 14 -10z m114 -6 c2 -2 -12 -4 -33 -4 -22 0 -35 4 -31
10 5 9 52 4 64 -6z m-3702 -26 c-3 -7 -5 -2 -5 12 0 14 2 19 5 13 2 -7 2 -19
0 -25z m60 26 c-3 -3 -12 -4 -19 -1 -8 3 -5 6 6 6 11 1 17 -2 13 -5z m33 -4
c0 -5 -4 -10 -10 -10 -5 0 -10 5 -10 10 0 6 5 10 10 10 6 0 10 -4 10 -10z
m323 3 c-7 -2 -21 -2 -30 0 -10 3 -4 5 12 5 17 0 24 -2 18 -5z m1522 -3 c-3
-5 -12 -7 -20 -3 -21 7 -19 13 6 13 11 0 18 -4 14 -10z m1305 6 c0 -3 -4 -8
-10 -11 -5 -3 -10 -1 -10 4 0 6 5 11 10 11 6 0 10 -2 10 -4z m800 -6 c0 -5 -2
-10 -4 -10 -3 0 -8 5 -11 10 -3 6 -1 10 4 10 6 0 11 -4 11 -10z m85 -40 c-1
-27 -4 -52 -8 -56 -4 -4 -8 -21 -8 -38 l-1 -31 -7 30 c-3 17 -10 29 -14 28 -4
-2 -24 -2 -44 -2 -21 1 -31 3 -22 6 18 4 29 32 29 71 0 24 15 30 23 10 3 -8 6
-7 6 4 1 9 11 19 24 21 12 2 22 5 22 6 0 0 0 -21 0 -49z m-4248 34 c-3 -3 -12
-4 -19 -1 -8 3 -5 6 6 6 11 1 17 -2 13 -5z m1250 -16 c-3 -8 -6 -5 -6 6 -1 11
2 17 5 13 3 -3 4 -12 1 -19z m193 1 c0 -5 -4 -9 -10 -9 -5 0 -10 7 -10 16 0 8
5 12 10 9 6 -3 10 -10 10 -16z m54 -1 c3 -13 6 -33 6 -45 0 -16 5 -20 20 -16
11 3 20 0 20 -6 0 -6 11 -11 25 -11 22 0 25 4 25 35 0 19 5 35 10 35 6 0 10
-6 10 -12 0 -7 3 -23 6 -35 5 -17 2 -23 -9 -23 -8 0 -18 -7 -21 -16 -3 -8 -9
-13 -13 -11 -5 3 -18 1 -31 -4 -28 -11 -26 -41 3 -51 19 -6 19 -6 -1 -7 -16
-1 -21 -7 -19 -23 1 -13 0 -15 -2 -5 -2 9 -11 17 -19 17 -8 0 -14 5 -14 10 0
6 5 10 10 10 16 0 12 37 -5 44 -9 3 -15 0 -15 -9 0 -8 -4 -15 -10 -15 -5 0 -9
5 -7 12 1 6 -6 14 -15 16 -11 2 -18 -2 -18 -12 0 -9 -7 -16 -15 -16 -9 0 -15
6 -14 13 4 30 -3 37 -36 37 -24 0 -35 5 -35 15 0 8 7 15 15 15 8 0 15 -6 15
-12 0 -10 2 -10 8 -2 4 7 23 11 42 9 47 -4 47 -4 30 -15 -11 -7 -7 -10 18 -10
30 0 32 2 18 15 -8 8 -20 15 -26 15 -8 0 -10 8 -6 23 3 12 6 30 6 40 0 26 36
21 44 -5z m956 -57 l0 -78 -56 -2 c-46 -1 -55 2 -50 14 4 10 -1 15 -14 15 -38
0 -19 19 23 23 23 2 4 4 -43 4 -47 0 -71 -2 -54 -4 26 -3 32 -9 32 -29 0 -20
-5 -24 -29 -24 -29 0 -39 14 -16 23 6 3 2 6 -11 6 -13 1 -20 -3 -17 -9 3 -5 1
-18 -4 -27 -6 -11 -11 -13 -11 -5 0 7 -4 11 -9 8 -5 -3 -11 1 -15 9 -3 8 0 14
6 12 7 -1 12 9 12 23 1 14 8 28 16 32 13 6 12 7 -2 7 -12 1 -16 10 -15 36 1
39 -3 38 160 43 l97 2 0 -79z m630 58 c0 -5 -4 -9 -10 -9 -5 0 -10 7 -10 16 0
8 5 12 10 9 6 -3 10 -10 10 -16z m53 5 c-6 -17 -33 -19 -33 -1 0 7 9 13 19 14
14 1 18 -3 14 -13z m47 1 c0 -8 -7 -15 -15 -15 -16 0 -20 12 -8 23 11 12 23 8
23 -8z m34 0 c-7 -16 -24 -21 -24 -6 0 8 7 13 27 20 1 1 0 -6 -3 -14z m810 9
c20 -8 21 -24 1 -24 -8 0 -15 -9 -15 -20 0 -11 -7 -20 -15 -20 -8 0 -15 9 -15
20 0 11 5 20 10 20 6 0 10 7 10 15 0 17 2 18 24 9z m56 -9 c0 -8 -4 -15 -10
-15 -5 0 -10 7 -10 15 0 8 5 15 10 15 6 0 10 -7 10 -15z m-2790 -15 c0 -11 -4
-20 -10 -20 -5 0 -10 9 -10 20 0 11 5 20 10 20 6 0 10 -9 10 -20z m110 10 c0
-5 -7 -10 -15 -10 -8 0 -15 5 -15 10 0 6 7 10 15 10 8 0 15 -4 15 -10z m1204
-6 c3 -8 2 -12 -4 -9 -6 3 -10 10 -10 16 0 14 7 11 14 -7z m1216 6 c0 -5 -9
-10 -20 -10 -11 0 -20 5 -20 10 0 6 9 10 20 10 11 0 20 -4 20 -10z m325 0 c3
-5 1 -10 -4 -10 -6 0 -11 5 -11 10 0 6 2 10 4 10 3 0 8 -4 11 -10z m122 -37
c-3 -10 -5 -2 -5 17 0 19 2 27 5 18 2 -10 2 -26 0 -35z m133 37 c0 -5 -4 -10
-10 -10 -5 0 -10 5 -10 10 0 6 5 10 10 10 6 0 10 -4 10 -10z m-2760 -42 c0 -5
-4 -8 -10 -8 -5 0 -10 10 -10 23 0 18 2 19 10 7 5 -8 10 -18 10 -22z m1080 22
c0 -5 -4 -10 -10 -10 -5 0 -10 5 -10 10 0 6 5 10 10 10 6 0 10 -4 10 -10z
m1604 -6 c3 -8 0 -21 -7 -29 -11 -11 -14 -8 -14 16 0 31 11 38 21 13z m41 -1
c-4 -10 -8 -24 -8 -31 -1 -24 -20 -6 -23 21 -2 21 2 27 18 27 15 0 18 -4 13
-17z m-3955 -14 c0 -6 -4 -7 -10 -4 -5 3 -10 11 -10 16 0 6 5 7 10 4 6 -3 10
-11 10 -16z m-320 1 c0 -5 25 -10 55 -10 l55 0 0 -35 c0 -34 -20 -49 -34 -26
-3 5 -15 7 -26 4 -12 -3 -20 0 -20 7 0 7 7 10 15 6 10 -4 15 1 15 14 0 13 -7
20 -18 20 -17 0 -19 -13 -21 -172 -2 -95 -4 -186 -5 -203 l-3 -30 -66 0 c-51
0 -67 -3 -67 -14 0 -10 3 -11 14 -2 11 9 12 6 8 -14 -3 -18 0 -25 12 -25 9 0
16 8 17 18 0 12 2 13 6 3 3 -8 -2 -20 -13 -28 -16 -12 -15 -13 12 -14 28 0 28
-1 5 -10 -19 -8 -21 -12 -11 -24 10 -12 9 -15 -4 -15 -17 0 -22 -16 -7 -22 5
-1 12 -24 16 -50 6 -41 5 -48 -9 -48 -9 0 -21 10 -26 23 -8 21 -9 20 -10 -8
-1 -16 -4 -24 -7 -16 -5 11 -7 11 -15 0 -7 -10 -8 -5 -3 14 4 19 2 26 -5 22
-5 -3 -10 -15 -10 -25 0 -26 -14 -32 -36 -15 -10 8 -28 15 -39 16 -13 1 -10 4
10 8 17 4 32 3 33 -1 6 -15 22 -8 22 9 0 9 -3 13 -7 10 -3 -4 -13 -1 -21 6
-13 10 -14 9 -7 -2 5 -9 4 -12 -3 -7 -6 4 -10 20 -8 37 3 23 0 29 -12 27 -9
-2 -19 -14 -23 -28 -4 -14 -8 -18 -8 -10 -1 8 -4 26 -7 40 -4 18 -3 21 4 11 9
-12 13 -12 27 2 9 10 22 17 28 17 7 0 3 7 -7 15 -19 15 -19 15 5 15 21 1 22 2
8 13 -11 8 -14 19 -9 32 4 11 3 29 -3 40 -8 17 -6 16 17 -4 24 -23 26 -23 27
-5 1 17 2 17 6 2 8 -31 19 -19 31 33 15 65 15 86 0 93 -10 5 -10 7 0 12 15 7
16 84 1 84 -6 0 -3 7 6 16 13 13 16 33 14 90 -2 81 5 100 27 70 8 -11 14 -14
14 -8 0 7 10 13 23 13 16 1 18 2 5 6 -28 7 -22 33 7 33 14 0 25 -4 25 -10z
m1670 -6 c0 -8 -4 -12 -10 -9 -5 3 -10 10 -10 16 0 5 5 9 10 9 6 0 10 -7 10
-16z m1250 1 c0 -8 -4 -15 -10 -15 -5 0 -10 7 -10 15 0 8 5 15 10 15 6 0 10
-7 10 -15z m30 3 c0 17 47 15 54 -3 4 -12 -3 -15 -34 -15 -32 0 -40 4 -40 18
0 14 2 15 10 2 6 -10 10 -11 10 -2z m101 0 c0 -10 2 -10 6 0 2 6 13 12 24 12
10 0 19 -6 20 -12 0 -10 2 -10 6 0 6 16 20 15 26 -2 5 -12 -6 -14 -56 -12 -35
2 -63 8 -65 14 -2 7 6 12 17 12 12 0 21 -6 22 -12z m146 -10 c-3 -8 -6 -5 -6
6 -1 11 2 17 5 13 3 -3 4 -12 1 -19z m-2360 -4 c-3 -3 -12 -4 -19 -1 -8 3 -5
6 6 6 11 1 17 -2 13 -5z m929 -3 c-5 -8 -56 -3 -56 5 0 2 14 4 31 4 16 0 28
-4 25 -9z m751 3 c-3 -3 -12 -4 -19 -1 -8 3 -5 6 6 6 11 1 17 -2 13 -5z m860
-1 c-11 -11 -67 -13 -67 -3 0 6 17 10 37 10 20 0 33 -3 30 -7z m83 -1 c0 -4
-9 -8 -20 -9 -11 -1 -20 2 -20 8 0 5 9 9 20 9 11 0 20 -4 20 -8z m876 -7 c13
-13 13 -15 1 -15 -8 0 -17 7 -21 15 -3 8 -3 15 0 15 3 0 12 -7 20 -15z m111 9
c-3 -3 -12 -4 -19 -1 -8 3 -5 6 6 6 11 1 17 -2 13 -5z m-2887 -8 c0 -3 -4 -8
-10 -11 -5 -3 -10 -1 -10 4 0 6 5 11 10 11 6 0 10 -2 10 -4z m60 -6 c12 -8 11
-10 -7 -10 -13 0 -23 5 -23 10 0 13 11 13 30 0z m2108 3 c-10 -2 -26 -2 -35 0
-10 3 -2 5 17 5 19 0 27 -2 18 -5z m-3851 -9 c-3 -3 -12 -4 -19 -1 -8 3 -5 6
6 6 11 1 17 -2 13 -5z m951 -1 c-10 -2 -26 -2 -35 0 -10 3 -2 5 17 5 19 0 27
-2 18 -5z m385 0 c-7 -2 -19 -2 -25 0 -7 3 -2 5 12 5 14 0 19 -2 13 -5z m1529
-12 c-5 -3 -12 -13 -15 -21 -4 -12 -6 -11 -6 3 -1 9 -9 17 -18 18 -15 0 -15 2
2 8 22 9 53 2 37 -8z m97 -10 c-1 -15 -3 -19 -6 -10 -2 9 -15 19 -28 21 -16 4
-22 1 -18 -9 3 -7 0 -13 -6 -13 -6 0 -11 2 -11 4 0 2 -3 11 -6 20 -4 12 3 15
35 14 38 0 41 -2 40 -27z m91 17 c0 -6 -9 -8 -19 -5 -14 3 -18 1 -14 -9 3 -8
0 -14 -6 -14 -6 0 -11 8 -11 19 0 13 7 19 25 19 14 0 25 -5 25 -10z m41 -18
c10 0 19 7 19 15 0 8 5 15 10 15 6 0 9 -5 8 -11 -2 -6 7 -12 20 -14 13 -1 22
4 22 12 0 7 10 13 23 12 21 0 21 -1 2 -9 -17 -7 -17 -9 -2 -9 9 -1 17 -5 17
-10 0 -5 -41 -11 -90 -13 -50 -2 -90 0 -90 5 0 4 7 7 15 7 8 0 16 8 16 18 1
16 2 16 6 0 2 -10 13 -18 24 -18z m823 14 c9 -25 7 -34 -8 -34 -8 0 -17 -6
-20 -12 -4 -7 -4 -2 0 12 3 14 6 31 6 38 2 17 15 15 22 -4z m-3461 -1 c-7 -2
-19 -2 -25 0 -7 3 -2 5 12 5 14 0 19 -2 13 -5z m104 1 c-3 -3 -12 -4 -19 -1
-8 3 -5 6 6 6 11 1 17 -2 13 -5z m398 -9 c6 -2 -26 -4 -70 -4 -45 0 -74 3 -67
7 11 8 113 5 137 -3z m858 8 c-7 -2 -19 -2 -25 0 -7 3 -2 5 12 5 14 0 19 -2
13 -5z m987 -26 c0 -5 -4 -5 -10 -2 -5 3 -10 14 -10 23 0 15 2 15 10 2 5 -8
10 -19 10 -23z m1050 13 c0 -14 -7 -20 -24 -20 -13 0 -26 -6 -29 -12 -3 -7 -4
-3 -4 9 1 14 7 20 19 18 10 -2 20 -1 22 3 3 4 -7 9 -21 10 -41 3 -40 12 0 12
30 0 37 -4 37 -20z m-4068 -2 c-17 -8 -26 -8 -34 0 -9 9 -4 12 23 11 32 0 33
-1 11 -11z m1953 2 c-3 -5 -12 -7 -20 -3 -21 7 -19 13 6 13 11 0 18 -4 14 -10z
m471 -3 c4 -4 -10 -7 -32 -6 -30 0 -34 2 -19 8 22 9 41 8 51 -2z m2091 -9 c-3
-8 -6 -5 -6 6 -1 11 2 17 5 13 3 -3 4 -12 1 -19z m50 0 c-3 -8 -6 -5 -6 6 -1
11 2 17 5 13 3 -3 4 -12 1 -19z m-3989 -11 c2 -11 -3 -17 -16 -17 -15 0 -19 5
-15 20 6 24 26 21 31 -3z m195 16 c-7 -2 -21 -2 -30 0 -10 3 -4 5 12 5 17 0
24 -2 18 -5z m1247 -3 c-34 -11 -60 -11 -35 0 11 5 29 8 40 8 16 0 15 -2 -5
-8z m77 4 c-3 -3 -12 -4 -19 -1 -8 3 -5 6 6 6 11 1 17 -2 13 -5z m771 -1 c-10
-2 -28 -2 -40 0 -13 2 -5 4 17 4 22 1 32 -1 23 -4z m1737 -3 c-3 -5 -10 -10
-16 -10 -5 0 -9 5 -9 10 0 6 7 10 16 10 8 0 12 -4 9 -10z m-2969 -26 c3 -56 5
-64 14 -64 6 0 10 10 11 23 1 20 1 21 7 2 4 -11 15 -21 25 -23 15 -3 17 1 12
17 -5 15 -2 21 9 21 9 0 16 -9 16 -20 0 -11 5 -20 10 -20 6 0 10 -4 10 -10 0
-5 -26 -10 -57 -10 -32 0 -68 -3 -80 -6 -26 -7 -31 -24 -8 -24 8 0 15 5 15 10
0 6 7 10 16 10 8 0 12 -4 9 -10 -4 -6 20 -10 65 -10 45 0 69 4 65 10 -3 6 -1
10 4 10 6 0 11 -4 11 -10 0 -5 20 -10 45 -10 33 0 45 -4 45 -15 0 -12 -13 -15
-55 -15 -47 0 -54 -2 -48 -17 5 -16 4 -16 -8 0 -13 16 -25 18 -93 13 -44 -3
-82 -9 -85 -13 -9 -12 -33 -15 -26 -3 3 5 -3 10 -14 10 -12 0 -21 -6 -21 -12
0 -7 -5 -5 -11 5 -12 20 -3 71 10 62 5 -3 7 3 4 14 -3 11 4 26 16 38 14 13 17
23 11 33 -14 22 -12 30 6 30 11 0 14 -6 9 -20 -4 -11 -2 -20 4 -20 6 0 11 -5
11 -11 0 -5 -4 -7 -10 -4 -5 3 -10 -1 -10 -9 0 -11 9 -16 30 -16 36 0 40 20
10 52 -15 17 -17 24 -8 30 19 11 33 4 34 -18z m2158 0 c4 -15 5 -29 1 -32 -3
-3 -5 2 -5 11 0 10 -4 17 -10 17 -5 0 -10 7 -10 15 0 25 17 17 24 -11z m134 1
c-3 -3 -9 2 -12 12 -6 14 -5 15 5 6 7 -7 10 -15 7 -18z m49 3 c-3 -8 -6 -5 -6
6 -1 11 2 17 5 13 3 -3 4 -12 1 -19z m281 15 c-10 -2 -26 -2 -35 0 -10 3 -2 5
17 5 19 0 27 -2 18 -5z m-3481 -35 c-3 -7 -5 -2 -5 12 0 14 2 19 5 13 2 -7 2
-19 0 -25z m1263 25 c0 -5 -5 -15 -10 -23 -8 -12 -10 -11 -10 8 0 12 5 22 10
22 6 0 10 -3 10 -7z m370 -3 c0 -5 -9 -10 -20 -10 -11 0 -20 5 -20 10 0 6 9
10 20 10 11 0 20 -4 20 -10z m2050 0 c0 -5 -5 -10 -11 -10 -5 0 -7 5 -4 10 3
6 8 10 11 10 2 0 4 -4 4 -10z m-4460 -33 c10 -4 8 -6 -7 -6 -16 -1 -23 5 -23
17 0 10 3 13 8 6 4 -6 14 -14 22 -17z m1431 0 c-10 -9 -11 -8 -5 6 3 10 9 15
12 12 3 -3 0 -11 -7 -18z m69 13 c0 -5 -4 -10 -10 -10 -5 0 -10 5 -10 10 0 6
5 10 10 10 6 0 10 -4 10 -10z m2325 0 c3 -5 1 -10 -4 -10 -6 0 -11 5 -11 10 0
6 2 10 4 10 3 0 8 -4 11 -10z m-1395 -14 c0 -2 3 -13 6 -23 6 -17 6 -17 -8 1
-8 10 -20 16 -26 12 -7 -4 -12 -2 -12 3 0 6 9 11 20 11 11 0 20 -2 20 -4z
m1750 -6 c0 -5 -8 -10 -17 -10 -15 0 -16 2 -3 10 19 12 20 12 20 0z m390 0 c0
-5 -2 -10 -4 -10 -3 0 -8 5 -11 10 -3 6 -1 10 4 10 6 0 11 -4 11 -10z m-4153
-22 c-3 -8 -6 -5 -6 6 -1 11 2 17 5 13 3 -3 4 -12 1 -19z m2633 2 c0 -5 -6
-10 -12 -13 -34 -12 12 -19 114 -19 67 1 107 -3 98 -8 -8 -5 -73 -9 -144 -9
-102 0 -126 3 -108 11 25 13 29 28 7 28 -15 0 -20 12 -10 22 8 8 55 -3 55 -12z
m370 5 c0 -13 -24 -15 -160 -15 -92 0 -160 4 -160 9 0 15 26 18 178 20 121 1
142 -1 142 -14z m60 0 c0 -8 -9 -15 -20 -15 -11 0 -20 7 -20 15 0 8 9 15 20
15 11 0 20 -7 20 -15z m110 -6 c0 -5 -4 -9 -10 -9 -5 0 -10 7 -10 16 0 8 5 12
10 9 6 -3 10 -10 10 -16z m277 -1 c-3 -8 -6 -5 -6 6 -1 11 2 17 5 13 3 -3 4
-12 1 -19z m50 16 c-3 -3 -12 -4 -19 -1 -8 3 -5 6 6 6 11 1 17 -2 13 -5z m160
0 c-3 -3 -12 -4 -19 -1 -8 3 -5 6 6 6 11 1 17 -2 13 -5z m510 -16 c-3 -8 -6
-5 -6 6 -1 11 2 17 5 13 3 -3 4 -12 1 -19z m-4578 -10 c0 -13 -3 -17 -6 -10
-2 6 -13 12 -24 12 -10 0 -19 5 -19 10 0 6 11 10 25 10 19 0 25 -5 24 -22z
m2752 -58 c15 0 10 -17 -6 -24 -12 -4 -15 5 -13 52 1 50 2 52 5 15 2 -24 8
-43 14 -43z m213 65 c6 -16 -2 -45 -13 -45 -4 0 -8 14 -9 30 -2 31 12 41 22
15z m116 5 c0 -5 -4 -10 -10 -10 -5 0 -10 5 -10 10 0 6 5 10 10 10 6 0 10 -4
10 -10z m915 0 c3 -5 1 -10 -4 -10 -6 0 -11 5 -11 10 0 6 2 10 4 10 3 0 8 -4
11 -10z m-3435 -20 c0 -5 -7 -10 -15 -10 -8 0 -15 5 -15 10 0 6 7 10 15 10 8
0 15 -4 15 -10z m1970 0 c0 -5 -9 -10 -20 -10 -11 0 -20 5 -20 10 0 6 9 10 20
10 11 0 20 -4 20 -10z m1540 0 c0 -5 -7 -10 -15 -10 -8 0 -15 5 -15 10 0 6 7
10 15 10 8 0 15 -4 15 -10z m-4119 -24 c-6 -7 -8 -21 -5 -31 5 -12 1 -23 -12
-33 -18 -14 -18 -14 4 -9 12 3 22 1 22 -3 0 -5 -8 -10 -17 -12 -16 -3 -16 -4
0 -20 21 -21 21 -28 2 -28 -21 0 -19 -30 3 -31 11 -1 9 -4 -8 -9 -24 -8 -24
-8 -2 -9 30 -1 28 -17 -3 -23 -23 -5 -25 -2 -26 36 0 22 0 64 -1 91 -1 91 0
95 28 95 21 0 24 -3 15 -14z m2438 7 c-3 -18 2 -33 10 -33 5 0 7 10 3 22 -3
14 -2 19 6 14 16 -10 15 -32 -1 -48 -8 -7 -16 -20 -20 -28 -4 -12 -6 -11 -6 3
-1 11 -5 15 -13 11 -8 -5 -9 -2 -4 11 4 11 2 22 -6 27 -11 6 -10 8 0 8 7 0 10
5 7 10 -3 6 1 10 9 10 9 0 15 -3 15 -7z m921 -3 c-18 -12 -50 -13 -50 -2 0 4
15 9 33 10 24 2 28 0 17 -8z m80 3 c0 -5 -11 -9 -25 -9 -14 -1 -25 2 -25 7 0
5 11 9 25 9 14 0 25 -3 25 -7z m75 -3 c-8 -13 -35 -13 -55 0 -11 7 -5 10 23
10 23 0 36 -4 32 -10z m994 -18 c-5 -2 -9 -10 -9 -18 0 -8 -4 -14 -8 -14 -5 0
-7 13 -4 29 3 24 7 27 17 18 7 -7 9 -13 4 -15z m-4427 -87 c-3 -83 -6 -105
-18 -105 -8 0 -14 9 -14 20 0 11 5 20 10 20 14 0 12 27 -2 33 -10 4 -9 8 2 16
13 10 13 12 0 21 -13 9 -13 11 0 20 13 9 13 10 0 10 -12 0 -12 2 -1 9 9 6 10
10 2 16 -9 5 -9 10 -1 20 8 10 7 14 -2 18 -7 3 -4 6 7 6 19 1 20 -4 17 -104z
m1058 97 c0 -4 -18 -6 -40 -4 -22 2 -40 6 -40 8 0 2 18 4 40 4 22 0 40 -3 40
-8z m1490 -2 c0 -5 -5 -10 -11 -10 -5 0 -7 5 -4 10 3 6 8 10 11 10 2 0 4 -4 4
-10z m-2187 -26 c-4 -11 -8 -12 -20 -3 -11 10 -11 14 -1 20 17 10 28 2 21 -17z
m755 19 c-10 -2 -26 -2 -35 0 -10 3 -2 5 17 5 19 0 27 -2 18 -5z m2261 -9 c2
-2 -14 -4 -37 -4 -27 0 -42 -5 -42 -12 0 -13 -20 10 -20 23 0 7 91 0 99 -7z
m208 10 c-3 -3 -12 -4 -19 -1 -8 3 -5 6 6 6 11 1 17 -2 13 -5z m50 0 c-3 -3
-12 -4 -19 -1 -8 3 -5 6 6 6 11 1 17 -2 13 -5z m889 -11 c-3 -10 -2 -24 3 -31
6 -10 11 -10 21 3 12 14 11 18 0 25 -8 5 -11 12 -8 16 13 12 37 -23 31 -45 -3
-11 -9 -19 -13 -16 -5 3 -11 1 -15 -5 -3 -5 1 -10 10 -10 13 0 16 -6 11 -25
-4 -14 -2 -25 4 -25 5 0 10 -7 10 -15 0 -8 -9 -15 -20 -15 -11 0 -20 -4 -20
-10 0 -5 -10 -10 -22 -9 -23 0 -23 1 -2 10 19 10 49 68 39 78 -3 2 -12 -4 -20
-15 -8 -10 -15 -17 -16 -14 -4 14 -6 106 -2 113 8 14 14 7 9 -10z m-3992 -44
c3 -47 -2 -69 -14 -69 -14 0 -20 31 -10 51 9 16 7 21 -12 29 -16 6 -18 9 -7 9
9 1 20 8 23 17 10 25 17 12 20 -37z m558 41 c41 0 47 -3 45 -20 -1 -18 -8 -20
-82 -19 -58 1 -72 3 -50 9 17 4 22 8 13 9 -10 0 -18 8 -18 17 0 12 6 15 23 10
12 -3 43 -6 69 -6z m838 -11 c0 -5 -16 -9 -35 -9 -22 0 -35 5 -35 13 0 9 11
12 35 9 19 -2 35 -8 35 -13z m735 3 c0 -9 -4 -23 -8 -29 -4 -6 -3 -14 2 -18 6
-3 9 -18 8 -33 -2 -24 -6 -27 -29 -24 -23 4 -28 1 -28 -17 0 -11 -4 -21 -9
-21 -5 0 -7 9 -4 20 5 17 0 20 -26 20 -17 0 -34 0 -38 0 -5 0 -9 -11 -11 -25
-3 -25 -2 -25 67 -25 60 0 71 3 71 17 0 9 2 14 5 11 4 -3 3 -17 -1 -32 l-6
-26 -129 1 c-106 0 -129 3 -129 15 0 9 12 14 38 15 l37 2 -40 7 c-38 7 -38 7
18 9 56 1 64 7 58 44 -1 7 68 11 117 7 12 -1 22 3 22 9 0 7 -40 11 -115 11
-70 0 -115 -4 -115 -10 0 -5 18 -10 40 -10 22 0 40 -4 40 -10 0 -5 -23 -10
-51 -10 -48 0 -50 1 -47 26 l3 26 113 2 c90 2 116 6 129 19 16 16 16 17 -10
17 -15 0 -27 -6 -27 -12 0 -10 -2 -10 -9 0 -6 11 -31 13 -105 10 -68 -3 -96
-1 -96 7 0 6 2 14 4 16 3 2 63 5 134 6 117 2 129 1 127 -15z m261 -9 c-10 -10
-19 5 -10 18 6 11 8 11 12 0 2 -7 1 -15 -2 -18z m114 12 c0 -18 -40 -20 -41
-2 0 10 -2 10 -6 0 -5 -15 -43 -18 -43 -4 0 13 19 19 58 20 22 1 32 -4 32 -14z
m78 8 c-10 -2 -18 -9 -18 -14 0 -5 -11 -8 -25 -7 -45 4 -29 28 18 27 23 -1 34
-3 25 -6z m110 0 c-9 -2 -19 -11 -22 -19 -3 -9 -1 -12 4 -9 6 3 10 1 10 -4 0
-6 -9 -11 -20 -11 -13 0 -20 7 -20 20 0 11 -4 20 -10 20 -5 0 -10 -4 -10 -10
0 -5 -4 -10 -8 -10 -5 0 -9 7 -9 15 0 12 12 15 51 14 28 -1 44 -3 34 -6z m205
0 c-7 -2 -19 -2 -25 0 -7 3 -2 5 12 5 14 0 19 -2 13 -5z m-2706 -25 c-3 -8 -6
-5 -6 6 -1 11 2 17 5 13 3 -3 4 -12 1 -19z m1430 7 c8 -9 13 -19 9 -22 -7 -7
-36 16 -36 28 0 13 10 11 27 -6z m53 -1 c0 -8 -4 -12 -10 -9 -5 3 -10 10 -10
16 0 5 5 9 10 9 6 0 10 -7 10 -16z m590 6 c0 -5 -9 -10 -20 -10 -11 0 -20 5
-20 10 0 6 9 10 20 10 11 0 20 -4 20 -10z m1818 -1 c-2 -6 -8 -10 -13 -10 -5
0 -11 4 -13 10 -2 6 4 11 13 11 9 0 15 -5 13 -11z m-2651 -15 c-3 -3 -12 -4
-19 -1 -8 3 -5 6 6 6 11 1 17 -2 13 -5z m86 -1 c-7 -2 -19 -2 -25 0 -7 3 -2 5
12 5 14 0 19 -2 13 -5z m254 1 c-3 -3 -12 -4 -19 -1 -8 3 -5 6 6 6 11 1 17 -2
13 -5z m862 -10 c2 -2 -10 -4 -27 -4 -18 0 -32 5 -32 10 0 9 47 4 59 -6z m101
0 c0 -2 -9 -4 -20 -4 -11 0 -20 4 -20 9 0 5 9 7 20 4 11 -3 20 -7 20 -9z m110
6 c0 -5 -5 -10 -11 -10 -5 0 -7 5 -4 10 3 6 8 10 11 10 2 0 4 -4 4 -10z m405
0 c3 -5 1 -10 -4 -10 -6 0 -11 5 -11 10 0 6 2 10 4 10 3 0 8 -4 11 -10z m609
-6 c3 -8 2 -12 -4 -9 -6 3 -10 10 -10 16 0 14 7 11 14 -7z m-2004 -4 c0 -5 -4
-10 -10 -10 -5 0 -10 5 -10 10 0 6 5 10 10 10 6 0 10 -4 10 -10z m545 0 c3 -5
-1 -10 -9 -10 -9 0 -16 5 -16 10 0 6 4 10 9 10 6 0 13 -4 16 -10z m111 3 c-4
-4 -24 -6 -44 -5 -32 1 -34 0 -14 -8 30 -13 28 -20 -7 -20 -24 0 -28 3 -24 20
4 16 14 20 51 20 25 0 42 -3 38 -7z m51 1 c-3 -3 -12 -4 -19 -1 -8 3 -5 6 6 6
11 1 17 -2 13 -5z m660 0 c-3 -3 -12 -4 -19 -1 -8 3 -5 6 6 6 11 1 17 -2 13
-5z m338 -4 c-3 -5 1 -10 9 -10 9 0 16 5 16 10 0 6 5 10 11 10 5 0 7 -4 4 -10
-3 -5 -2 -10 4 -10 5 0 13 5 16 10 3 6 12 10 18 9 8 0 7 -3 -2 -6 -11 -5 -11
-7 0 -14 9 -5 -13 -9 -56 -9 -65 0 -68 1 -45 14 32 18 32 18 25 6z m159 -5
c-4 -8 -11 -15 -16 -15 -6 0 -5 6 2 15 7 8 14 15 16 15 2 0 1 -7 -2 -15z
m-2006 -2 c-10 -2 -28 -2 -40 0 -13 2 -5 4 17 4 22 1 32 -1 23 -4z m471 -21
c-5 -2 -9 -33 -9 -68 0 -36 -4 -63 -8 -60 -4 2 -7 33 -6 68 3 94 2 91 18 76 8
-7 10 -14 5 -16z m1311 18 c0 -5 -2 -10 -4 -10 -3 0 -8 5 -11 10 -3 6 -1 10 4
10 6 0 11 -4 11 -10z m-1860 -10 c12 -8 11 -10 -7 -10 -13 0 -23 5 -23 10 0
13 11 13 30 0z m930 0 c0 -5 -17 -9 -37 -9 l-38 2 35 7 c19 4 36 8 38 9 1 0 2
-3 2 -9z m30 6 c0 -3 -4 -8 -10 -11 -5 -3 -10 -1 -10 4 0 6 5 11 10 11 6 0 10
-2 10 -4z m105 -6 c-7 -12 -95 -9 -95 3 0 4 23 7 51 7 32 0 48 -4 44 -10z
m1522 4 c-3 -3 -12 -4 -19 -1 -8 3 -5 6 6 6 11 1 17 -2 13 -5z m-4990 -10 c-3
-3 -12 -4 -19 -1 -8 3 -5 6 6 6 11 1 17 -2 13 -5z m2179 -21 c-10 -10 -19 5
-10 18 6 11 8 11 12 0 2 -7 1 -15 -2 -18z m894 12 c0 -8 -2 -15 -4 -15 -2 0
-6 7 -10 15 -3 8 -1 15 4 15 6 0 10 -7 10 -15z m-1675 -5 c3 -5 1 -10 -4 -10
-6 0 -11 5 -11 10 0 6 2 10 4 10 3 0 8 -4 11 -10z m315 0 c0 -5 -5 -10 -11
-10 -5 0 -7 5 -4 10 3 6 8 10 11 10 2 0 4 -4 4 -10z m830 0 c0 -5 -4 -10 -10
-10 -5 0 -10 5 -10 10 0 6 5 10 10 10 6 0 10 -4 10 -10z m1550 0 c0 -5 -4 -10
-10 -10 -5 0 -10 5 -10 10 0 6 5 10 10 10 6 0 10 -4 10 -10z m810 0 c0 -5 -9
-10 -20 -10 -11 0 -20 5 -20 10 0 6 9 10 20 10 11 0 20 -4 20 -10z m-4886 -33
c8 -13 8 -20 0 -25 -6 -4 -13 -17 -16 -28 -4 -17 -2 -20 12 -17 10 3 21 0 24
-6 5 -7 -3 -11 -21 -11 -19 0 -24 -3 -15 -9 11 -6 10 -10 -4 -15 -20 -8 -21
-7 -24 19 -6 58 0 95 18 96 15 0 14 2 -3 10 -18 8 -18 9 -1 6 10 -1 24 -10 30
-20z m939 16 c-7 -2 -21 -2 -30 0 -10 3 -4 5 12 5 17 0 24 -2 18 -5z m1032
-31 c-6 -41 -18 -62 -38 -62 -11 0 -28 -7 -38 -16 -12 -11 -25 -13 -41 -8 -21
8 -20 9 12 15 34 6 33 6 -12 8 -38 1 -46 4 -42 16 4 10 22 15 58 16 40 1 46 3
26 9 -24 8 -23 8 8 9 17 1 32 6 32 11 0 6 6 17 13 24 14 16 25 4 22 -22z
m1470 28 c3 -5 -3 -10 -14 -10 -11 0 -23 5 -26 10 -3 6 3 10 14 10 11 0 23 -4
26 -10z m925 0 c0 -5 -5 -10 -11 -10 -5 0 -7 5 -4 10 3 6 8 10 11 10 2 0 4 -4
4 -10z m-2506 -12 c-3 -4 -11 -5 -19 -1 -21 7 -19 12 4 10 11 0 18 -5 15 -9z
m1516 -3 c0 -8 -2 -15 -4 -15 -2 0 -6 7 -10 15 -3 8 -1 15 4 15 6 0 10 -7 10
-15z m-2540 -10 c0 -8 -4 -15 -10 -15 -5 0 -10 7 -10 15 0 8 5 15 10 15 6 0
10 -7 10 -15z m110 0 c0 -10 -10 -15 -30 -15 -20 0 -30 5 -30 15 0 10 10 15
30 15 20 0 30 -5 30 -15z m717 -7 c-3 -8 -6 -5 -6 6 -1 11 2 17 5 13 3 -3 4
-12 1 -19z m870 0 c-3 -8 -6 -5 -6 6 -1 11 2 17 5 13 3 -3 4 -12 1 -19z m1063
8 c0 -10 13 -16 38 -19 20 -2 0 -4 -45 -5 -69 -2 -81 -4 -77 -17 7 -18 54 -20
54 -2 0 9 2 9 8 0 4 -6 28 -13 52 -16 25 -2 -28 -4 -118 -5 l-163 -2 12 22
c10 18 9 20 -5 15 -8 -3 -18 -2 -21 3 -4 6 17 10 49 10 31 0 56 -4 56 -10 0
-5 7 -10 15 -10 8 0 15 -4 15 -10 0 -5 9 -10 21 -10 28 0 19 25 -10 26 -12 1
-24 4 -28 8 -3 3 24 6 60 6 53 0 67 3 67 15 0 8 5 15 10 15 6 0 10 -6 10 -14z
m1037 -8 c-3 -8 -6 -5 -6 6 -1 11 2 17 5 13 3 -3 4 -12 1 -19z m-3224 -15 c-7
-2 -21 -2 -30 0 -10 3 -4 5 12 5 17 0 24 -2 18 -5z m880 0 c-7 -2 -21 -2 -30
0 -10 3 -4 5 12 5 17 0 24 -2 18 -5z m65 0 c-10 -2 -26 -2 -35 0 -10 3 -2 5
17 5 19 0 27 -2 18 -5z m792 3 c0 -3 -4 -8 -10 -11 -5 -3 -10 -1 -10 4 0 6 5
11 10 11 6 0 10 -2 10 -4z m170 -7 c0 -6 -14 -9 -32 -7 -34 3 -51 -17 -21 -25
13 -4 12 -5 -7 -7 -14 -1 -31 -2 -39 -1 -7 2 -10 -2 -7 -8 4 -5 1 -13 -5 -17
-8 -4 -9 -3 -5 4 4 7 1 12 -8 12 -11 0 -16 9 -16 30 l0 30 70 0 c43 0 70 -4
70 -11z m442 -1 c-9 -9 -15 -9 -24 0 -9 9 -7 12 12 12 19 0 21 -3 12 -12z
m-1999 -7 c31 -1 38 -4 35 -18 -2 -14 -11 -17 -36 -15 -25 3 -32 0 -33 -15 0
-10 -3 -13 -6 -5 -2 6 -12 12 -21 12 -11 0 -17 8 -17 24 0 17 5 22 20 21 11
-1 37 -3 58 -4z m517 -16 c0 -11 -29 -13 -139 -13 -113 0 -139 3 -134 14 9 25
273 24 273 -1z m2310 11 c0 -14 -29 -30 -38 -21 -3 3 0 5 6 5 7 0 12 7 12 15
0 8 5 15 10 15 6 0 10 -6 10 -14z m300 10 c0 -11 -13 -36 -19 -36 -4 0 -7 9
-7 20 0 11 6 20 13 20 7 0 13 -2 13 -4z m-4533 -28 c-3 -8 -6 -5 -6 6 -1 11 2
17 5 13 3 -3 4 -12 1 -19z m393 7 c0 -17 -2 -18 -24 -9 -23 9 -20 24 4 24 11
0 20 -7 20 -15z m230 5 c0 -5 -4 -10 -10 -10 -5 0 -10 5 -10 10 0 6 5 10 10
10 6 0 10 -4 10 -10z m1629 -37 c-2 -58 -7 -83 -19 -83 -8 0 -7 15 4 63 3 12
3 16 0 10 -3 -7 -12 -13 -20 -13 -9 0 -12 5 -9 10 3 6 2 10 -3 10 -17 0 -8 26
10 27 11 1 16 -3 12 -9 -4 -7 -2 -8 4 -4 7 4 12 14 12 22 0 8 2 14 5 14 3 0 5
-21 4 -47z m1106 38 c-3 -5 3 -12 12 -14 14 -4 13 -5 -4 -6 -14 -1 -23 5 -23
14 0 8 5 15 11 15 5 0 8 -4 4 -9z m375 -1 c0 -5 -7 -10 -15 -10 -8 0 -15 5
-15 10 0 6 7 10 15 10 8 0 15 -4 15 -10z m30 0 c0 -5 -4 -10 -10 -10 -5 0 -10
5 -10 10 0 6 5 10 10 10 6 0 10 -4 10 -10z m50 0 c0 -5 -4 -10 -10 -10 -5 0
-10 5 -10 10 0 6 5 10 10 10 6 0 10 -4 10 -10z m-1823 -16 c-3 -3 -12 -4 -19
-1 -8 3 -5 6 6 6 11 1 17 -2 13 -5z m970 0 c-3 -3 -12 -4 -19 -1 -8 3 -5 6 6
6 11 1 17 -2 13 -5z m1337 -9 c3 -9 0 -15 -9 -15 -8 0 -15 7 -15 15 0 8 4 15
9 15 5 0 11 -7 15 -15z m193 9 c-3 -3 -12 -4 -19 -1 -8 3 -5 6 6 6 11 1 17 -2
13 -5z m-604 -11 c-7 -2 -19 -2 -25 0 -7 3 -2 5 12 5 14 0 19 -2 13 -5z m462
-3 c3 -5 1 -10 -4 -10 -6 0 -11 5 -11 10 0 6 2 10 4 10 3 0 8 -4 11 -10z
m-2885 -10 c0 -5 -2 -10 -4 -10 -3 0 -8 5 -11 10 -3 6 -1 10 4 10 6 0 11 -4
11 -10z m240 -10 c26 -26 25 -35 -2 -46 -34 -15 -68 -6 -61 14 6 17 33 52 40
52 1 0 12 -9 23 -20z m1310 10 c0 -5 -4 -10 -9 -10 -6 0 -13 5 -16 10 -3 6 1
10 9 10 9 0 16 -4 16 -10z m230 -2 c0 -4 -48 -8 -106 -8 -58 0 -103 4 -100 9
7 11 206 10 206 -1z m59 3 c9 -6 6 -8 -13 -8 -14 0 -23 3 -20 8 7 11 15 11 33
0z m-1246 -8 c-7 -2 -19 -2 -25 0 -7 3 -2 5 12 5 14 0 19 -2 13 -5z m1460 0
c-7 -2 -19 -2 -25 0 -7 3 -2 5 12 5 14 0 19 -2 13 -5z m54 1 c-3 -3 -12 -4
-19 -1 -8 3 -5 6 6 6 11 1 17 -2 13 -5z m326 -1 c-7 -2 -21 -2 -30 0 -10 3 -4
5 12 5 17 0 24 -2 18 -5z m-2833 -23 c0 -11 -2 -20 -4 -20 -2 0 -6 9 -9 20 -3
11 -1 20 4 20 5 0 9 -9 9 -20z m3283 0 c-3 -11 -7 -20 -9 -20 -2 0 -4 9 -4 20
0 11 4 20 9 20 5 0 7 -9 4 -20z m145 -19 c-1 -32 -4 -37 -19 -34 -16 5 -16 7
-4 20 8 8 15 23 15 34 0 10 2 19 5 19 3 0 4 -17 3 -39z m-3112 14 c-1 -8 -8
-21 -15 -28 -9 -9 -14 -9 -21 3 -16 25 -11 40 14 40 16 0 23 -5 22 -15z m41
-17 c-3 -7 -5 -2 -5 12 0 14 2 19 5 13 2 -7 2 -19 0 -25z m503 17 c0 -8 -4
-15 -10 -15 -5 0 -10 7 -10 15 0 8 5 15 10 15 6 0 10 -7 10 -15z m70 0 c0 -8
-9 -15 -20 -15 -11 0 -20 7 -20 15 0 8 9 15 20 15 11 0 20 -7 20 -15z m47 -7
c-3 -8 -6 -5 -6 6 -1 11 2 17 5 13 3 -3 4 -12 1 -19z m1013 8 c0 -8 -4 -18
-10 -21 -5 -3 -10 3 -10 14 0 12 5 21 10 21 6 0 10 -6 10 -14z m30 -6 c0 -11
-4 -20 -9 -20 -5 0 -7 9 -4 20 3 11 7 20 9 20 2 0 4 -9 4 -20z m80 5 c0 -8 -7
-15 -15 -15 -8 0 -15 7 -15 15 0 8 7 15 15 15 8 0 15 -7 15 -15z m80 -4 c0
-15 -7 -19 -35 -18 -27 1 -35 5 -35 19 0 14 8 18 35 18 28 0 35 -4 35 -19z
m71 7 c0 -10 2 -10 6 0 7 18 23 15 23 -6 0 -14 -8 -17 -38 -17 -32 0 -38 3
-34 17 5 20 42 25 43 6z m236 -10 c-3 -8 -6 -5 -6 6 -1 11 2 17 5 13 3 -3 4
-12 1 -19z m33 7 c0 -8 -4 -15 -10 -15 -5 0 -10 7 -10 15 0 8 5 15 10 15 6 0
10 -7 10 -15z m947 -21 c-3 -3 -12 -4 -19 -1 -8 3 -5 6 6 6 11 1 17 -2 13 -5z
m-3037 -25 c0 -4 -7 -6 -15 -3 -8 4 -15 10 -15 15 0 4 7 6 15 3 8 -4 15 -10
15 -15z m378 9 c-5 -14 -57 -30 -71 -21 -6 3 5 12 24 18 45 17 51 17 47 3z
m2019 6 c-3 -3 -12 -4 -19 -1 -8 3 -5 6 6 6 11 1 17 -2 13 -5z m-1794 -11 c-7
-2 -21 -2 -30 0 -10 3 -4 5 12 5 17 0 24 -2 18 -5z m780 0 c-7 -2 -19 -2 -25
0 -7 3 -2 5 12 5 14 0 19 -2 13 -5z m160 0 c-7 -2 -19 -2 -25 0 -7 3 -2 5 12
5 14 0 19 -2 13 -5z m105 0 c-15 -2 -42 -2 -60 0 -18 2 -6 4 27 4 33 0 48 -2
33 -4z m109 1 c-3 -3 -12 -4 -19 -1 -8 3 -5 6 6 6 11 1 17 -2 13 -5z m160 0
c-3 -3 -12 -4 -19 -1 -8 3 -5 6 6 6 11 1 17 -2 13 -5z m1108 -14 c3 -5 1 -10
-4 -10 -6 0 -11 5 -11 10 0 6 2 10 4 10 3 0 8 -4 11 -10z m-85 -20 c0 -5 -2
-10 -4 -10 -3 0 -8 5 -11 10 -3 6 -1 10 4 10 6 0 11 -4 11 -10z m135 -30 c-5
-8 -11 -8 -17 -2 -6 6 -7 16 -3 22 5 8 11 8 17 2 6 -6 7 -16 3 -22z m-4833
-25 c-2 -14 -6 -25 -8 -25 -2 0 -4 11 -4 25 0 14 4 25 9 25 4 0 6 -11 3 -25z
m140 -9 c-3 -28 0 -34 20 -40 19 -5 20 -8 8 -16 -33 -22 -45 -12 -46 40 0 31
4 50 11 50 7 0 9 -13 7 -34z m964 -25 c-9 -10 -17 -26 -17 -37 -1 -12 -4 -7
-9 11 -14 56 -12 73 13 77 28 4 35 -26 13 -51z m-426 30 c0 -11 -4 -23 -10
-26 -6 -4 -10 5 -10 19 0 14 5 26 10 26 6 0 10 -9 10 -19z m27 -13 c-3 -7 -5
-2 -5 12 0 14 2 19 5 13 2 -7 2 -19 0 -25z m794 -43 l-4 -30 -7 26 c-4 15 -5
40 -2 55 l6 29 6 -25 c3 -14 4 -38 1 -55z m1971 33 c-6 -6 -7 0 -4 19 5 21 7
23 10 9 2 -10 0 -22 -6 -28z m266 10 c-3 -29 0 -33 20 -31 30 4 28 -15 -3 -23
-34 -9 -38 -3 -30 45 8 49 18 55 13 9z m309 -3 c-3 -45 -17 -45 -17 0 0 19 4
35 10 35 5 0 9 -16 7 -35z m343 18 c0 -10 -5 -25 -10 -33 -7 -11 -10 -7 -10
18 0 17 5 32 10 32 6 0 10 -8 10 -17z m300 0 c0 -10 -5 -25 -10 -33 -7 -11
-10 -7 -10 18 0 17 5 32 10 32 6 0 10 -8 10 -17z m-2810 -43 c0 -17 -2 -19
-14 -8 -14 13 -12 28 5 28 5 0 9 -9 9 -20z m120 10 c0 -5 -5 -10 -11 -10 -5 0
-7 5 -4 10 3 6 8 10 11 10 2 0 4 -4 4 -10z m-2050 -14 c0 -15 -24 -28 -34 -19
-13 14 -5 33 14 33 11 0 20 -6 20 -14z m971 -3 c13 -16 12 -17 -3 -4 -10 7
-18 15 -18 17 0 8 8 3 21 -13z m1249 -4 c0 -5 -4 -9 -10 -9 -5 0 -10 7 -10 16
0 8 5 12 10 9 6 -3 10 -10 10 -16z m320 -11 c0 -36 -4 -35 -14 5 -4 16 -2 27
4 27 5 0 10 -14 10 -32z m1030 10 c0 -19 -2 -20 -10 -8 -13 19 -13 30 0 30 6
0 10 -10 10 -22z m-440 -4 c0 -8 -4 -12 -10 -9 -5 3 -10 10 -10 16 0 5 5 9 10
9 6 0 10 -7 10 -16z m270 1 c0 -9 10 -15 23 -16 21 -1 21 -1 -3 -8 -25 -7 -54
14 -44 31 9 14 24 9 24 -7z m-2875 -15 c3 -5 -1 -10 -9 -10 -9 0 -16 5 -16 10
0 6 4 10 9 10 6 0 13 -4 16 -10z m45 2 c0 -13 -12 -22 -22 -16 -10 6 -1 24 13
24 5 0 9 -4 9 -8z m222 -7 c0 -5 -5 -11 -11 -13 -6 -2 -11 4 -11 13 0 9 5 15
11 13 6 -2 11 -8 11 -13z m82 0 c-6 -16 -34 -21 -34 -7 0 13 11 22 26 22 8 0
11 -6 8 -15z m3416 5 c0 -5 -4 -10 -10 -10 -5 0 -10 5 -10 10 0 6 5 10 10 10
6 0 10 -4 10 -10z m-4112 -13 c6 0 12 -10 12 -23 0 -17 7 -23 34 -26 42 -5 81
5 102 26 20 21 34 20 34 -1 0 -15 2 -16 10 -3 9 13 11 13 19 1 6 -9 33 -16 78
-18 40 -2 72 -9 78 -17 15 -19 79 -32 73 -15 -2 7 -15 16 -29 20 -17 5 -9 7
28 8 34 1 57 -4 67 -14 11 -11 39 -15 112 -15 118 0 117 17 -1 23 -44 2 1 2
100 0 99 -3 182 -9 185 -13 3 -5 64 -11 135 -14 72 -3 122 -3 113 0 -24 7 -23
24 2 24 13 0 20 -7 20 -20 0 -20 -7 -20 -486 -18 -406 1 -488 -1 -496 -13 -7
-11 -11 -11 -15 -1 -3 8 -37 12 -116 13 -62 0 -130 4 -152 8 l-40 9 53 1 c38
1 52 5 49 14 -2 6 -12 11 -21 9 -16 -3 -16 -2 -1 22 9 14 13 31 9 37 -5 9 -2
10 12 5 10 -5 25 -9 32 -9z m1252 3 c0 -5 -4 -10 -10 -10 -5 0 -10 5 -10 10 0
6 5 10 10 10 6 0 10 -4 10 -10z m3230 0 c0 -5 -5 -10 -11 -10 -5 0 -7 5 -4 10
3 6 8 10 11 10 2 0 4 -4 4 -10z m-770 -4 c0 -3 -4 -8 -10 -11 -5 -3 -10 -1
-10 4 0 6 5 11 10 11 6 0 10 -2 10 -4z m532 -38 c-13 -13 -24 5 -16 27 7 16 8
16 17 0 6 -11 6 -20 -1 -27z m-942 11 c0 -5 -9 -9 -20 -9 -22 0 -27 16 -7 23
15 5 27 -1 27 -14z m110 -9 c22 -26 27 -54 8 -47 -7 2 -13 12 -13 23 0 14 -7
19 -28 19 -19 -1 -27 4 -27 17 0 25 34 18 60 -12z m197 8 c-3 -8 -6 -5 -6 6
-1 11 2 17 5 13 3 -3 4 -12 1 -19z m-3706 -21 c-16 -16 -25 -1 -10 16 8 8 16
11 18 5 2 -5 -2 -15 -8 -21z m639 23 c0 -5 -9 -10 -20 -10 -11 0 -20 5 -20 10
0 6 9 10 20 10 11 0 20 -4 20 -10z m884 -23 c7 -6 4 -7 -6 -3 -12 3 -18 0 -18
-9 0 -9 -11 -16 -27 -17 -16 -1 17 -5 72 -8 l100 -6 -101 -2 c-135 -3 -196 6
-192 27 3 13 16 16 65 16 48 0 65 4 75 18 9 13 14 14 17 5 2 -7 9 -17 15 -21z
m1413 11 c-3 -8 -6 -5 -6 6 -1 11 2 17 5 13 3 -3 4 -12 1 -19z m349 8 c16 -17
19 -46 4 -46 -5 0 -10 4 -10 9 0 5 -9 13 -20 16 -24 7 -27 35 -4 35 8 0 22 -6
30 -14z m348 -1 c3 -8 1 -15 -4 -15 -6 0 -10 7 -10 15 0 8 2 15 4 15 2 0 6 -7
10 -15z m563 -7 c-3 -8 -6 -5 -6 6 -1 11 2 17 5 13 3 -3 4 -12 1 -19z m113 12
c0 -5 -4 -10 -10 -10 -5 0 -10 5 -10 10 0 6 5 10 10 10 6 0 10 -4 10 -10z
m-2437 -25 c10 -4 16 -13 13 -21 -3 -8 5 -14 22 -16 15 -2 -6 -4 -45 -5 -40
-1 -75 3 -79 8 -3 5 -14 7 -25 4 -14 -5 -19 -2 -19 14 0 17 8 20 48 23 56 4
62 3 85 -7z m167 6 c7 11 12 11 22 1 14 -14 32 -16 23 -2 -3 6 3 10 14 10 12
0 21 -4 21 -10 0 -5 -5 -10 -11 -10 -5 0 -7 -4 -4 -10 3 -5 18 -10 33 -10 15
0 34 -5 42 -11 11 -8 -10 -9 -75 -4 -120 8 -166 16 -159 26 3 5 -1 10 -8 10
-7 1 5 5 27 8 22 4 46 2 53 -3 9 -7 16 -5 22 5z m110 -1 c0 -5 -4 -10 -10 -10
-5 0 -10 5 -10 10 0 6 5 10 10 10 6 0 10 -4 10 -10z m40 -6 c0 -2 -7 -4 -15
-4 -8 0 -15 4 -15 10 0 5 7 7 15 4 8 -4 15 -8 15 -10z m521 -2 c-7 -2 -18 1
-23 6 -8 8 -4 9 13 5 13 -4 18 -8 10 -11z m313 12 c8 -3 12 -12 9 -20 -7 -18
-21 -18 -39 0 -11 11 -11 16 -1 19 6 3 13 6 14 6 1 1 8 -2 17 -5z m716 -4 c0
-5 -2 -10 -4 -10 -3 0 -8 5 -11 10 -3 6 -1 10 4 10 6 0 11 -4 11 -10z m965 0
c-3 -5 -10 -10 -16 -10 -5 0 -9 5 -9 10 0 6 7 10 16 10 8 0 12 -4 9 -10z
m-2409 -19 c0 -12 -6 -17 -18 -13 -19 5 -23 14 -11 25 13 13 29 7 29 -12z m47
12 c-7 -2 -19 -2 -25 0 -7 3 -2 5 12 5 14 0 19 -2 13 -5z m1471 1 c23 -9 20
-24 -4 -24 -11 0 -20 6 -20 13 0 9 -2 9 -8 1 -5 -9 -11 -8 -20 2 -11 12 -9 14
12 14 13 0 31 -3 40 -6z m206 -9 c0 -8 -4 -15 -10 -15 -5 0 -10 7 -10 15 0 8
5 15 10 15 6 0 10 -7 10 -15z m98 0 c11 -11 -18 -22 -44 -17 -37 7 -31 32 7
27 17 -2 34 -7 37 -10z m-2818 -10 c0 -8 -4 -15 -10 -15 -5 0 -10 7 -10 15 0
8 5 15 10 15 6 0 10 -7 10 -15z m34 0 c3 -8 1 -15 -4 -15 -6 0 -10 7 -10 15 0
8 2 15 4 15 2 0 6 -7 10 -15z m2824 4 c-2 -6 -8 -10 -13 -10 -5 0 -11 4 -13
10 -2 6 4 11 13 11 9 0 15 -5 13 -11z m-4201 -15 c-3 -3 -12 -4 -19 -1 -8 3
-5 6 6 6 11 1 17 -2 13 -5z m2513 -4 c21 -7 19 -8 -15 -8 -22 0 -62 3 -90 8
l-50 7 65 1 c36 0 76 -4 90 -8z m1480 0 c0 -5 -4 -10 -10 -10 -5 0 -10 5 -10
10 0 6 5 10 10 10 6 0 10 -4 10 -10z m-1163 -7 c-20 -2 -52 -2 -70 0 -17 2 0
4 38 4 39 0 53 -2 32 -4z m216 0 c-7 -2 -19 -2 -25 0 -7 3 -2 5 12 5 14 0 19
-2 13 -5z"/>
<path d="M2438 3193 c7 -3 16 -2 19 1 4 3 -2 6 -13 5 -11 0 -14 -3 -6 -6z"/>
<path d="M2432 2920 c0 -14 2 -19 5 -12 2 6 2 18 0 25 -3 6 -5 1 -5 -13z"/>
<path d="M2302 2900 c0 -19 2 -27 5 -17 2 9 2 25 0 35 -3 9 -5 1 -5 -18z"/>
<path d="M2461 2794 c0 -11 3 -14 6 -6 3 7 2 16 -1 19 -3 4 -6 -2 -5 -13z"/>
<path d="M3605 2770 c-3 -5 1 -10 9 -10 9 0 16 5 16 10 0 6 -4 10 -9 10 -6 0
-13 -4 -16 -10z"/>
<path d="M3393 2763 c-18 -7 -16 -23 2 -23 8 0 15 7 15 15 0 8 -1 15 -2 14 -2
0 -9 -3 -15 -6z"/>
<path d="M3430 2753 c0 -11 3 -14 8 -7 4 6 14 14 22 17 10 4 8 6 -7 6 -16 1
-23 -5 -23 -16z"/>
<path d="M3548 2763 c6 -2 18 -2 25 0 6 3 1 5 -13 5 -14 0 -19 -2 -12 -5z"/>
<path d="M3320 2750 c0 -5 9 -10 20 -10 11 0 20 5 20 10 0 6 -9 10 -20 10 -11
0 -20 -4 -20 -10z"/>
<path d="M3510 2735 c0 -7 30 -13 34 -7 3 4 -4 9 -15 9 -10 1 -19 0 -19 -2z"/>
<path d="M651 2634 c0 -11 3 -14 6 -6 3 7 2 16 -1 19 -3 4 -6 -2 -5 -13z"/>
<path d="M701 2594 c0 -11 3 -14 6 -6 3 7 2 16 -1 19 -3 4 -6 -2 -5 -13z"/>
<path d="M1123 2073 c15 -2 37 -2 50 0 12 2 0 4 -28 4 -27 0 -38 -2 -22 -4z"/>
<path d="M1108 2053 c17 -2 47 -2 65 0 17 2 3 4 -33 4 -36 0 -50 -2 -32 -4z"/>
<path d="M1117 2014 c3 -8 12 -13 20 -10 8 3 30 6 49 6 19 0 34 5 34 10 0 6
-25 10 -55 10 -45 0 -53 -3 -48 -16z"/>
<path d="M1225 1960 c-3 -5 -1 -10 4 -10 6 0 11 5 11 10 0 6 -2 10 -4 10 -3 0
-8 -4 -11 -10z"/>
<path d="M1323 1953 c9 -2 25 -2 35 0 9 3 1 5 -18 5 -19 0 -27 -2 -17 -5z"/>
<path d="M1193 1933 c9 -2 25 -2 35 0 9 3 1 5 -18 5 -19 0 -27 -2 -17 -5z"/>
<path d="M1203 1823 c9 -2 25 -2 35 0 9 3 1 5 -18 5 -19 0 -27 -2 -17 -5z"/>
<path d="M1266 1784 c-8 -21 -8 -34 2 -34 4 0 8 11 8 25 2 29 -1 32 -10 9z"/>
<path d="M1260 1730 c0 -5 14 -10 30 -10 17 0 30 5 30 10 0 6 -13 10 -30 10
-16 0 -30 -4 -30 -10z"/>
<path d="M1087 1673 c-3 -5 18 -7 46 -5 92 5 104 9 30 11 -39 0 -74 -2 -76 -6z"/>
<path d="M1160 1650 c10 -6 2 -10 -30 -13 l-45 -4 44 1 c26 1 46 6 49 14 2 6
-4 12 -15 12 -15 0 -15 -2 -3 -10z"/>
<path d="M1191 1644 c0 -11 3 -14 6 -6 3 7 2 16 -1 19 -3 4 -6 -2 -5 -13z"/>
<path d="M1210 1650 c0 -5 9 -10 20 -10 11 0 20 5 20 10 0 6 -9 10 -20 10 -11
0 -20 -4 -20 -10z"/>
<path d="M1158 1613 c12 -2 30 -2 40 0 9 3 -1 5 -23 4 -22 0 -30 -2 -17 -4z"/>
<path d="M1228 1613 c7 -3 16 -2 19 1 4 3 -2 6 -13 5 -11 0 -14 -3 -6 -6z"/>
<path d="M1150 1535 c0 -11 12 -15 50 -15 38 0 50 4 50 15 0 11 -12 15 -50 15
-38 0 -50 -4 -50 -15z"/>
<path d="M1148 1503 c18 -2 45 -2 60 0 15 2 0 4 -33 4 -33 0 -45 -2 -27 -4z"/>
<path d="M1260 1485 c0 -25 1 -25 73 -23 l72 1 -64 6 c-62 6 -64 7 -47 24 17
16 16 17 -8 17 -21 0 -26 -5 -26 -25z"/>
<path d="M1118 1463 c6 -2 18 -2 25 0 6 3 1 5 -13 5 -14 0 -19 -2 -12 -5z"/>
<path d="M1283 1443 c15 -2 37 -2 50 0 12 2 0 4 -28 4 -27 0 -38 -2 -22 -4z"/>
<path d="M1120 1418 c0 -7 5 -20 10 -28 8 -12 10 -9 10 13 0 15 -4 27 -10 27
-5 0 -10 -6 -10 -12z"/>
<path d="M1150 1415 c0 -8 5 -15 10 -15 6 0 10 7 10 15 0 8 -4 15 -10 15 -5 0
-10 -7 -10 -15z"/>
<path d="M3470 2191 c0 -5 -12 -12 -27 -14 -26 -4 -26 -4 5 -6 22 -1 32 3 32
14 0 8 -2 15 -5 15 -3 0 -5 -4 -5 -9z"/>
<path d="M1570 2020 c0 -27 2 -50 5 -50 8 0 24 72 18 86 -11 30 -23 12 -23
-36z"/>
<path d="M1600 2060 c0 -5 7 -7 15 -4 8 4 15 8 15 10 0 2 -7 4 -15 4 -8 0 -15
-4 -15 -10z"/>
<path d="M1600 1995 c0 -22 5 -35 13 -35 9 0 12 11 9 35 -2 19 -8 35 -13 35
-5 0 -9 -16 -9 -35z"/>
<path d="M1603 1887 c-2 -43 0 -58 7 -47 10 16 11 110 1 110 -3 0 -7 -28 -8
-63z"/>
<path d="M1570 1910 c0 -11 5 -20 10 -20 6 0 10 9 10 20 0 11 -4 20 -10 20 -5
0 -10 -9 -10 -20z"/>
<path d="M1570 1850 c0 -11 5 -20 10 -20 6 0 10 9 10 20 0 11 -4 20 -10 20 -5
0 -10 -9 -10 -20z"/>
<path d="M1600 1810 c0 -5 5 -10 10 -10 6 0 10 5 10 10 0 6 -4 10 -10 10 -5 0
-10 -4 -10 -10z"/>
<path d="M1570 1748 c1 -35 4 -48 9 -38 11 18 10 90 -1 90 -4 0 -8 -24 -8 -52z"/>
<path d="M1605 1750 c-3 -5 -1 -10 4 -10 6 0 11 5 11 10 0 6 -2 10 -4 10 -3 0
-8 -4 -11 -10z"/>
<path d="M1600 1704 c0 -8 5 -12 10 -9 6 3 10 10 10 16 0 5 -4 9 -10 9 -5 0
-10 -7 -10 -16z"/>
<path d="M1600 1615 c0 -36 4 -65 8 -65 5 0 9 29 9 65 0 36 -3 65 -8 65 -5 0
-9 -29 -9 -65z"/>
<path d="M1570 1645 c0 -8 5 -15 10 -15 6 0 10 7 10 15 0 8 -4 15 -10 15 -5 0
-10 -7 -10 -15z"/>
<path d="M1570 1560 c0 -5 5 -10 10 -10 6 0 10 5 10 10 0 6 -4 10 -10 10 -5 0
-10 -4 -10 -10z"/>
<path d="M2710 1900 c0 -5 18 -10 40 -10 42 0 58 -24 23 -33 -16 -4 -16 -5 0
-6 11 -1 21 7 24 19 4 14 14 20 34 20 37 0 37 -15 2 -28 -21 -8 -23 -10 -8
-10 28 1 84 15 63 17 -34 2 -18 21 17 21 19 0 35 5 35 10 0 6 -45 10 -115 10
-70 0 -115 -4 -115 -10z"/>
<path d="M2918 1863 c7 -3 16 -2 19 1 4 3 -2 6 -13 5 -11 0 -14 -3 -6 -6z"/>
<path d="M2908 1833 c6 -2 18 -2 25 0 6 3 1 5 -13 5 -14 0 -19 -2 -12 -5z"/>
<path d="M662 1840 c0 -14 2 -19 5 -12 2 6 2 18 0 25 -3 6 -5 1 -5 -13z"/>
<path d="M542 1780 c0 -14 2 -19 5 -12 2 6 2 18 0 25 -3 6 -5 1 -5 -13z"/>
<path d="M560 1790 c0 -5 5 -10 10 -10 6 0 10 5 10 10 0 6 -4 10 -10 10 -5 0
-10 -4 -10 -10z"/>
<path d="M592 1780 c0 -14 2 -19 5 -12 2 6 2 18 0 25 -3 6 -5 1 -5 -13z"/>
<path d="M2778 1503 c7 -3 16 -2 19 1 4 3 -2 6 -13 5 -11 0 -14 -3 -6 -6z"/>
<path d="M3277 1503 c-13 -12 -7 -23 13 -23 13 0 18 5 14 15 -7 16 -17 19 -27
8z"/>
<path d="M321 1124 c0 -11 3 -14 6 -6 3 7 2 16 -1 19 -3 4 -6 -2 -5 -13z"/>
<path d="M480 1125 c0 -8 9 -15 20 -15 11 0 20 7 20 15 0 8 -9 15 -20 15 -11
0 -20 -7 -20 -15z"/>
</g>
</svg>
