<?xml version="1.0" standalone="no"?>
<!DOCTYPE svg PUBLIC "-//W3C//DTD SVG 20010904//EN"
 "http://www.w3.org/TR/2001/REC-SVG-20010904/DTD/svg10.dtd">
<svg version="1.0" xmlns="http://www.w3.org/2000/svg"
 width="338.000000pt" height="225.000000pt" viewBox="0 0 338.000000 225.000000"
 preserveAspectRatio="xMidYMid meet">

<g transform="translate(0.000000,225.000000) scale(0.100000,-0.100000)"
fill="#1c5375" stroke="none">
<path d="M0 1331 c0 -843 1 -919 16 -925 9 -4 19 -4 22 -1 3 3 0 5 -7 5 -22 0
-1 20 22 21 19 1 18 2 -8 14 -28 12 -29 13 -7 16 29 5 28 25 -1 22 -12 -1 -16
0 -10 3 16 7 17 81 1 86 -31 11 31 42 125 62 21 5 27 12 28 34 1 26 1 26 10
-5 15 -50 29 -39 29 22 0 54 0 54 -35 61 -32 6 -50 24 -24 24 7 0 9 10 7 25
-4 17 -1 25 8 25 8 0 14 10 14 24 0 15 7 26 17 29 14 4 14 5 -3 6 -18 1 -21 6
-19 34 l2 32 69 3 c38 2 127 9 197 16 70 6 130 10 132 7 3 -2 5 -29 5 -58 0
-37 -4 -53 -12 -52 -7 1 -27 1 -43 0 -29 -1 -31 -3 -27 -37 4 -34 6 -35 41
-32 26 2 36 -1 36 -12 0 -9 -21 -19 -60 -29 -47 -12 -54 -16 -33 -19 27 -3 27
-5 27 -70 0 -37 0 -70 0 -74 1 -4 14 -3 31 2 18 5 30 5 30 -1 0 -5 9 -9 20 -9
11 0 20 4 20 9 0 4 10 6 23 4 12 -2 42 0 67 6 28 6 49 6 55 0 5 -5 23 -8 40
-8 16 1 22 3 13 6 -22 6 -23 17 -3 33 10 9 15 9 15 1 0 -7 20 -11 51 -11 48 0
51 1 47 23 -11 49 -37 184 -43 218 l-5 36 -45 -5 -45 -5 0 41 0 40 41 -5 c23
-3 44 -2 48 3 3 5 83 8 183 6 176 -4 178 -4 173 -25 -2 -12 -6 -58 -9 -102 -2
-44 -8 -89 -12 -99 -5 -12 -4 -17 3 -13 6 4 5 -15 -3 -51 -17 -71 -17 -72 0
-72 7 0 19 -7 26 -15 7 -9 19 -14 27 -11 8 3 11 1 8 -4 -3 -6 3 -10 14 -10 12
0 21 -4 21 -10 0 -5 22 -10 49 -10 28 0 53 -4 56 -10 5 -9 -16 -14 -52 -13 -7
1 -10 -3 -7 -8 3 -5 14 -9 25 -9 10 0 19 -3 19 -8 0 -4 17 -7 38 -7 21 0 63
-8 93 -17 30 -10 105 -29 168 -43 275 -64 285 -65 396 -49 73 11 151 4 148
-13 -2 -8 12 -12 45 -11 50 2 175 -22 155 -29 -7 -3 -36 0 -63 6 -80 17 -120
15 -120 -8 0 -21 19 -31 56 -31 51 0 29 -14 -131 -85 -16 -7 -47 -20 -67 -29
-38 -15 -51 -36 -22 -36 8 0 54 11 102 24 48 14 108 27 134 31 26 3 54 12 62
20 7 8 16 11 19 8 8 -7 67 17 67 27 0 4 12 12 26 18 40 19 18 -4 -43 -45 -31
-20 -52 -38 -47 -40 5 -1 41 -9 81 -16 82 -16 83 -15 83 58 0 24 4 55 10 69 9
25 8 26 -50 38 -36 7 -60 17 -60 25 0 16 1 16 37 3 25 -10 23 -7 -14 27 l-42
38 97 22 c243 57 234 56 254 31 18 -23 18 -23 12 22 -3 25 -10 63 -15 85 -5
22 -12 109 -16 194 l-6 154 34 -7 c94 -19 269 -36 396 -39 l141 -2 -3 -25 c-2
-14 -4 -25 -5 -25 -1 0 -4 -13 -6 -30 -3 -16 -9 -55 -15 -85 -5 -30 -12 -68
-14 -83 -3 -15 -9 -37 -15 -48 -6 -10 -9 -23 -6 -27 3 -5 -2 -28 -11 -53 -8
-24 -17 -59 -18 -77 -2 -19 -11 -42 -20 -52 -17 -18 -15 -19 41 -22 58 -3 59
-4 29 -16 -16 -7 -43 -19 -60 -27 -16 -7 -54 -22 -82 -32 -70 -24 -77 -43 -16
-43 30 0 54 6 66 17 11 10 17 13 14 6 -4 -6 -9 -58 -11 -116 l-4 -105 31 -10
32 -10 -40 -2 -40 -2 35 -9 c19 -5 59 -12 88 -15 l52 -4 0 1125 0 1125 -1690
0 -1690 0 0 -919z m2496 725 c23 -17 23 -57 -1 -581 -8 -181 -19 -458 -26
-615 -14 -348 -7 -332 -129 -309 -77 15 -80 15 -80 -3 0 -14 -5 -18 -17 -14
-19 5 -97 18 -123 21 -8 0 -54 10 -102 20 -70 16 -88 23 -88 37 0 10 -3 18 -6
18 -33 0 -650 123 -661 131 -9 8 -13 40 -13 114 0 73 -4 105 -12 108 -10 4
-10 7 -1 14 16 11 21 105 33 584 5 207 12 384 16 393 3 9 16 19 28 22 17 4
827 56 1137 73 14 0 34 -5 45 -13z m-1419 -913 c-2 -16 -4 -5 -4 22 0 28 2 40
4 28 2 -13 2 -35 0 -50z m-432 -150 c-4 -10 -7 -42 -6 -70 1 -33 -2 -53 -9
-53 -6 0 -10 -6 -9 -12 4 -31 -4 -40 -11 -13 -12 48 -11 124 2 145 16 25 43
27 33 3z m68 0 c47 -2 68 -25 64 -73 -2 -33 -4 -35 -39 -38 -33 -3 -38 -7 -38
-28 0 -13 -2 -24 -4 -24 -2 0 -11 -3 -19 -6 -10 -3 -16 3 -19 21 -4 19 -2 23
7 15 9 -8 14 -5 18 9 3 11 2 20 -2 19 -24 -3 -31 6 -31 40 0 45 11 87 19 75 3
-5 23 -9 44 -10z m347 7 c0 -5 -7 -10 -15 -10 -8 0 -15 5 -15 10 0 6 7 10 15
10 8 0 15 -4 15 -10z m120 -6 c-9 -15 -40 -15 -40 1 0 10 8 14 23 11 12 -1 20
-7 17 -12z m-217 -1 c-7 -2 -19 -2 -25 0 -7 3 -2 5 12 5 14 0 19 -2 13 -5z
m47 -3 c0 -5 -7 -10 -16 -10 -8 0 -12 5 -9 10 3 6 10 10 16 10 5 0 9 -4 9 -10z
m-430 -162 c0 -10 -9 -9 -35 2 -17 8 -16 8 8 7 15 -1 27 -5 27 -9z m148 -25
c-1 -10 4 -37 11 -60 14 -42 8 -99 -9 -88 -5 3 -11 1 -14 -4 -8 -12 -59 -21
-85 -14 -19 5 -21 12 -21 84 0 89 2 91 79 97 34 2 40 0 39 -15z m1402 -285
c30 -17 78 -44 105 -59 28 -16 44 -29 38 -29 -7 0 -52 23 -100 50 -103 59
-126 67 -159 51 -14 -6 -33 -11 -42 -10 -24 0 48 26 78 28 14 0 50 -13 80 -31z
m280 -70 c0 -7 -6 -4 -12 7 -6 11 -14 22 -17 25 -3 3 -15 16 -25 30 -11 14 -3
8 17 -12 21 -21 37 -43 37 -50z m-77 -25 c-7 -2 -21 -2 -30 0 -10 3 -4 5 12 5
17 0 24 -2 18 -5z m100 0 c-7 -2 -19 -2 -25 0 -7 3 -2 5 12 5 14 0 19 -2 13
-5z m54 -99 c-3 -3 -12 -4 -19 -1 -8 3 -5 6 6 6 11 1 17 -2 13 -5z"/>
<path d="M1955 2020 c-644 -40 -644 -40 -654 -59 -14 -27 -35 -931 -22 -944 6
-6 87 -21 179 -34 92 -12 232 -32 312 -42 80 -11 249 -34 375 -51 127 -16 240
-32 252 -35 14 -3 30 2 41 13 16 16 20 42 25 203 4 101 14 356 24 566 18 424
20 414 -46 412 -20 -1 -238 -14 -486 -29z m-439 -104 c3 -8 1 -30 -4 -49 -9
-32 -8 -36 12 -41 12 -3 35 -1 51 3 17 5 25 10 18 10 -8 1 -9 10 -3 30 5 18 4
33 -3 40 -20 20 1 23 32 5 25 -15 32 -16 46 -4 15 13 16 10 9 -26 -4 -21 -12
-43 -18 -47 -8 -6 726 0 769 7 5 0 8 -12 7 -29 -1 -16 -6 -174 -12 -350 -6
-176 -13 -339 -16 -362 -6 -50 1 -48 -144 -33 -124 14 -317 34 -625 65 -137
14 -265 28 -284 31 l-33 7 6 276 c4 152 9 320 12 373 l6 97 52 4 c109 7 117 7
122 -7z"/>
<path d="M2168 1793 c7 -3 16 -2 19 1 4 3 -2 6 -13 5 -11 0 -14 -3 -6 -6z"/>
<path d="M2208 1793 c7 -3 16 -2 19 1 4 3 -2 6 -13 5 -11 0 -14 -3 -6 -6z"/>
<path d="M1775 850 c3 -5 8 -10 11 -10 2 0 4 5 4 10 0 6 -5 10 -11 10 -5 0 -7
-4 -4 -10z"/>
<path d="M1758 803 c-5 -41 1 -52 32 -55 23 -3 25 1 28 38 3 39 1 42 -27 46
-27 4 -30 2 -33 -29z"/>
<path d="M648 800 c-12 -30 -15 -58 -7 -71 13 -22 20 -4 17 42 -2 24 -6 37
-10 29z"/>
<path d="M683 783 c-7 -2 -13 -22 -13 -43 0 -36 2 -38 35 -42 27 -3 35 0 35
12 0 13 -36 81 -42 79 -2 0 -9 -3 -15 -6z m4 -45 c-3 -8 -6 -5 -6 6 -1 11 2
17 5 13 3 -3 4 -12 1 -19z"/>
<path d="M378 933 c7 -3 16 -2 19 1 4 3 -2 6 -13 5 -11 0 -14 -3 -6 -6z"/>
<path d="M893 533 c3 -31 7 -38 23 -36 10 2 29 4 42 5 24 2 55 28 34 28 -6 0
-13 -6 -15 -12 -4 -10 -6 -10 -6 0 -1 7 -14 12 -32 12 -26 0 -29 3 -24 20 5
14 2 20 -10 20 -13 0 -16 -8 -12 -37z"/>
<path d="M505 530 c-4 -6 7 -10 24 -10 17 0 31 5 31 10 0 6 -11 10 -24 10 -14
0 -28 -4 -31 -10z"/>
<path d="M1368 483 c7 -3 16 -2 19 1 4 3 -2 6 -13 5 -11 0 -14 -3 -6 -6z"/>
<path d="M1217 435 c-43 -12 -81 -26 -85 -30 -4 -5 4 -4 18 0 14 4 43 9 65 11
22 1 57 6 78 10 25 4 37 3 37 -5 0 -6 -8 -11 -17 -11 -15 0 -16 -2 -3 -10 16
-10 15 -11 -20 -27 -22 -10 -23 -12 -4 -12 11 -1 24 3 30 8 5 5 39 18 77 31
37 12 67 24 67 27 0 3 -6 3 -14 0 -23 -9 -160 14 -144 24 20 13 1 9 -85 -16z"/>
<path d="M76 397 c7 -20 -30 -67 -52 -67 -7 0 -15 -4 -19 -9 -3 -6 6 -6 25 -1
17 5 37 7 43 4 7 -2 30 2 52 9 38 13 39 14 16 22 l-24 7 24 14 c24 13 24 13
-11 14 -20 0 -42 6 -49 13 -10 10 -11 8 -5 -6z"/>
<path d="M1197 389 c7 -7 15 -10 18 -7 3 3 -2 9 -12 12 -14 6 -15 5 -6 -5z"/>
<path d="M1238 373 c7 -3 16 -2 19 1 4 3 -2 6 -13 5 -11 0 -14 -3 -6 -6z"/>
<path d="M2923 293 c9 -2 23 -2 30 0 6 3 -1 5 -18 5 -16 0 -22 -2 -12 -5z"/>
<path d="M1791 226 c2 -2 20 -6 39 -10 25 -4 31 -3 20 4 -14 9 -69 15 -59 6z"/>
<path d="M0 95 l0 -95 83 1 c45 1 70 4 55 6 -16 2 -28 10 -28 17 0 8 -7 19
-15 26 -8 7 -15 21 -15 31 0 21 -57 109 -71 109 -5 0 -9 -43 -9 -95z"/>
<path d="M1515 182 c-118 -5 -300 -21 -317 -27 -18 -7 -25 -49 -10 -59 4 -2
113 9 242 25 129 16 258 29 287 29 48 0 74 12 58 28 -7 7 -147 9 -260 4z"/>
<path d="M678 163 c-24 -3 -38 -9 -38 -18 0 -34 131 -145 172 -145 41 0 34 15
-24 55 l-53 35 38 0 c43 0 44 3 17 48 -21 33 -23 34 -112 25z"/>
<path d="M2383 103 c9 -2 23 -2 30 0 6 3 -1 5 -18 5 -16 0 -22 -2 -12 -5z"/>
<path d="M2991 76 c12 -10 60 -16 54 -6 -3 5 -18 10 -32 10 -15 0 -24 -2 -22
-4z"/>
<path d="M2888 33 c6 -2 18 -2 25 0 6 3 1 5 -13 5 -14 0 -19 -2 -12 -5z"/>
<path d="M3178 23 c7 -3 16 -2 19 1 4 3 -2 6 -13 5 -11 0 -14 -3 -6 -6z"/>
<path d="M3108 3 c12 -2 30 -2 40 0 9 3 -1 5 -23 4 -22 0 -30 -2 -17 -4z"/>
</g>
</svg>
