<?xml version="1.0" standalone="no"?>
<!DOCTYPE svg PUBLIC "-//W3C//DTD SVG 20010904//EN"
 "http://www.w3.org/TR/2001/REC-SVG-20010904/DTD/svg10.dtd">
<svg version="1.0" xmlns="http://www.w3.org/2000/svg"
 width="806.000000pt" height="778.000000pt" viewBox="0 0 806.000000 778.000000"
 preserveAspectRatio="xMidYMid meet">
<metadata>
Created by potrace 1.16, written by Peter Selinger 2001-2019
</metadata>
<g transform="translate(0.000000,778.000000) scale(0.100000,-0.100000)"
fill="#000000" stroke="none">
<path d="M3518 7433 c-32 -2 -58 -8 -58 -13 0 -6 -22 -10 -50 -10 -27 0 -50
-4 -50 -10 0 -5 -18 -10 -40 -10 -22 0 -40 -4 -40 -10 0 -5 -18 -10 -40 -10
-22 0 -40 -4 -40 -10 0 -5 -16 -10 -35 -10 -19 0 -35 -4 -35 -10 0 -5 -13 -10
-30 -10 -16 0 -30 -4 -30 -10 0 -5 -13 -10 -30 -10 -16 0 -30 -4 -30 -10 0 -5
-13 -10 -30 -10 -16 0 -30 -4 -30 -10 0 -5 -13 -10 -30 -10 -16 0 -30 -4 -30
-10 0 -5 -11 -10 -25 -10 -14 0 -25 -4 -25 -10 0 -5 -13 -10 -30 -10 -16 0
-30 -4 -30 -10 0 -5 -11 -10 -25 -10 -14 0 -25 -4 -25 -10 0 -5 -13 -10 -30
-10 -16 0 -30 -4 -30 -10 0 -5 -11 -10 -25 -10 -14 0 -25 -4 -25 -10 0 -5 -13
-10 -30 -10 -16 0 -30 -4 -30 -10 0 -5 -11 -10 -25 -10 -14 0 -25 -4 -25 -10
0 -5 -13 -10 -30 -10 -16 0 -30 -4 -30 -10 0 -5 -11 -10 -25 -10 -14 0 -25 -4
-25 -10 0 -5 -13 -10 -30 -10 -16 0 -30 -4 -30 -10 0 -5 -11 -10 -25 -10 -14
0 -25 -4 -25 -10 0 -5 -13 -10 -30 -10 -16 0 -30 -4 -30 -10 0 -5 -11 -10 -25
-10 -14 0 -25 -4 -25 -10 0 -5 -13 -10 -30 -10 -16 0 -30 -4 -30 -10 0 -5 -11
-10 -25 -10 -14 0 -25 -4 -25 -10 0 -5 -13 -10 -30 -10 -16 0 -30 -4 -30 -10
0 -5 -11 -10 -25 -10 -14 0 -25 -4 -25 -10 0 -5 -13 -10 -30 -10 -16 0 -30 -4
-30 -10 0 -5 -11 -10 -25 -10 -14 0 -25 -4 -25 -10 0 -5 -12 -10 -26 -10 -44
0 -57 -23 -49 -85 3 -30 11 -55 16 -55 5 0 9 -11 9 -25 0 -14 5 -25 10 -25 6
0 10 -11 10 -25 0 -14 5 -25 10 -25 6 0 10 -13 10 -30 0 -16 5 -30 10 -30 6 0
10 -13 10 -30 0 -16 5 -30 10 -30 6 0 10 -11 10 -25 0 -14 5 -25 10 -25 6 0
10 -11 10 -25 0 -14 5 -25 10 -25 6 0 10 -13 10 -30 0 -16 5 -30 10 -30 6 0
10 -13 10 -30 0 -16 5 -30 10 -30 6 0 10 -12 10 -26 0 -14 4 -23 10 -19 6 4
10 -7 10 -24 0 -17 5 -31 10 -31 6 0 10 -13 10 -30 0 -16 5 -30 10 -30 6 0 10
-13 10 -30 0 -16 5 -30 10 -30 6 0 10 -12 10 -26 0 -14 4 -23 10 -19 6 4 10
-7 10 -24 0 -17 5 -31 10 -31 6 0 10 -13 10 -30 0 -16 5 -30 10 -30 6 0 10
-13 10 -30 0 -16 5 -30 10 -30 6 0 10 -12 10 -26 0 -14 4 -23 10 -19 6 4 10
-7 10 -24 0 -17 5 -31 10 -31 6 0 10 -13 10 -30 0 -16 5 -30 10 -30 6 0 10
-13 10 -30 0 -16 5 -30 10 -30 6 0 10 -12 10 -26 0 -14 4 -23 10 -19 6 4 10
-7 10 -24 0 -17 5 -31 10 -31 6 0 10 -13 10 -30 0 -16 5 -30 10 -30 6 0 10
-13 10 -30 0 -16 5 -30 10 -30 6 0 10 -12 10 -26 0 -14 4 -23 10 -19 6 4 10
-7 10 -24 0 -17 5 -31 10 -31 6 0 10 -13 10 -30 0 -16 5 -30 10 -30 6 0 10
-13 10 -30 0 -16 5 -30 10 -30 6 0 10 -12 10 -26 0 -14 4 -23 10 -19 6 4 10
-7 10 -24 0 -17 5 -31 10 -31 6 0 10 -13 10 -30 0 -16 5 -30 10 -30 6 0 10
-13 10 -30 0 -16 5 -30 10 -30 6 0 10 -12 10 -26 0 -14 4 -23 10 -19 6 4 10
-7 10 -24 0 -17 5 -31 10 -31 6 0 10 -13 10 -30 0 -16 5 -30 10 -30 6 0 10
-13 10 -30 0 -16 5 -30 10 -30 6 0 10 -12 10 -26 0 -14 4 -23 10 -19 6 4 10
-7 10 -24 0 -17 5 -31 10 -31 6 0 10 -13 10 -30 0 -16 5 -30 10 -30 6 0 10
-13 10 -30 0 -16 5 -30 10 -30 6 0 10 -12 10 -26 0 -14 4 -23 10 -19 6 3 10
-4 10 -16 l0 -23 -17 23 c-27 35 -131 141 -138 141 -4 0 -20 14 -35 30 -15 17
-32 30 -37 30 -5 0 -15 9 -23 20 -8 11 -20 20 -27 20 -7 0 -13 5 -13 10 0 6
-7 10 -15 10 -8 0 -15 5 -15 10 0 6 -9 10 -21 10 -11 0 -17 5 -14 10 3 6 -3
10 -15 10 -12 0 -18 5 -15 10 4 6 -5 10 -19 10 -14 0 -26 5 -26 10 0 6 -9 10
-21 10 -11 0 -17 5 -14 10 4 6 -7 10 -24 10 -17 0 -31 5 -31 10 0 6 -16 10
-35 10 -19 0 -35 5 -35 10 0 6 -16 10 -35 10 -34 0 -35 -1 -35 -37 -1 -21 -4
-56 -9 -78 l-7 -40 54 -3 c30 -2 62 -7 71 -12 9 -5 31 -15 49 -22 17 -7 32
-16 32 -20 0 -5 5 -8 11 -8 6 0 30 -13 54 -30 24 -16 48 -30 54 -30 6 0 11 -4
11 -10 0 -5 5 -10 10 -10 20 0 250 -242 250 -263 0 -7 9 -19 20 -27 11 -8 20
-20 20 -26 0 -6 14 -25 30 -42 17 -18 30 -42 30 -55 0 -12 9 -29 20 -37 11 -8
20 -22 20 -32 0 -10 5 -18 10 -18 6 0 10 -11 10 -25 0 -14 5 -25 10 -25 6 0
10 -9 10 -20 0 -11 5 -20 10 -20 6 0 10 -7 10 -15 0 -8 5 -15 10 -15 6 0 10
-9 10 -20 0 -11 5 -20 10 -20 6 0 10 -13 10 -30 0 -16 5 -30 10 -30 6 0 10
-16 10 -36 0 -21 4 -33 10 -29 6 3 10 -3 10 -14 0 -12 5 -21 10 -21 6 0 10
-21 10 -46 0 -27 4 -43 10 -39 6 4 10 -15 10 -50 0 -35 4 -54 10 -50 6 4 10
-13 10 -44 0 -28 5 -51 10 -51 6 0 10 -37 10 -91 0 -57 4 -88 10 -84 6 4 10
-27 10 -84 0 -54 4 -91 10 -91 6 0 10 18 10 40 0 22 5 40 11 40 23 0 2 -281
-24 -306 -4 -4 -7 -20 -7 -36 0 -15 -4 -28 -10 -28 -5 0 -10 -11 -10 -24 0
-14 -4 -28 -10 -31 -5 -3 -10 -15 -10 -26 0 -10 -4 -19 -9 -19 -5 0 -12 -8
-15 -17 -2 -10 -2 3 1 30 3 31 2 47 -6 47 -6 0 -11 -9 -11 -20 0 -11 -4 -20
-10 -20 -5 0 -10 -14 -10 -31 0 -17 -4 -28 -10 -24 -6 3 -10 -5 -10 -19 0 -14
-4 -28 -10 -31 -5 -3 -10 -17 -10 -31 0 -14 -4 -22 -10 -19 -6 4 -10 -5 -10
-19 0 -14 -4 -26 -9 -26 -5 0 -20 -22 -32 -50 -12 -27 -26 -50 -31 -50 -4 0
-8 -9 -8 -20 0 -11 -4 -20 -10 -20 -5 0 -10 -9 -10 -20 0 -11 -4 -20 -10 -20
-5 0 -10 -9 -10 -20 0 -11 -4 -20 -10 -20 -5 0 -10 -13 -10 -30 0 -16 -4 -30
-10 -30 -5 0 -10 -11 -10 -25 0 -14 -4 -25 -10 -25 -5 0 -10 -22 -10 -50 0
-27 -4 -50 -10 -50 -6 0 -10 -74 -10 -201 0 -131 3 -198 10 -194 6 4 10 -15
10 -49 0 -30 5 -58 10 -61 6 -3 10 -22 10 -41 0 -19 5 -34 10 -34 6 0 10 -11
10 -24 0 -14 5 -28 10 -31 6 -3 10 -17 10 -31 0 -13 5 -24 10 -24 6 0 10 -9
10 -20 0 -11 5 -20 10 -20 6 0 10 -13 10 -30 0 -16 5 -30 10 -30 6 0 10 -9 10
-20 0 -11 5 -20 10 -20 6 0 10 -6 10 -13 0 -7 9 -23 20 -35 11 -12 20 -30 20
-40 0 -10 8 -27 18 -38 9 -10 23 -31 31 -46 8 -16 18 -28 23 -28 4 0 8 -6 8
-14 0 -7 13 -27 30 -44 17 -18 30 -34 30 -38 0 -12 217 -234 229 -234 5 0 16
-6 23 -13 42 -42 204 -137 233 -137 8 0 15 -4 15 -10 0 -5 6 -10 13 -10 8 0
28 -7 46 -16 17 -9 38 -14 45 -11 12 5 56 111 56 136 0 6 -13 11 -30 11 -16 0
-30 5 -30 10 0 6 -9 10 -20 10 -11 0 -20 5 -20 10 0 6 -14 10 -31 10 -17 0
-28 4 -24 10 4 6 -5 10 -19 10 -14 0 -26 5 -26 10 0 6 -7 10 -15 10 -8 0 -15
5 -15 10 0 6 -7 10 -15 10 -8 0 -15 5 -15 10 0 6 -7 10 -16 10 -8 0 -12 4 -9
10 3 5 -1 10 -9 10 -9 0 -16 5 -16 10 0 6 -5 10 -11 10 -6 0 -28 18 -49 40
-21 22 -43 40 -49 40 -5 0 -13 9 -16 20 -3 11 -13 20 -21 20 -8 0 -12 5 -9 10
3 6 -1 10 -9 10 -9 0 -16 4 -16 9 0 5 -13 23 -29 40 -17 18 -33 41 -36 52 -4
10 -10 19 -15 19 -5 0 -12 9 -15 20 -4 11 -17 32 -31 45 -13 13 -24 31 -24 40
0 8 -4 15 -8 15 -9 0 -72 130 -72 148 0 7 -4 12 -8 12 -12 0 -32 47 -32 75 0
14 -4 25 -8 25 -4 0 -13 21 -20 48 -7 26 -17 61 -22 78 -6 17 -10 40 -10 52 0
12 -4 22 -9 22 -8 0 -19 106 -23 210 -2 62 15 231 24 236 4 3 8 18 8 34 0 16
9 45 20 65 11 20 20 44 20 55 0 11 5 20 10 20 6 0 10 9 10 20 0 11 4 20 9 20
18 0 41 70 41 123 0 36 5 61 15 71 8 8 15 22 15 30 0 9 5 16 10 16 6 0 10 9
10 20 0 11 5 20 10 20 6 0 10 16 10 35 0 19 5 35 10 35 6 0 10 9 10 19 0 11 4
23 10 26 5 3 10 17 10 30 0 13 4 27 10 30 5 3 10 26 10 51 0 24 5 44 10 44 6
0 10 19 10 43 0 24 6 49 12 55 10 10 10 15 -2 23 -11 8 -12 12 -2 16 14 6 18
248 3 257 -4 3 -8 42 -8 86 0 44 4 83 8 86 5 3 9 -5 10 -18 0 -13 3 -17 6 -10
2 6 16 12 29 12 13 0 24 5 24 10 0 6 11 10 25 10 14 0 25 5 25 10 0 6 14 10
30 10 17 0 30 5 30 10 0 6 11 10 25 10 14 0 25 5 25 10 0 6 14 10 30 10 17 0
30 4 30 10 0 6 30 9 72 9 45 -1 74 3 76 10 2 6 15 11 28 11 13 0 24 5 24 10 0
6 14 10 30 10 17 0 30 5 30 10 0 6 9 10 20 10 11 0 29 5 40 10 11 5 29 14 40
20 11 5 29 10 40 10 11 0 20 5 20 10 0 6 11 10 24 10 14 0 28 5 31 10 3 5 15
10 26 10 19 0 28 4 76 28 13 7 32 12 43 12 11 0 20 5 20 10 0 6 11 10 24 10
14 0 28 5 31 10 3 5 17 10 31 10 13 0 24 5 24 10 0 6 11 10 24 10 14 0 28 5
31 10 3 6 17 10 31 10 13 0 24 5 24 10 0 6 9 10 20 10 11 0 28 4 38 9 9 5 31
14 47 21 17 7 38 16 47 21 10 5 25 9 33 9 8 0 15 5 15 10 0 6 9 10 20 10 11 0
20 5 20 10 0 6 6 10 14 10 16 0 140 62 144 73 2 4 12 7 23 7 10 0 19 5 19 10
0 6 7 10 15 10 8 0 15 5 15 10 0 6 7 10 15 10 8 0 15 5 15 10 0 6 5 10 11 10
10 0 98 56 109 70 3 3 21 17 40 30 42 30 220 206 220 218 0 5 14 23 30 40 17
18 30 38 30 45 0 7 9 19 20 27 11 8 20 22 20 32 0 10 5 18 10 18 6 0 10 9 10
20 0 11 4 20 8 20 9 0 52 89 52 108 0 7 5 12 10 12 6 0 10 9 10 20 0 11 5 20
10 20 6 0 10 9 10 20 0 11 5 29 10 40 6 11 15 29 20 40 6 11 10 31 10 44 0 14
5 28 10 31 6 3 10 19 10 34 0 15 5 32 11 38 7 7 6 15 -4 25 -11 11 -13 31 -9
86 2 40 9 75 13 78 5 3 9 62 9 131 0 107 2 124 15 119 13 -5 15 9 14 92 0 86
-5 141 -25 302 -3 25 -10 49 -15 55 -5 5 -9 26 -9 47 0 21 -4 38 -10 38 -5 0
-10 18 -10 40 0 22 -4 40 -10 40 -5 0 -10 14 -10 30 0 17 -4 30 -10 30 -5 0
-10 14 -10 30 0 17 -4 30 -10 30 -5 0 -10 14 -10 30 0 17 -4 30 -10 30 -5 0
-10 14 -10 30 0 17 -4 30 -10 30 -5 0 -10 9 -10 20 0 11 -4 20 -10 20 -5 0
-10 11 -10 24 0 14 -4 28 -10 31 -5 3 -10 15 -10 26 0 10 -4 19 -10 19 -5 0
-10 9 -10 20 0 11 -4 20 -10 20 -5 0 -10 9 -10 20 0 11 -4 20 -10 20 -5 0 -10
9 -10 20 0 11 -4 20 -10 20 -5 0 -10 9 -10 20 0 11 -4 20 -10 20 -5 0 -10 8
-10 18 0 10 -9 24 -20 32 -11 8 -20 22 -20 32 0 10 -4 18 -9 18 -5 0 -14 14
-21 30 -7 17 -16 30 -21 30 -4 0 -10 9 -14 19 -3 11 -19 34 -36 52 -16 17 -29
35 -29 40 0 12 -217 229 -230 229 -6 0 -8 5 -5 10 3 6 -1 10 -9 10 -9 0 -16 5
-16 10 0 6 -6 10 -13 10 -7 0 -19 9 -27 20 -8 11 -21 20 -30 20 -9 0 -22 9
-30 20 -8 11 -22 20 -32 20 -10 0 -18 5 -18 10 0 6 -7 10 -15 10 -8 0 -15 5
-15 10 0 6 -9 10 -20 10 -11 0 -20 5 -20 10 0 6 -7 10 -15 10 -8 0 -15 5 -15
10 0 6 -11 10 -25 10 -14 0 -25 5 -25 10 0 6 -9 10 -20 10 -11 0 -20 5 -20 10
0 6 -11 10 -25 10 -14 0 -25 5 -25 10 0 6 -14 10 -31 10 -17 0 -28 4 -24 10 4
6 -8 10 -29 10 -20 0 -36 5 -36 10 0 6 -18 10 -39 10 -22 0 -41 5 -43 12 -4
12 -394 21 -520 11z m217 -473 c3 -5 26 -10 50 -10 24 0 47 -4 50 -10 3 -5 19
-10 36 -10 16 0 29 -4 29 -10 0 -5 11 -10 24 -10 14 0 28 -4 31 -10 3 -5 15
-10 26 -10 10 0 19 -4 19 -10 0 -5 9 -10 20 -10 11 0 20 -4 20 -8 0 -5 16 -14
35 -22 19 -8 35 -17 35 -22 0 -4 7 -8 15 -8 8 0 15 -4 15 -10 0 -5 7 -10 15
-10 8 0 15 -4 15 -10 0 -5 4 -10 10 -10 26 0 228 -204 268 -272 9 -15 20 -28
24 -28 4 0 8 -8 8 -18 0 -10 9 -24 20 -32 11 -8 20 -22 20 -32 0 -10 5 -18 10
-18 6 0 10 -9 10 -20 0 -11 5 -20 10 -20 6 0 10 -7 10 -15 0 -8 5 -15 10 -15
6 0 10 -7 10 -15 0 -8 5 -15 10 -15 6 0 10 -9 10 -20 0 -11 5 -20 10 -20 6 0
10 -13 10 -30 0 -16 5 -30 10 -30 6 0 10 -9 10 -20 0 -11 5 -20 10 -20 6 0 10
-9 10 -20 0 -11 5 -20 10 -20 6 0 10 -13 10 -30 0 -16 5 -30 10 -30 6 0 10
-13 10 -30 0 -16 5 -30 10 -30 6 0 10 -13 10 -30 0 -16 5 -30 10 -30 6 0 10
-13 10 -30 0 -16 5 -30 10 -30 6 0 10 -16 10 -35 0 -19 5 -35 10 -35 6 0 10
-20 10 -45 0 -25 5 -45 10 -45 6 0 10 -22 10 -50 0 -27 5 -50 10 -50 6 0 10
-35 10 -86 0 -54 4 -83 10 -79 6 4 10 -33 10 -104 0 -67 -4 -111 -10 -111 -6
0 -10 -30 -10 -69 0 -39 -4 -73 -10 -76 -5 -3 -10 -26 -10 -51 0 -24 -4 -44
-10 -44 -5 0 -10 -13 -10 -30 0 -16 -4 -30 -10 -30 -5 0 -10 -13 -10 -30 0
-16 -4 -30 -10 -30 -5 0 -10 -9 -10 -20 0 -11 -4 -20 -10 -20 -5 0 -10 -9 -10
-20 0 -11 -4 -20 -10 -20 -5 0 -10 -9 -10 -20 0 -11 -4 -20 -10 -20 -5 0 -10
-7 -10 -16 0 -9 -10 -25 -22 -35 -11 -11 -18 -19 -14 -19 7 0 -4 -13 -83 -97
-28 -29 -54 -53 -58 -53 -5 0 -15 -9 -23 -20 -8 -11 -19 -20 -25 -20 -6 0 -17
-9 -25 -20 -8 -11 -20 -20 -27 -20 -7 0 -13 -4 -13 -10 0 -5 -7 -10 -15 -10
-8 0 -15 -4 -15 -10 0 -5 -9 -10 -21 -10 -11 0 -17 -4 -14 -10 3 -5 -3 -10
-14 -10 -12 0 -21 -4 -21 -10 0 -5 -9 -10 -20 -10 -11 0 -20 -4 -20 -10 0 -5
-7 -10 -15 -10 -8 0 -15 -4 -15 -10 0 -5 -12 -10 -26 -10 -14 0 -23 -4 -19
-10 4 -6 -5 -10 -19 -10 -14 0 -26 -4 -26 -10 0 -5 -12 -10 -26 -10 -14 0 -23
-4 -19 -10 4 -6 -7 -10 -25 -10 -18 0 -29 -4 -25 -10 4 -6 -7 -10 -24 -10 -17
0 -31 -4 -31 -10 0 -5 -11 -10 -25 -10 -14 0 -25 -4 -25 -10 0 -5 -13 -10 -30
-10 -16 0 -30 -4 -30 -10 0 -5 -11 -10 -25 -10 -14 0 -25 -4 -25 -10 0 -5 -13
-10 -30 -10 -16 0 -30 -4 -30 -10 0 -5 -11 -10 -25 -10 -14 0 -25 -4 -25 -10
0 -5 -14 -10 -31 -10 -17 0 -28 -4 -24 -10 4 -6 -7 -10 -24 -10 -17 0 -31 -4
-31 -10 0 -5 -14 -10 -31 -10 -17 0 -28 -4 -24 -10 4 -6 -7 -10 -24 -10 -17 0
-31 -4 -31 -10 0 -5 -14 -10 -31 -10 -17 0 -28 -4 -24 -10 4 -6 -6 -10 -24
-10 -16 0 -32 -6 -34 -12 -3 -7 -8 2 -12 20 -4 17 -11 32 -16 32 -5 0 -9 14
-9 30 0 17 -4 30 -10 30 -5 0 -10 14 -10 30 0 17 -4 30 -8 30 -5 0 -15 22 -22
50 -7 28 -17 50 -22 50 -4 0 -8 14 -8 30 0 17 -4 30 -10 30 -5 0 -10 14 -10
30 0 17 -4 30 -8 30 -5 0 -15 23 -22 50 -7 28 -17 50 -22 50 -4 0 -8 14 -8 30
0 17 -4 30 -10 30 -5 0 -10 14 -10 30 0 17 -4 30 -8 30 -5 0 -15 23 -22 50 -7
28 -17 50 -22 50 -4 0 -8 14 -8 30 0 17 -4 30 -10 30 -5 0 -10 14 -10 30 0 17
-4 30 -8 30 -5 0 -15 23 -22 50 -7 28 -17 50 -22 50 -4 0 -8 14 -8 30 0 17 -4
30 -10 30 -5 0 -10 14 -10 30 0 17 -4 30 -8 30 -5 0 -15 23 -22 50 -7 28 -17
50 -22 50 -4 0 -8 14 -8 30 0 17 -4 30 -10 30 -5 0 -10 14 -10 30 0 17 -4 30
-8 30 -5 0 -15 23 -22 50 -7 28 -17 50 -22 50 -4 0 -8 14 -8 30 0 17 -4 30
-10 30 -5 0 -10 14 -10 30 0 17 -4 30 -8 30 -5 0 -15 23 -22 50 -7 28 -17 50
-22 50 -4 0 -8 14 -8 30 0 17 -4 30 -10 30 -5 0 -10 14 -10 30 0 17 -4 30 -8
30 -5 0 -15 23 -22 50 -7 28 -17 50 -22 50 -4 0 -8 14 -8 30 0 17 -4 30 -10
30 -5 0 -10 14 -10 30 0 17 -4 30 -8 30 -5 0 -15 23 -22 50 -7 28 -17 50 -22
50 -4 0 -8 14 -8 30 0 17 -4 30 -10 30 -5 0 -10 14 -10 30 0 17 -4 30 -8 30
-5 0 -15 23 -22 50 -7 28 -17 50 -22 50 -4 0 -8 14 -8 30 0 17 -4 30 -10 30
-5 0 -10 14 -10 30 0 17 -4 30 -8 30 -5 0 -15 23 -22 50 -7 28 -17 50 -22 50
-4 0 -8 14 -8 30 0 17 -4 30 -10 30 -5 0 -10 13 -10 29 0 16 -4 31 -8 33 -5 2
-12 15 -16 31 -6 24 -4 27 18 27 14 0 28 5 31 10 3 6 17 10 31 10 13 0 24 5
24 10 0 6 11 10 24 10 14 0 28 5 31 10 3 6 17 10 31 10 13 0 24 5 24 10 0 6
11 10 24 10 14 0 28 5 31 10 3 6 17 10 31 10 13 0 24 5 24 10 0 6 11 10 24 10
14 0 28 5 31 10 3 6 17 10 30 10 13 0 27 5 30 10 3 6 17 10 31 10 13 0 24 5
24 10 0 6 14 10 30 10 17 0 30 5 30 10 0 6 13 10 29 10 17 0 33 5 36 10 3 6
19 10 36 10 16 0 29 5 29 10 0 6 16 10 35 10 19 0 35 5 35 10 0 6 15 10 34 10
19 0 38 5 41 10 3 6 24 10 45 10 21 0 42 5 45 10 3 6 30 10 60 10 30 0 57 5
60 10 4 6 62 10 140 10 78 0 136 -4 140 -10z"/>
</g>
</svg>
