<svg xmlns="http://www.w3.org/2000/svg" width="36" height="36" viewBox="0 0 36 36">
    <g fill="#3B5998" fill-rule="evenodd">
        <path fill-rule="nonzero" d="M0 18C0 8.059 8.059 0 18 0s18 8.059 18 18-8.059 18-18 18S0 27.941 0 18zm.59 0c0 9.615 7.795 17.41 17.41 17.41S35.41 27.615 35.41 18 27.615.59 18 .59.59 8.385.59 18z"/>
        <path d="M19.32 27v-9.001h2.366L22 14.897h-2.68l.004-1.552c0-.81.073-1.243 1.18-1.243h1.48V9h-2.368c-2.843 0-3.844 1.505-3.844 4.035v1.862H14V18h1.772V27h3.548z"/>
    </g>
</svg>
