<svg xmlns="http://www.w3.org/2000/svg" width="36" height="36" viewBox="0 0 36 36">
    <g fill="#0077B5" fill-rule="evenodd">
        <path fill-rule="nonzero" d="M0 18C0 8.059 8.059 0 18 0s18 8.059 18 18-8.059 18-18 18S0 27.941 0 18zm.59 0c0 9.615 7.795 17.41 17.41 17.41S35.41 27.615 35.41 18 27.615.59 18 .59.59 8.385.59 18z"/>
        <path d="M14.632 13.879v10.12h-3.43V13.88h3.43zm8.42-.238c2.256 0 3.948 1.447 3.948 4.556V24h-3.43v-5.415c0-1.36-.496-2.288-1.737-2.288-.948 0-1.512.626-1.76 1.23-.09.216-.113.518-.113.82V24h-3.43s.046-9.171 0-10.12h3.43v1.433c.455-.69 1.27-1.672 3.091-1.672zM12.94 9c1.173 0 1.896.756 1.918 1.748 0 .926-.675 1.675-1.773 1.744l-.167.006h-.022c-1.152 0-1.896-.778-1.896-1.75C11 9.756 11.767 9 12.94 9z"/>
    </g>
</svg>
