<?xml version="1.0" encoding="UTF-8"?>
<svg width="172px" height="40px" viewBox="0 0 172 40" version="1.1" xmlns="http://www.w3.org/2000/svg" xmlns:xlink="http://www.w3.org/1999/xlink">
    <!-- Generator: sketchtool 52.5 (67469) - http://www.bohemiancoding.com/sketch -->
    <title>A186E133-4470-4584-8B5C-123B6C0326FC</title>
    <desc>Created with sketchtool.</desc>
    <g id="SIGN-UP/LOG-IN" stroke="none" stroke-width="1" fill="none" fill-rule="evenodd">
        <g id="RESET-PASSWORD-EMAIL" transform="translate(-298.000000, -44.000000)" fill="#3577d4">
            <g transform="translate(0.000000,213.000000) scale(0.100000,-0.100000)"
              fill="#00ff00" stroke="none">
              <path fill="#ffe000" d="M1145 1964 c-63 -16 -143 -47 -165 -63 l-25 -19 25 -6 c14 -3 43 -8
              65 -12 l40 -7 -30 -7 c-16 -4 -59 -8 -96 -9 -61 -1 -67 -3 -99 -36 -21 -22
              -30 -39 -24 -45 14 -14 178 -40 256 -40 92 0 254 -18 298 -33 33 -11 29 -12
              -65 -18 -55 -4 -163 -7 -241 -8 -77 0 -182 -4 -232 -7 l-91 -7 -15 -39 c-18
              -42 -20 -74 -8 -82 5 -3 96 -10 203 -16 107 -5 210 -14 229 -18 l35 -8 -49 -7
              c-27 -4 -64 -7 -83 -7 -32 0 -272 -45 -303 -56 -31 -12 25 -23 130 -24 58 -1
              123 -7 145 -15 l40 -13 -61 -1 c-34 -1 -80 -7 -102 -15 -22 -8 -65 -17 -96
              -21 -31 -4 -56 -11 -56 -15 0 -4 9 -19 21 -34 18 -23 27 -26 82 -26 34 0 107
              -7 161 -15 55 -8 156 -15 225 -16 69 0 146 -4 171 -8 40 -8 35 -9 -42 -10 -48
              0 -113 -8 -145 -17 -32 -8 -118 -19 -191 -23 -73 -4 -136 -11 -140 -15 -9 -9
              29 -38 93 -70 151 -76 341 -74 498 5 61 31 177 129 177 150 0 3 -55 11 -121
              17 -150 15 -180 28 -83 36 38 3 111 14 163 23 l94 17 18 40 c29 64 26 73 -33
              86 -29 6 -113 17 -188 25 -210 23 -213 32 -18 45 146 10 221 24 239 46 23 27
              -22 137 -85 210 l-35 41 -61 -8 c-35 -5 -100 -5 -153 1 -50 5 -123 10 -162 10
              -90 2 -67 13 100 49 137 30 150 44 70 75 -49 18 -233 32 -280 20z"/>
              <path fill="#00ff00" d="M2335 1393 c-241 -38 -498 -175 -734 -389 -78 -72 -200 -209 -243
              -276 -17 -26 -35 -45 -39 -41 -3 5 -28 55 -53 113 -57 126 -94 168 -195 218
              -69 34 -82 37 -180 40 -128 5 -202 -12 -313 -70 -135 -70 -261 -192 -351 -340
              -33 -54 -37 -70 -35 -113 3 -43 6 -50 26 -53 18 -3 26 5 42 45 68 167 169 290
              314 384 84 55 151 77 274 89 l108 11 77 -41 c41 -23 90 -55 108 -73 17 -18 58
              -87 90 -155 l59 -123 -20 -39 c-34 -66 -23 -137 28 -183 18 -17 24 -17 49 -5
              22 11 31 25 44 75 72 264 355 569 672 723 140 67 203 84 377 102 209 20 198
              22 342 -61 180 -103 205 -135 308 -404 85 -223 205 -457 235 -457 19 0 24 44
              9 82 -6 18 -35 89 -62 158 -28 69 -61 159 -75 200 -13 41 -44 129 -68 195 -43
              117 -46 122 -124 200 -86 87 -174 138 -290 170 -60 16 -316 29 -380 18z"/>
              <path fill="#00ff00" d="M2084 1081 c-113 -76 -199 -159 -294 -286 -136 -183 -180 -336 -128
              -445 l22 -45 7 105 c4 71 14 125 29 165 64 170 241 358 458 489 69 42 69 56 1
              56 -26 0 -54 -11 -95 -39z"/>
              <path fill="#00ff00" d="M621 860 c-127 -101 -235 -297 -217 -395 9 -45 26 -36 26 14 0 117
              97 268 237 368 35 25 63 47 63 49 0 2 -13 4 -29 4 -19 0 -47 -14 -80 -40z"/>
              <path fill="#00ff00" d="M2071 773 c-75 -85 -113 -167 -118 -256 -4 -54 -1 -77 10 -92 10 -13
              19 -16 25 -10 16 19 63 135 69 173 7 41 65 133 126 199 l40 43 -51 0 c-49 0
              -52 -2 -101 -57z"/>
              <path fill="#00ff00" d="M2173 468 c-4 -24 -7 -49 -6 -55 0 -7 1 -22 2 -33 1 -26 36 -60 60
              -60 16 0 20 11 26 86 8 95 4 104 -47 104 -25 0 -29 -5 -35 -42z"/>
              </g>
        </g>
    </g>
</svg>