<?xml version="1.0" encoding="UTF-8"?>
<svg width="17px" height="20px" viewBox="0 0 17 20" version="1.1" xmlns="http://www.w3.org/2000/svg" xmlns:xlink="http://www.w3.org/1999/xlink">
    <!-- Generator: sketchtool 52.6 (67491) - http://www.bohemiancoding.com/sketch -->
    <title>390C3F6B-9E14-4E1F-9E4B-737081A16720</title>
    <desc>Created with sketchtool.</desc>
    <g id="Symbols" stroke="none" stroke-width="1" fill="none" fill-rule="evenodd">
        <g id="HEADER---ACCOUNT" transform="translate(-1244.000000, -44.000000)" fill="#434C5F" fill-rule="nonzero">
            <g id="notification" transform="translate(1240.000000, 42.000000)">
                <path d="M17,17 L8,17 L8,10.5 C8,8 10,6 12.5,6 C15,6 17,8 17,10.5 L17,17 Z M19,16 L19,10.5 C19,7.43 16.86,4.86 14,4.18 L14,3.5 C14,2.67157288 13.3284271,2 12.5,2 C11.6715729,2 11,2.67157288 11,3.5 L11,4.18 C8.13,4.86 6,7.43 6,10.5 L6,16 L4,18 L4,19 L21,19 L21,18 L19,16 Z M12.5,22 C13.6045695,22 14.5,21.1045695 14.5,20 L10.5,20 C10.5,21.1045695 11.3954305,22 12.5,22 Z" id="Shape"></path>
            </g>
        </g>
    </g>
</svg>