<?xml version="1.0" encoding="UTF-8"?>
<svg width="20px" height="20px" viewBox="0 0 20 20" version="1.1" xmlns="http://www.w3.org/2000/svg" xmlns:xlink="http://www.w3.org/1999/xlink">
    <!-- Generator: sketchtool 52.5 (67469) - http://www.bohemiancoding.com/sketch -->
    <title>52D189FE-EACA-4E12-BC8D-D4FF68EBAC13</title>
    <desc>Created with sketchtool.</desc>
    <g id="ACCOUNT" stroke="none" stroke-width="1" fill="none" fill-rule="evenodd">
        <g id="COMPANY" transform="translate(-122.000000, -245.000000)" fill="#434C5F">
            <g id="Billing" transform="translate(120.000000, 243.000000)">
                <path d="M20,15.9996588 L20,11.9996588 L15.414,11.9996588 L13.414,13.9996588 L15.414,15.9996588 L20,15.9996588 Z M17.997,19.9996588 L17.998,17.9996588 L15,17.9996588 C14.735,17.9996588 14.48,17.8936588 14.293,17.7076588 L11.293,14.7076588 C10.902,14.3156588 10.902,13.6836588 11.293,13.2926588 L14.293,10.2926588 C14.48,10.1056588 14.735,9.99965885 15,9.99965885 L18,9.99965885 L18,7.99965885 L4,7.99965885 L4,19.9996588 L17.997,19.9996588 Z M14.517,4.26965885 L10.193,5.99965885 L15.382,5.99965885 L14.517,4.26965885 Z M21,9.99965885 C21.552,9.99965885 22,10.4476588 22,10.9996588 L22,16.9996588 C22,17.5516588 21.552,17.9996588 21,17.9996588 L20,17.9996588 L20,19.9996588 C20,21.1026588 19.103,21.9996588 18,21.9996588 L4,21.9996588 C2.897,21.9996588 2,21.1026588 2,19.9996588 L2,7.99965885 C2,6.89665885 2.897,5.99965885 4,5.99965885 L4.807,5.99965885 L14.628,2.07165885 C15.112,1.87865885 15.662,2.08765885 15.895,2.55265885 L17.618,5.99965885 L18,5.99965885 C19.103,5.99965885 20,6.89665885 20,7.99965885 L20,9.99965885 L21,9.99965885 Z M15,13.9996588 C15,13.4486588 15.448,12.9996588 16,12.9996588 C16.552,12.9996588 17,13.4486588 17,13.9996588 C17,14.5526588 16.552,14.9996588 16,14.9996588 C15.448,14.9996588 15,14.5526588 15,13.9996588 Z" id="Combined-Shape"></path>
            </g>
        </g>
    </g>
</svg>