<?xml version="1.0" encoding="UTF-8"?>
<svg width="20px" height="18px" viewBox="0 0 20 18" version="1.1" xmlns="http://www.w3.org/2000/svg" xmlns:xlink="http://www.w3.org/1999/xlink">
    <!-- Generator: sketchtool 52.5 (67469) - http://www.bohemiancoding.com/sketch -->
    <title>7ACAAC43-31C1-4733-8321-BB6973267256</title>
    <desc>Created with sketchtool.</desc>
    <g id="ACCOUNT" stroke="none" stroke-width="1" fill="none" fill-rule="evenodd">
        <g id="COMPANY" transform="translate(-122.000000, -150.000000)" fill="#434C5F">
            <g id="Info-icon" transform="translate(120.000000, 147.000000)">
                <path d="M5,17 C5,15.159 6.159,14 8,14 C9.841,14 11,15.159 11,17 L5,17 Z M10,11 C10,12.104 9.104,13 8,13 C6.896,13 6,12.104 6,11 C6,9.896 6.896,9 8,9 C9.104,9 10,9.896 10,11 Z M19,11.9995 C19,12.5517847 18.5490248,12.9995 18.009222,12.9995 L13.990778,12.9995 C13.4435864,12.9995 13,12.5556352 13,11.9995 C13,11.4472153 13.4509752,10.9995 13.990778,10.9995 L18.009222,10.9995 C18.5564136,10.9995 19,11.4433648 19,11.9995 Z M19,15.9995 C19,16.5517847 18.5490248,16.9995 18.009222,16.9995 L13.990778,16.9995 C13.4435864,16.9995 13,16.5556352 13,15.9995 C13,15.4472153 13.4509752,14.9995 13.990778,14.9995 L18.009222,14.9995 C18.5564136,14.9995 19,15.4433648 19,15.9995 Z M4,19 L20.001,19 L20,7 L14.815,7 C14.401,8.162 13.302,9 12,9 C10.698,9 9.599,8.162 9.185,7 L4,7 L4,19 Z M12,5 C11.449,5 11,5.449 11,6 C11,6.551 11.449,7 12,7 C12.551,7 13,6.551 13,6 C13,5.449 12.551,5 12,5 Z M20,5 C21.103,5 22,5.896 22,7 L22,19 C22,20.103 21.103,21 20,21 L4,21 C2.897,21 2,20.103 2,19 L2,7 C2,5.896 2.897,5 4,5 L9.185,5 C9.599,3.838 10.698,3 12,3 C13.302,3 14.401,3.838 14.815,5 L20,5 Z" id="Combined-Shape"></path>
            </g>
        </g>
    </g>
</svg>