<?xml version="1.0" encoding="UTF-8"?>
<svg width="24px" height="24px" viewBox="0 0 24 24" version="1.1" xmlns="http://www.w3.org/2000/svg" xmlns:xlink="http://www.w3.org/1999/xlink">
    <!-- Generator: sketchtool 52.6 (67491) - http://www.bohemiancoding.com/sketch -->
    <title>88E6E4B3-7C33-4C66-AFE0-6A14051CE7E5</title>
    <desc>Created with sketchtool.</desc>
    <g id="Symbols" stroke="none" stroke-width="1" fill="none" fill-rule="evenodd">
        <g id="ICON/BLACK/BASKET" fill="#434C5F">
            <g id="Group">
                <g transform="translate(2.000000, 2.000000)">
                    <path d="M15.1978,16.001 L4.8018,16.001 L3.2468,9.001 L16.7538,9.001 L15.1978,16.001 Z M19.9998,8.001 C19.9998,7.44871525 19.5526947,7.001 18.9921848,7.001 L16.5798,7.001 L13.3684168,1.38021433 C13.0919338,0.896294517 12.4825253,0.724378884 11.9998,1.0005 L11.9998,1.0005 C11.5204168,1.27470938 11.3579806,1.89283411 11.6232063,2.357 L14.2768,7.001 L5.7228,7.001 L8.37639375,2.357 C8.64778993,1.88203512 8.48252533,1.27662112 7.9998,1.0005 L7.9998,1.0005 C7.52041684,0.726290622 6.91071394,0.890960164 6.63118316,1.38021433 L3.4198,7.001 L1.0074152,7.001 C0.450924693,7.001 -0.0002,7.44486482 -0.0002,8.001 L-0.0002,8.001 C-0.0002,8.55328475 0.445890982,9.001 0.999974665,9.001 L1.1978,9.001 L3.0238,17.218 C3.1258,17.675 3.5308,18.001 3.9998,18.001 L15.9998,18.001 C16.4688,18.001 16.8748,17.675 16.9758,17.218 L18.8018,9.001 L18.9996253,9.001 C19.5520065,9.001 19.9998,8.55713518 19.9998,8.001 L19.9998,8.001 Z" id="Fill-542"></path>
                    <path d="M11,11.0008075 C11,10.4486291 10.5561352,10.001 10,10.001 L10,10.001 C9.44771525,10.001 9,10.4447166 9,11.0008075 L9,14.0011925 C9,14.5533709 9.44386482,15.001 10,15.001 L10,15.001 C10.5522847,15.001 11,14.5572834 11,14.0011925 L11,11.0008075 Z" id="Fill-543"></path>
                    <path d="M14,11.0008075 C14,10.4486291 13.5561352,10.001 13,10.001 L13,10.001 C12.4477153,10.001 12,10.4447166 12,11.0008075 L12,14.0011925 C12,14.5533709 12.4438648,15.001 13,15.001 L13,15.001 C13.5522847,15.001 14,14.5572834 14,14.0011925 L14,11.0008075 Z" id="Fill-544"></path>
                    <path d="M8,11.0008075 C8,10.4486291 7.54681396,10.001 7,10.001 L7,10.001 L7,10.001 C6.44771525,10.001 6,10.4447166 6,11.0008075 L6,14.0011925 C6,14.5533709 6.44386482,15.001 7,15.001 L7,15.001 C7.55228475,15.001 8,14.5572834 8,14.0011925 L8,11.0008075 Z" id="Fill-545"></path>
                </g>
            </g>
        </g>
    </g>
</svg>