<svg xmlns="http://www.w3.org/2000/svg" width="36" height="36" viewBox="0 0 36 36">
    <g fill="none" fill-rule="nonzero">
        <path fill="#C2B8B9" d="M0 18C0 8.059 8.059 0 18 0s18 8.059 18 18-8.059 18-18 18S0 27.941 0 18zm.59 0c0 9.615 7.795 17.41 17.41 17.41S35.41 27.615 35.41 18 27.615.59 18 .59.59 8.385.59 18z"/>
        <path fill="#D6CED1" d="M27.426 11.288l-9.051 5.895-9.05-5.895A1.033 1.033 0 0 0 9 12.04v11.59c0 .298.127.566.327.754l9.048-5.893 9.298 6.163h.077V12.04c0-.297-.126-.565-.324-.752z"/>
        <path fill="#C2B8B9" d="M10 24.654h17.673l-6.312-6.82H15.39l-6.062 6.55c.178.167.414.27.673.27z"/>
        <path fill="#ECE7EA" d="M10 11.015a.982.982 0 0 0-.676.273l8.361 8.992a.93.93 0 0 0 1.38 0l8.36-8.992a.982.982 0 0 0-.675-.273H10z"/>
    </g>
</svg>
