<svg xmlns="http://www.w3.org/2000/svg" width="36" height="36" viewBox="0 0 36 36">
    <g fill="#55ACEE" fill-rule="evenodd">
        <path fill-rule="nonzero" d="M0 18C0 8.059 8.059 0 18 0s18 8.059 18 18-8.059 18-18 18S0 27.941 0 18zm.59 0c0 9.615 7.795 17.41 17.41 17.41S35.41 27.615 35.41 18 27.615.59 18 .59.59 8.385.59 18z"/>
        <path d="M17.74 14.724l.039.606-.65-.074c-2.367-.285-4.435-1.249-6.191-2.867l-.859-.804-.22.593c-.469 1.323-.17 2.72.806 3.658.52.52.403.594-.494.285-.313-.1-.586-.173-.612-.136-.09.086.221 1.21.468 1.656.339.618 1.028 1.223 1.782 1.582l.638.284-.755.012c-.728 0-.754.012-.676.272.26.803 1.288 1.656 2.432 2.027l.806.26-.702.395a7.672 7.672 0 0 1-3.486.914C9.481 23.4 9 23.45 9 23.486c0 .124 1.587.816 2.51 1.088 2.77.803 6.06.457 8.532-.915 1.756-.976 3.512-2.916 4.331-4.795.442-1 .884-2.83.884-3.707 0-.569.04-.643.768-1.323.429-.395.832-.828.91-.951.13-.235.117-.235-.546-.025-1.105.37-1.262.321-.715-.235.403-.395.884-1.112.884-1.322 0-.037-.195.025-.416.136-.234.124-.754.309-1.145.42l-.702.21-.637-.408c-.351-.222-.846-.47-1.106-.543-.663-.173-1.678-.149-2.276.05-1.626.555-2.653 1.989-2.536 3.558z"/>
    </g>
</svg>
