<?xml version="1.0" encoding="UTF-8"?>
<svg width="18px" height="19px" viewBox="0 0 18 19" version="1.1" xmlns="http://www.w3.org/2000/svg" xmlns:xlink="http://www.w3.org/1999/xlink">
    <!-- Generator: sketchtool 52.5 (67469) - http://www.bohemiancoding.com/sketch -->
    <title>AEC1A1F4-42D7-4005-B02D-762A1D05D084</title>
    <desc>Created with sketchtool.</desc>
    <g id="BAG/CHECKOUT" stroke="none" stroke-width="1" fill="none" fill-rule="evenodd">
        <g id="BAG" transform="translate(-864.000000, -608.000000)" fill="#434C5F">
            <g id="Delete-Copy" transform="translate(861.000000, 605.000000)">
                <path d="M7,10 L16.9980004,10 L17,20 L7,20 L7,10 Z M5,20.0005 C5,21.1035 5.897,22.0005 7,22.0005 L17,22.0005 C18.103,22.0005 19,21.1035 19,20.0005 L19,8.0005 L5,8.0005 L5,20.0005 Z" id="Fill-258"></path>
                <path d="M15,5.0005 L15,4.0005 C15,3.44821525 14.5490248,3.0005 14.009222,3.0005 L9.99077797,3.0005 C9.44358641,3.0005 9,3.44436482 9,4.0005 L9,5.0005 L3.99077797,5.0005 C3.44358641,5.0005 3,5.44436482 3,6.0005 L3,6.0005 C3,6.55278475 3.44494629,7.0005 3.99339768,7.0005 L20.0066023,7.0005 C20.5552407,7.0005 21,6.55663518 21,6.0005 L21,6.0005 C21,5.44821525 20.5490248,5.0005 20.009222,5.0005 L15,5.0005 Z" id="Fill-259"></path>
                <path d="M9,17.009222 C9,17.5564136 9.44386482,18 10,18 L10,18 C10.5522847,18 11,17.5490248 11,17.009222 L11,12.990778 C11,12.4435864 10.5561352,12 10,12 L10,12 C9.44771525,12 9,12.4509752 9,12.990778 L9,17.009222 Z" id="Fill-260"></path>
                <path d="M13,17.009222 C13,17.5564136 13.4438648,18 14,18 L14,18 C14.5522847,18 15,17.5490248 15,17.009222 L15,12.990778 C15,12.4435864 14.5561352,12 14,12 L14,12 C13.4477153,12 13,12.4509752 13,12.990778 L13,17.009222 Z" id="Fill-261"></path>
            </g>
        </g>
    </g>
</svg>