<?xml version="1.0" standalone="no"?>
<!DOCTYPE svg PUBLIC "-//W3C//DTD SVG 20010904//EN"
 "http://www.w3.org/TR/2001/REC-SVG-20010904/DTD/svg10.dtd">
<svg version="1.0" xmlns="http://www.w3.org/2000/svg"
 width="21.000000pt" height="17.000000pt" viewBox="0 0 21.000000 17.000000"
 preserveAspectRatio="xMidYMid meet">
<metadata>

</metadata>
<g transform="translate(0.000000, 18.000000) scale(0.007000,-0.007000)"
fill="#434C5F" stroke="none">
<path d="M1220 1825 c-221 -27 -443 -98 -613 -195 l-87 -50 -205 0 c-113 0
-205 -2 -205 -4 0 -3 18 -33 40 -68 21 -35 50 -92 64 -128 22 -59 23 -67 9
-85 -30 -41 -82 -154 -99 -216 -23 -86 -23 -252 0 -339 63 -243 254 -433 496
-495 83 -22 253 -22 335 0 103 26 215 88 294 161 40 38 76 63 80 58 5 -5 38
-53 73 -107 l65 -97 73 110 73 110 34 -40 c71 -83 221 -170 343 -201 33 -8
102 -14 170 -13 95 1 129 6 195 27 180 59 320 178 399 339 66 133 79 197 74
343 -6 138 -26 210 -89 317 l-39 67 25 68 c14 37 44 96 65 131 22 35 40 65 40
68 0 2 -100 4 -223 4 l-222 0 -135 68 c-143 72 -248 110 -395 141 -193 42
-427 51 -635 26z m415 -115 c136 -13 240 -35 370 -78 l109 -36 -68 -13 c-168
-31 -295 -99 -404 -218 -69 -76 -132 -192 -157 -289 -17 -67 -25 -81 -25 -43
0 46 -55 181 -103 254 -109 163 -287 275 -477 301 l-65 8 110 36 c227 75 468
101 710 78z m-710 -275 c89 -24 173 -73 246 -146 208 -206 214 -532 14 -747
-95 -103 -215 -163 -355 -177 -139 -14 -314 50 -419 153 -214 211 -224 538
-22 754 76 82 139 123 234 154 87 28 213 32 302 9z m1350 0 c246 -63 416 -277
416 -525 0 -185 -78 -340 -226 -445 -217 -155 -508 -132 -695 55 -218 218
-219 554 -1 771 134 133 330 189 506 144z"/>
<path d="M673 1236 c-89 -29 -151 -84 -200 -179 -24 -45 -27 -64 -27 -142 0
-79 3 -97 29 -148 32 -65 91 -124 157 -158 65 -34 194 -38 270 -9 76 28 149
98 184 175 23 50 28 74 28 140 0 133 -60 234 -176 295 -54 29 -75 34 -143 37
-49 2 -96 -3 -122 -11z m164 -111 c80 -16 163 -119 163 -204 0 -202 -243 -301
-382 -154 -96 100 -68 275 54 339 33 17 98 33 118 29 8 -2 29 -6 47 -10z"/>
<path d="M2043 1236 c-89 -29 -151 -84 -200 -179 -24 -45 -27 -64 -27 -142 0
-78 3 -98 27 -146 30 -63 92 -125 159 -161 37 -19 58 -23 143 -23 86 0 107 3
150 24 251 124 253 479 3 607 -64 33 -186 43 -255 20z m205 -128 c69 -32 121
-117 121 -198 1 -41 -31 -115 -62 -148 -77 -83 -210 -89 -298 -14 -142 122
-86 339 98 381 47 10 86 5 141 -21z"/>
</g>
</svg>
