<?xml version="1.0" encoding="UTF-8"?>
<svg width="32px" height="22px" viewBox="0 0 32 22" version="1.1" xmlns="http://www.w3.org/2000/svg" xmlns:xlink="http://www.w3.org/1999/xlink">
    <!-- Generator: sketchtool 52.5 (67469) - http://www.bohemiancoding.com/sketch -->
    <title>99BD8C3A-67A9-43DA-A2CA-534BBE2AE20B</title>
    <desc>Created with sketchtool.</desc>
    <g id="ACCOUNT" stroke="none" stroke-width="1" fill="none" fill-rule="evenodd">
        <g id="COMPANY" transform="translate(-857.000000, -326.000000)">
            <g id="UPLOAD" transform="translate(857.000000, 321.000000)">
                <polygon id="Path" points="0 0 32 0 32 32 0 32"></polygon>
                <path d="M25.8,13.0533333 C24.8933333,8.45333333 20.8533333,5 16,5 C12.1466667,5 8.8,7.18666667 7.13333333,10.3866667 C3.12,10.8133333 0,14.2133333 0,18.3333333 C0,22.7466667 3.58666667,26.3333333 8,26.3333333 L25.3333333,26.3333333 C29.0133333,26.3333333 32,23.3466667 32,19.6666667 C32,16.1466667 29.2666667,13.2933333 25.8,13.0533333 Z M25.3333333,23.6666667 L8,23.6666667 C5.05333333,23.6666667 2.66666667,21.28 2.66666667,18.3333333 C2.66666667,15.6 4.70666667,13.32 7.41333333,13.04 L8.70673259,12.9070337 C8.78997788,12.8984758 8.86342041,12.8488346 8.90239595,12.774781 L9.50666667,11.6266667 C10.7733333,9.18666667 13.2533333,7.66666667 16,7.66666667 C19.4933333,7.66666667 22.5066667,10.1466667 23.1866667,13.5733333 L23.5493315,15.3866577 C23.5713881,15.4969407 23.6643716,15.57892 23.7765491,15.586985 L25.6266667,15.72 C27.7066667,15.8533333 29.3333333,17.6 29.3333333,19.6666667 C29.3333333,21.8666667 27.5333333,23.6666667 25.3333333,23.6666667 Z M11.2702201,17 L14.0666667,17 L14.0666667,20.75 C14.0666667,20.8880712 14.1785955,21 14.3166667,21 L17.6833333,21 C17.8214045,21 17.9333333,20.8880712 17.9333333,20.75 L17.9333333,17 L20.7297799,17 C20.8678511,17 20.9797799,16.8880712 20.9797799,16.75 C20.9797799,16.6836959 20.9534407,16.6201074 20.9065566,16.5732233 L16.1767767,11.8434434 C16.0791456,11.7458123 15.9208544,11.7458123 15.8232233,11.8434434 L11.0934434,16.5732233 C10.9958123,16.6708544 10.9958123,16.8291456 11.0934434,16.9267767 C11.1403275,16.9736608 11.2039159,17 11.2702201,17 Z" id="Shape" fill-opacity="0.54" fill="#434C5F" fill-rule="nonzero"></path>
            </g>
        </g>
    </g>
</svg>