<?xml version="1.0" encoding="UTF-8"?>
<svg width="20px" height="21px" viewBox="0 0 20 21" version="1.1" xmlns="http://www.w3.org/2000/svg" xmlns:xlink="http://www.w3.org/1999/xlink">
    <!-- Generator: sketchtool 52.5 (67469) - http://www.bohemiancoding.com/sketch -->
    <title>B1ED73CB-3A5B-456F-BE1A-F23A3490CEA2</title>
    <desc>Created with sketchtool.</desc>
    <g id="ACCOUNT" stroke="none" stroke-width="1" fill="none" fill-rule="evenodd">
        <g id="COMPANY" transform="translate(-122.000000, -197.000000)" fill="#3577D4">
            <g id="Company-icon-blue" transform="translate(120.000000, 195.000000)">
                <path d="M9,10 L9,8 L11,8 L11,10 L9,10 Z M13,10 L13,8 L15,8 L15,10 L13,10 Z M9,14 L9,12 L11,12 L11,14 L9,14 Z M13,14 L13,12 L15,12 L15,14 L13,14 Z M5,18 L5,16 L7,16 L7,18 L5,18 Z M9,18 L9,16 L11,16 L11,18 L9,18 Z M13,18 L13,16 L15,16 L15,18 L13,18 Z M17,18 L17,16 L19,16 L19,18 L17,18 Z M20,21 L20,15 L17,15 C16.448,15 16,14.552 16,14 L16,6 L14,6 C13.448,6 13,5.552 13,5 L13,4 L11,4 L11,5 C11,5.552 10.552,6 10,6 L8,6 L8,14 C8,14.552 7.552,15 7,15 L4,15 L4,21 L10,21 L10,19 L14,19 L14,21 L20,21 Z M21,13 C21.552,13 22,13.448 22,14 L22,22 C22,22.552 21.552,23 21,23 L3,23 C2.448,23 2,22.552 2,22 L2,14 C2,13.448 2.448,13 3,13 L6,13 L6,5 C6,4.448 6.448,4 7,4 L9,4 L9,3 C9,2.448 9.448,2 10,2 L14,2 C14.552,2 15,2.448 15,3 L15,4 L17,4 C17.552,4 18,4.448 18,5 L18,13 L21,13 Z" id="Combined-Shape"></path>
            </g>
        </g>
    </g>
</svg>