<?xml version="1.0" encoding="UTF-8"?>
<svg width="180px" height="183px" viewBox="0 0 180 183" version="1.1" xmlns="http://www.w3.org/2000/svg" xmlns:xlink="http://www.w3.org/1999/xlink">
    <!-- Generator: sketchtool 52.5 (67469) - http://www.bohemiancoding.com/sketch -->
    <title>BC4E0BFE-EE64-4B21-A793-6C4CC3BC3C1F</title>
    <desc>Created with sketchtool.</desc>
    <g id="BAG/CHECKOUT" stroke="none" stroke-width="1" fill="none" fill-rule="evenodd">
        <g id="BAG-EMPTY" transform="translate(-630.000000, -272.000000)" fill="#434C5F">
            <g id="bag-icon" transform="translate(630.000000, 272.000000)">
                <path d="M143.000196,128.001221 C143.000196,136.284828 136.28492,143.000153 128,143.000153 C119.716453,143.000153 112.999804,136.284828 112.999804,128.001221 L112.999804,122 L107,122 L107,128.001221 C107,139.598545 116.401387,149 128,149 C139.59724,149 149,139.598545 149,128.001221 L149,122 L142.998823,122 L142.998823,128.001221 L143.000196,128.001221 Z" id="Path"></path>
                <path d="M3.04736799,149.449814 L73.2192266,149.449814 L73.2192266,179.950745 C73.2192266,181.634537 74.5850952,183 76.2693876,183 L176.949839,183 C178.634131,183 180,181.634537 180,179.950745 L180,85.4000932 L179.973465,85.4000932 C179.981844,85.136215 179.956706,84.8737337 179.896652,84.6168367 C179.541917,83.280693 178.332467,82.3508378 176.949839,82.3494417 L128.134694,82.3494417 L128.134694,24.3996277 C128.134694,24.3046875 128.090003,24.2292936 128.08302,24.137146 C128.081623,23.9682084 128.066261,23.8006669 128.036932,23.6345215 C128.015983,23.5493546 127.961516,23.482338 127.933584,23.3999634 C127.8861,23.2659302 127.827443,23.1360856 127.760407,23.0118254 C127.655662,22.8093795 127.528572,22.618103 127.379137,22.4449768 C127.292548,22.3374711 127.200373,22.2355501 127.101214,22.1406096 C126.915467,21.9800492 126.710168,21.8446199 126.490903,21.7343217 C126.393141,21.6700973 126.29119,21.612854 126.186445,21.5639876 C125.8359,21.4243697 125.461613,21.3517684 125.084533,21.3503723 L85.4226636,21.3503723 C85.4226636,9.55824298 75.8615822,0 64.0659502,0 C52.2717151,0 42.7092368,9.55824298 42.7092368,21.3503723 L3.04736799,21.3503723 C2.67028747,21.3545609 2.29879368,21.4299544 1.94964503,21.5723649 C1.8435039,21.6226273 1.74155264,21.6798706 1.64518739,21.744095 C1.42592225,21.8529968 1.22062286,21.9898226 1.03487596,22.1489868 C0.935718067,22.2453231 0.842146189,22.3472444 0.756954053,22.4547502 C0.60751842,22.6278764 0.479031785,22.8177567 0.37568366,23.0215987 C0.30725065,23.1458586 0.249990391,23.2757035 0.201109516,23.4083406 C0.174574144,23.4907149 0.118710389,23.5577315 0.0977617492,23.6442948 C0.0684330099,23.8104402 0.0530707456,23.9779817 0.0516738836,24.1469193 C0.0516738836,24.2376709 0,24.3144608 0,24.409401 L0,146.399162 C0,148.082954 1.36447212,149.448418 3.04736799,149.449814 Z M27.4556389,48.8006515 L17.423905,48.8006515 L27.4556389,44.3440475 L27.4556389,48.8006515 Z M6.09892549,47.1559525 L6.09892549,29.5850374 L23.6778522,39.3457259 L6.09892549,47.1559525 Z M94.5745434,106.750465 L87.756372,106.750465 L94.5745434,102.855125 L94.5745434,106.750465 Z M79.3209451,104.544502 L79.3209451,90.6553117 L91.4755016,97.5999068 L79.3209451,104.544502 Z M79.3209451,176.900093 L79.3209451,112.850372 L173.898282,112.850372 L173.898282,176.900093 L79.3209451,176.900093 Z M158.644683,102.855125 L165.462855,106.750465 L158.644683,106.750465 L158.644683,102.855125 Z M173.898282,104.544502 L161.743725,97.5999068 L173.898282,90.6553117 L173.898282,104.544502 Z M154.068045,94.9527511 C153.122551,95.4986572 152.540172,96.5080949 152.542965,97.5999068 L152.542965,106.750465 L100.677658,106.750465 L100.677658,97.5999068 C100.679055,96.5080949 100.098072,95.4986572 99.1511814,94.9527511 L87.7591654,88.4507446 L165.460061,88.4507446 L154.068045,94.9527511 Z M76.2693876,82.3494417 C74.8867595,82.3508378 73.6773094,83.280693 73.3225743,84.6168367 C73.2625207,84.8737337 73.2373822,85.136215 73.2457619,85.4000932 L73.2192266,85.4000932 L73.2192266,143.349907 L6.09892549,143.349907 L6.09892549,54.8991622 L42.7092368,54.8991622 L42.7092368,70.1496277 L48.8123522,70.1496277 L48.8123522,54.8991622 L79.3209451,54.8991622 L79.3209451,70.1496277 L85.4226636,70.1496277 L85.4226636,54.8991622 L122.034372,54.8991622 L122.034372,82.3494417 L76.2693876,82.3494417 Z M49.1168095,48.8006515 C50.7941186,40.54644 58.8454825,35.2130355 67.1021454,36.889847 C73.1047057,38.1087113 77.7972611,42.7984774 79.0150909,48.8006515 L49.1168095,48.8006515 Z M100.677658,44.3440475 L110.707996,48.8006515 L100.677658,48.8006515 L100.677658,44.3440475 Z M122.032975,47.1559525 L104.454048,39.3443298 L122.032975,29.5850374 L122.032975,47.1559525 Z M64.0659502,6.09990683 C72.4874114,6.10968018 79.3097723,12.9314119 79.3209451,21.3503723 L48.8123522,21.3503723 C48.8221285,12.9314119 55.6458859,6.10968018 64.0659502,6.09990683 Z M113.311247,27.4502791 L96.1429181,36.9847868 C95.1820615,37.5265047 94.5871127,38.5457153 94.5913022,39.6500932 L94.5759399,39.6500932 L94.5759399,48.8006515 L85.1782599,48.8006515 C83.5037438,37.1439514 72.6941073,29.0516968 61.0339452,30.7257157 C51.6628002,32.070236 44.2999573,39.4308928 42.9536409,48.8006515 L33.5573574,48.8006515 L33.5573574,39.6500932 C33.5601507,38.5457153 32.9665981,37.5265047 32.004345,36.9847868 L14.8220506,27.4502791 L113.311247,27.4502791 Z" id="Shape" fill-rule="nonzero"></path>
            </g>
        </g>
    </g>
</svg>